<?xml version="1.0" standalone="no"?>
<!DOCTYPE svg PUBLIC "-//W3C//DTD SVG 1.1//EN" "http://www.w3.org/Graphics/SVG/1.1/DTD/svg11.dtd" >
<svg>
<metadata>
Created by FontForge 20090914 at Thu Feb 23 19:30:01 2012
 By ffonts
Copyright &#194;&#169; 1999 DownHill Fonts. Created by Ram&#195;&#179;n Abajo with Macromedia Fontographer 4.1. All rigths reserved
</metadata>
<defs>
<font id="AbcKids" horiz-adv-x="510" >
  <font-face 
    font-family="AbcKids"
    font-weight="400"
    font-stretch="normal"
    units-per-em="1000"
    panose-1="0 0 4 0 0 0 0 0 0 0"
    ascent="800"
    descent="-200"
    x-height="378"
    cap-height="765"
    bbox="-142 -488 1516.08 909"
    underline-thickness="20"
    underline-position="-90"
    unicode-range="U+0020-U+F002"
  />
<missing-glyph horiz-adv-x="500" 
d="M63 0v800h375v-800h-375zM125 63h250v675h-250v-675z" />
    <glyph glyph-name=".notdef" horiz-adv-x="500" 
d="M63 0v800h375v-800h-375zM125 63h250v675h-250v-675z" />
    <glyph glyph-name=".null" horiz-adv-x="0" 
 />
    <glyph glyph-name="nonmarkingreturn" horiz-adv-x="640" 
 />
    <glyph glyph-name="space" unicode=" " horiz-adv-x="640" 
 />
    <glyph glyph-name="exclam" unicode="!" horiz-adv-x="280" 
d="M97 -236q-12 0 -22.5 9.5t-10.5 22.5q0 58 50 78q6 7 19 8q7 0 29 3q1 -6 8 -31q6 -21 6 -29q0 -31 -28 -48q-22 -13 -51 -13zM118 417q-5 9 -5 19q0 6 2.5 20t1.5 22q-11 92 -38 272q-4 16 6 26t24 10q24 0 28 -24q13 -43 31 -135q1 -14 12 -75q9 -46 9 -75
q0 -15 -2 -29l-1 -5q6 -14 7 -70q1 -37 -1 -105q-2 -72 -2 -80q0 -28 2 -70q4 -53 4 -72q2 -37 -36 -37q-35 0 -36 35q-1 18 -5 73q-2 42 -2 71q0 10 2 115q2 69 -1 114z" />
    <glyph glyph-name="quotedbl" unicode="&#x22;" horiz-adv-x="307" 
d="M110 772q0 -13 2.5 -33.5t2.5 -33.5q0 -24 10 -60q13 -47 14 -59q4 -20 -8.5 -32.5t-30.5 -12.5q-32 0 -37 33q-14 81 -14 131q0 13 5.5 33.5t5.5 33.5q0 25 25 25t25 -25zM238 785q0 -36 17 -98q17 -65 18 -94q1 -19 -11 -30.5t-28 -11.5q-38 0 -39 38q-7 138 -7 196
q0 25 25 25t25 -25z" />
    <glyph glyph-name="numbersign" unicode="#" horiz-adv-x="1190" 
d="M927 551l-4 14q16 7 36 25q29 26 34 30l28 -41q-16 -10 -46 -17q-44 -9 -48 -11zM445 636q18 -30 69 -62.5t84 -32.5q22 0 22 29q0 36 -33 67q-17 16 -63 45q-5 3 -18 12t-19 9q-12 0 -12 -16q0 2 12 -44zM436 657v-2q1 -5 4 -10q0 1 -4 12zM478 -228l-20 -72
q-16 -38 -57 -38q-19 0 -52 -13q-43 -17 -53 -20l-10 49q12 3 57 20q34 14 58 14q3 0 7 1q5 5 13 38l9 37q22 63 41 175q28 162 32 180q-21 -3 -44 -4l-1 14l5 1l-36 17l66 133q-16 -7 -49 -15q-16 -1 -108 -21q-71 -15 -102 -5q-12 4 -16 11l1 -14q-11 -1 -77 -28l-18 47
q32 10 94 13v-3q3 8 11 17q-18 11 -30 27q-6 8 -33 26l31 39q9 -16 28 -46q1 -1 4 -7q4 -9 13 -26l2 -3q4 1 10 3l15 -10q29 1 86.5 15t86.5 15q13 0 30 -6q22 -9 29 -11l5 12q36 79 94 160q-18 0 -38 6q-37 12 -75 47t-57 77q1 -23 18 -62t20 -58q4 -34 -12 -71.5
t-37 -37.5q-23 0 -62 37l-4 4l30 40q10 -11 34 -29l3 -2q12 3 6 25q-3 10 -7 27q-8 35 -19 102q-4 47 30 84v4q0 22 18 42.5t39 20.5q25 0 101 -53q80 -56 80 -127q0 -70 -62 -75l8 -6q-22 -31 -43 -82l-36 -86q-21 -61 -62 -166q32 5 82 19q65 19 81 22q46 14 139 34
q-19 46 -77 124.5t-77 123.5l14 6q18 -40 82 -108l-4 9q24 12 54 36l50 43l75 74l6 6q-6 29 -20 68q-17 48 -21 64l48 12q5 -24 5 -68q-1 -26 -1 -38q1 -14 2 -26l2 2l30 -35l5 3q11 -16 38 -28q39 -16 43 -19q11 -5 31 -19l-37 -33l-1 1q-19 24 -41.5 37.5t-42.5 48.5
q-126 -101 -217 -142l15 -16q77 -81 95 -135l-15 -5v-32q-94 0 -173 -19q-49 -11 -109 -19q-10 -45 -24 -190q-11 -123 -32 -184zM885 -234q-4 1 -9 4q-3 -1 -6 -1l2 -10q6 3 13 7zM887 -234l1 -3q2 -7 5 -14l8 5q-2 3 -3 6q-4 2 -7 6h-4zM927 -268l-33 -17q-19 -10 -35 1
t-31 84l-22 130q-16 86 -32 119q-9 22 -30 65q-16 25 -23 58l16 4q1 -2 63 -83l16 -23q17 -35 33 -120l24 -130q7 -32 14 -53q27 16 41 16q50 0 43 -1l3 -50q2 0 -47 0zM184 97l-45 22q15 31 47 72q47 61 52 68l16 -11q-18 -28 -38 -74q-31 -74 -32 -77z" />
    <glyph glyph-name="dollar" unicode="$" horiz-adv-x="940" 
d="M683 591l3 44q-9 -12 -20 -24h2q-1 -16 12 -19zM551 481l4 -2v0l7 -4q-11 -22 -11 -47q0 -39 15 -39q4 0 39.5 26.5t45.5 37.5l12 -10q12 44 18 110q-31 8 -38 33l-27 -29q-42 -45 -65 -76zM684 400q-46 -99 -149 -295q-100 -192 -146.5 -295t-66.5 -112.5t-46 -9.5
q-44 0 -81 34t-37 79q0 13 12 41.5t24 35.5q35 62 122 238q27 54 99 182q65 115 99 190h-1l4 6l1 2v0q22 30 93 106q60 64 86 110q6 10 16 10q21 0 17 -22q-5 -26 -13 -147q-5 -93 -30 -154zM285 -28q39 -17 113 -58l235 476q-50 -38 -67 -38q-29 0 -47 54
q-58 -99 -169 -307zM380 -122q-7 5 -108 69l-36 -66q58 4 93 -33q11 -11 20 -34zM260 -150q-2 -1 -12 -2q-52 -8 -52 -47q0 -29 25 -51t55 -22q17 0 27.5 5t20.5 20t10 26q0 16 -26 40t-48 31zM259 -262q-29 0 -29 32q0 15 9 22q2 2 20 11l6 -12q23 -7 23 -28q0 -25 -29 -25
z" />
    <glyph glyph-name="percent" unicode="%" horiz-adv-x="940" 
d="M245 596l19 13l-22 26q1 -14 3 -39zM410 496v0l1 -2l4 -6h-1q35 -75 99 -190q72 -128 99 -182q40 -82 122 -238q13 -7 24.5 -35.5t11.5 -41.5q0 -45 -37 -79t-80 -34q-26 0 -46 9.5t-67 112.5t-147 295q-103 196 -149 295l-3 -1q-23 57 -29 149q-9 126 -13 152
q-4 22 16 22q10 0 16 -10q22 -39 64 -85l71 -77q25 -27 44 -54zM374 479h-1l4 2q-24 32 -65 76l-25 27q-13 -6 -39 -22l-1 1q5 -74 19 -120l11 10q10 -11 46 -37.5t40 -26.5q15 0 15 39q0 25 -12 47zM522 -70q46 62 107 69l-51 100q-28 57 -84 154q-60 104 -85 153
q-18 -54 -46 -54q-17 0 -68 38zM538 -97l-3 2l44 -91q10 23 20 34q35 37 93 33l-52 97v-22q-29 0 -58.5 -15t-43.5 -38zM702 -157q-11 1 -34 7q-22 -7 -48 -31t-26 -40q0 -11 10 -26t21 -20t28 -5q29 0 54 22t25 51q0 31 -30 42zM663 -210l6 13q18 -9 21 -11q9 -7 9 -22
q0 -32 -30 -32q-29 0 -29 25q0 21 23 27z" />
    <glyph glyph-name="ampersand" unicode="&#x26;" horiz-adv-x="1310" 
d="M936 527v-186l155 -9l-59 -178l140 -149q9 47 9 95q0 133 -66 246t-179 181zM935 568l1 1v-1q128 -72 203 -194q77 -126 77 -274q0 -64 -15 -126l7 -8l-9 -1q-48 -177 -199 -291t-345 -114q-232 0 -396.5 158t-164.5 382t164.5 382t396.5 158q150 0 280 -72zM705 603
l42 -149l153 93q-92 46 -195 56zM526 590l70 -130l85 144q-13 1 -26 1q-66 0 -129 -15zM359 518l115 -96l46 166q-86 -22 -161 -70zM245 416l123 -46l-26 136q-55 -39 -97 -90zM215 -178l78 172l-160 171v1l165 47l-64 191q-105 -135 -105 -304q0 -152 86 -278zM455 -367
l-59 187l-170 -12q88 -120 229 -175zM832 -376l-98 105l-159 -121l-26 111l-79 -92q89 -32 185 -32q92 0 177 29zM998 -53l19 -204l-117 58l-37 -165q108 45 187 130.5t111 195.5zM711 -244q-75 -11 -148 10l31 -100zM870 -177q-55 -42 -123 -60l88 -95zM964 -67
q-28 -51 -70 -89l82 -41zM1003 141q3 -24 3 -48q0 -58 -21 -114l165 15zM919 307q60 -63 79 -144l45 136zM731 411q96 -19 170 -86v191zM601 412q61 10 122 0l-40 119zM498 378q41 20 86 30l-51 95zM418 322q27 26 61 45l-92 91zM337 208q27 62 74 108l-126 48zM319 14
q-8 35 -8 71q0 52 17 101l-135 -38zM418 -150q-63 59 -90 136l-61 -136h151zM428 -158l55 -157l69 85q-67 22 -124 72zM838 330q-77 52 -174 52q-80 0 -150 -36q-73 -36 -118 -102q-50 -75 -50 -159q0 -150 141 -245q79 -53 173 -53q76 0 144.5 35.5t112.5 101.5
q54 80 54 169q0 147 -133 237zM766 60q-17 3 -17 38q0 11 3 22q4 22 15.5 36.5t21.5 12.5q16 -3 16 -38q0 -11 -2 -22q-5 -23 -16 -37t-21 -12zM651 188q-24 -16 -44 -16q-19 0 -19 14q0 22 34 45q23 16 44 16q19 0 19 -14q0 -22 -34 -45zM532 85q-10 6 -21 7q1 -32 18 -79
q18 -50 35.5 -62t47.5 -12q50 0 95 23q-5 -1 -12 -2l-7 26q42 10 63 -4t18 -54l-27 2q1 18 0 23q-23 -19 -62 -34q-43 -15 -80 -15q-35 0 -57 15t-40 71q-16 50 -19 94q-13 -9 -27 -26l-21 17q35 44 74 44q19 0 36 -11z" />
    <glyph glyph-name="quotesingle" unicode="'" horiz-adv-x="210" 
d="M126 605q8 -9 8 -21q0 -20 -19 -35q0 -41 40 -130q5 -9 5 -17q0 -17 -13 -28t-29 -11q-25 0 -35 24q-36 79 -36 171q0 40 13.5 60t30.5 20q24 0 35 -33z" />
    <glyph glyph-name="parenleft" unicode="(" horiz-adv-x="398" 
d="M373 715q-109 -43 -159 -263q-33 -147 -33 -318q0 -114 24 -209q32 -123 97 -176q15 -11 15 -28q0 -15 -11.5 -27t-26.5 -12q-12 0 -23 9q-77 61 -115 202q-30 112 -30 241q0 541 240 637q6 2 12 2q29 0 29 -31q0 -19 -19 -27z" />
    <glyph glyph-name="parenright" unicode=")" horiz-adv-x="380" 
d="M172 748q104 -50 104 -284q0 -100 -20 -242l-28 -186q-27 -201 -90 -360q-10 -24 -34 -24q-15 0 -27 10.5t-12 26.5q0 7 3 15q50 125 93 369t43 404q0 23 -1 42q-4 73 -10 100q-12 57 -47 75q-18 8 -18 26q0 12 8.5 22t21.5 10q7 0 14 -4z" />
    <glyph glyph-name="asterisk" unicode="*" horiz-adv-x="1350" 
d="M910 458q16 49 58.5 92.5t84.5 43.5q41 0 56 -47q14 8 31 8q44 0 67 -27t23 -70q0 -12 -41 -58q6 -8 6 -22q0 -23 -10 -39q-18 -29 -57 -47.5t-76 -18.5q-31 0 -54 7q-24 -32 -40 -32q-40 0 -81 22q-47 26 -47 62q0 47 23 77q15 20 57 49zM1159 381q-3 -2 -4 3v9
q-13 4 -13 11q0 2 2 5l1 1l2 2l27 30l16 16q0 60 -50 60q-13 0 -26 -21q-5 -8 -16 -8q-18 0 -19 17q-3 30 -4 33q-6 21 -22 21q-30 0 -63.5 -30.5t-49.5 -68.5l13 -18q-24 -15 -65 -45q-26 -25 -26 -66q0 -21 31 -36q28 -13 60 -15q8 7 14 16q-9 18 10 24l1 4v-3h4h2l1 1
l2 -1q9 -1 14 -6q13 -5 51 -5q32 0 66 17q39 21 39 49v3zM1096 4l1 -14q-38 -5 -60 -13q40 -19 59 -19q8 0 19 -21l25 -51q19 59 44 59q10 0 51 18q-27 15 -41 15q-26 0 -53 88l-41 -64zM1275 -53q-23 -8 -46 -17q-34 -13 -45 -13q-15 0 -26 -69q-1 -13 -12 -13
q-12 0 -34 46l-25 51q-35 4 -88 35q-8 5 -8 12q0 8 9 12q32 17 78 23l-1 1q14 23 29 45q17 28 23 48q3 11 12 11q11 0 22 -33q26 -80 31 -80q20 0 43 -10l40 -20q11 -5 11 -14q0 -11 -13 -15zM736 170l5 -3q-8 -15 -41 -41l11 2q18 4 35 4q23 0 48 -43l3 -5q7 29 15 42
q12 17 38 27l2 1q-9 2 -16 2q-3 0 -8 1.5t-8 1.5q-27 0 -49 44l-6 11q-10 -14 -29 -44zM849 123q-7 -3 -10 -6q-8 -8 -14 -32l-8 -35q-7 -20 -16 -20q-6 0 -11 10q-36 65 -44 65q-17 0 -42.5 -5t-39.5 -5q-16 0 -16 12q0 10 8 18l53 44l-3 2q8 16 24 39t22 36q4 9 10 9
q10 0 21 -17l17 -32q11 -20 20 -20q3 0 8 -1.5t9.5 -1.5t48.5 -11q13 -3 13 -10q0 -6 -8.5 -15t-41.5 -24zM185 540q1 7 4.5 17.5t3.5 19.5h1q3 11 14 11q7 0 12 -6q1 -3 3 -6v-4q0 -10 -4 -26q71 1 71 34q0 -2 -9 24q-1 5 -1 9q0 10 14.5 13t14.5 8q0 23 -19 23
q-9 0 -31 -8t-34 -8q-28 0 -38 34q-7 23 -11 23q-26 0 -49 -38q-20 -34 -20 -67l14 4q3 -17 12 -52q8 -26 25 -25q17 2 27 20zM909 -269q-17 -22 -67 -70q-69 -67 -222 -67q-154 0 -279 77q-108 66 -182 178q-82 125 -86 259q-3 115 53 226q52 104 143 181q-23 -5 -61 -5
q-4 0 -7 1q-19 -25 -46 -25q-36 0 -51 45q-3 17 -11 52l-15 -2q-6 42 23 95q32 59 75 59q35 0 44 -36q4 -18 12 -18q4 0 10 2q35 12 48 12q27 0 42.5 -18t15.5 -43q0 -22 -23 -36q1 -8 1 -18q0 -13 -4 -24q116 78 231 78q4 0 43 3q23 2 43 -4q30 14 52 14q21 0 39 -22
t18 -44q0 -46 -18 -78q-23 -40 -68 -40q-29 0 -42 39q-10 31 -14 31q-2 0 -29 -12q-66 -29 -101 -145q-28 -93 -28 -204q0 -144 67 -254q64 -103 154 -126q42 -11 71 -11q55 0 55 35q0 25 31 69q7 11 31 20.5t40 9.5q52 0 52 -84q0 -48 -40 -100zM290 -115l-28 1q1 14 4 39
q4 22 4 38h27q0 -16 -3 -39q109 -66 141 -66q39 0 53 28q-74 116 -74 286q0 124 35 223q43 123 131 166q14 6 26 6q29 0 42 -37q11 -29 14 -29q23 0 38 28q12 23 12 52q0 9 -7 18.5t-14 9.5q-9 0 -28 -11l2 -3l-6 2q-5 -3 -7 -4l-4 6q-15 4 -31 5q-11 0 -29 -1
q-23 -1 -35 -1q-100 0 -205 -70t-171 -180q-71 -119 -69 -244q1 -116 84 -234q72 -100 173 -166q115 -73 250 -73q122 0 192 55q54 41 72 66q27 38 28 91q0 26 -10 26q-30 0 -38 -11q-23 -33 -23 -46q0 -67 -116 -67q-22 0 -45 3q-98 14 -170 108q-20 -32 -70 -32
q-33 0 -144 66q-1 -5 -1 -9zM312 26q-16 32 -17 69l27 2q1 -32 15 -59zM280 39l-26 6l9 40l-2 -1l-11 28l62 21q45 18 45 37q0 15 -6 47q-8 40 -17 40t-31 -13l-15 27q30 16 46 16q24 0 41 -50q12 -38 12 -67q0 -26 -27 -46l8 2q4 -13 24 -39l-25 -20q-16 20 -24 47l-5 -2
l-75 -27l26 -6zM224 34l-28 11l20 45l28 -11q-8 -16 -20 -45z" />
    <glyph glyph-name="plus" unicode="+" horiz-adv-x="562" 
d="M308 432q0 -55 11 -120q57 11 97 11q6 0 16 -1h15h43q37 0 37 -38q0 -37 -37 -37h-43q-6 0 -15.5 1t-15.5 1q-36 0 -84 -6q20 -86 55 -183q3 -8 3 -14q0 -16 -12 -26.5t-27 -10.5q-25 0 -34 25q-33 90 -51 199q-31 -5 -94 -11h-56q-36 -1 -54 -7q-5 -1 -10 -1
q-29 0 -29 31q0 21 21 28q28 9 73 11q70 4 74 5q27 3 65 11q-8 69 -8 132q0 30 30 30t30 -30z" />
    <glyph glyph-name="comma" unicode="," horiz-adv-x="200" 
d="M120 71q33 -76 33 -125q0 -74 -50 -107q-11 -8 -23 -8q-16 0 -27.5 12.5t-11.5 28.5q0 20 17 31t17 43q0 7 1 36q1 21 0 34q-2 18 -8 33q-3 6 -3 12q0 28 30 28q18 0 25 -18z" />
    <glyph glyph-name="hyphen" unicode="-" horiz-adv-x="470" 
d="M40 235v55h377v-55h-377z" />
    <glyph glyph-name="hyphen" unicode="&#x2010;" horiz-adv-x="470" 
d="M40 235v55h377v-55h-377z" />
    <glyph glyph-name="period" unicode="." horiz-adv-x="239" 
d="M164 8l-40 -33q-17 10 -34 19q-18 13 -18 32q0 24 19 31q1 0 39 4l20 -2l17 -16z" />
    <glyph glyph-name="slash" unicode="/" horiz-adv-x="411" 
d="M52 305q-4 2 -8 16q24 0 60.5 6.5t57.5 6.5q12 0 31 -1h32q28 0 79.5 12t76.5 13q41 2 41 -39q0 -37 -37 -39q-24 -1 -80 -9q-50 -7 -80 -7q-13 0 -31.5 1t-31.5 1q-20 0 -57.5 -3t-60.5 -3q-41 0 -42 41q-2 27 25 27q23 0 25 -23zM140 430q0 30 35 30t35 -30t-35 -30
t-35 30zM140 125q0 14 13 24.5t32 10.5t32 -10.5t13 -24.5t-13 -24.5t-32 -10.5t-32 10.5t-13 24.5z" />
    <glyph glyph-name="zero" unicode="0" horiz-adv-x="555" 
d="M89 639q-15 0 -24.5 11.5t-9.5 25.5q0 23 22 32q4 2 46 25q26 15 49 17l5 1q10 4 20 6q16 2 27 -9q105 -21 180 -173q64 -132 64 -251q0 -90 -50 -164q-55 -83 -141 -83q-69 0 -141 88q-77 95 -77 300q0 91 30 174zM166 671q-36 -49 -36 -206q0 -216 106 -297
q23 -17 41 -17q56 0 88 60q27 50 27 113q0 55 -29 143q-33 99 -79 155q-57 70 -118 49z" />
    <glyph glyph-name="one" unicode="1" horiz-adv-x="279" 
d="M31 632q0 53 32 98q30 42 61 42q40 0 39 -80q-2 -68 13 -195q16 -133 16 -195q0 -167 13 -282q2 -17 -8.5 -27.5t-25.5 -10.5q-30 0 -34 30q-16 146 -16 290q0 12 -19 210q-7 67 -8 110q-7 -22 -31 -22q-32 0 -32 32z" />
    <glyph glyph-name="two" unicode="2" horiz-adv-x="500" 
d="M33 664q25 133 168 133q65 0 112 -33q51 -36 51 -96q0 -170 -54 -313q-26 -72 -138 -284q107 18 125 18t60.5 -1.5t62.5 -1.5q38 0 38 -39q0 -38 -38 -38q-20 0 -62.5 3t-60.5 3q-33 0 -89 -8q-59 -9 -95 -10q-40 -1 -40 22q0 11 9 29q31 64 101 195q52 90 82.5 205
t30.5 220q0 33 -31 51q-26 16 -64 16q-93 0 -108 -81q-5 -25 -29 -25q-14 0 -23.5 10t-7.5 25z" />
    <glyph glyph-name="three" unicode="3" horiz-adv-x="450" 
d="M56 664q7 40 46 70t93 30q70 0 101 -20q40 -24 40 -86q0 -87 -40 -182q41 -17 74 -77q31 -55 31 -96q0 -100 -52 -202q-65 -127 -165 -127q-42 0 -89 44t-47 85q0 17 12 27t27 10q29 0 36 -30q4 -21 23 -40.5t38 -19.5q72 0 111 99q29 73 29 154q0 29 -13 62
q-16 42 -41 42q-9 0 -15 -3q-10 -13 -21 -22q-22 -20 -41 -8q-16 11 -16 37q0 34 30 54q23 38 40 101q17 58 17 92q0 27 -21 34q-11 5 -48 5q-73 0 -79 -43q-4 -25 -29 -25q-14 0 -23.5 9.5t-7.5 25.5z" />
    <glyph glyph-name="four" unicode="4" horiz-adv-x="572" 
d="M424 591q5 -8 5 -18q0 -8 -1 -14l28 -166q14 -17 6 -40q30 -180 35 -286q2 -40 -37 -40q-36 0 -37 36q-6 110 -25 265q-33 -2 -107 -21q-68 -18 -108 -18q-46 0 -73 55q-19 41 -29 115l-10 99l-13 93q-9 51 -23 87q-2 6 -2 12q0 29 31 29q20 0 27 -19q26 -68 45 -189
q21 -141 35 -192q6 -20 12 -20q39 0 103 19q74 22 102 26q-6 40 -25 178q-2 9 -2 17q0 32 20 32q29 0 43 -40z" />
    <glyph glyph-name="five" unicode="5" horiz-adv-x="600" 
d="M126 259q16 26 27 39q0 6 2 12q20 58 101 319q-6 18 12 37l3 12q7 21 28 21q11 0 19 -6q43 12 136 12h12q7 1 9 1q57 0 57 -39q0 -15 -11 -27t-26 -12q-4 0 -10.5 1.5t-9.5 1.5h-9h-12q2 0 -68 3q-51 2 -66 -1q-29 -105 -89 -304q108 -8 187 -105q75 -93 75 -204
q0 -94 -70 -144q-61 -45 -157 -45q-68 0 -109 53q-12 15 -58 107q-5 9 -5 17q0 15 12 25t26 10q21 0 31 -20q34 -68 38 -73q28 -42 65 -42q63 0 102 25q47 29 47 87q0 90 -55 163q-60 80 -145 80q-17 0 -37 -34q-9 -15 -25 -15q-12 0 -21.5 8.5t-9.5 20.5q0 8 4 16z" />
    <glyph glyph-name="six" unicode="6" 
d="M110 168q26 -161 132 -161q34 0 72 21q44 25 44 55q0 52 -39.5 96.5t-87.5 44.5q-32 0 -59 -23q-14 -12 -28 -25.5t-34 -7.5zM360 705q-28 3 -59 -23l-48 -46q-149 -139 -149 -381v-24q9 11 22 23q49 43 108 43q77 0 137 -65.5t60 -148.5q0 -53 -70 -102
q-63 -44 -119 -44q-104 0 -158 112q-43 88 -43 206q0 143 59 270q62 132 173 215q44 33 95 27q28 -3 28 -31q0 -13 -10 -23t-26 -8z" />
    <glyph glyph-name="seven" unicode="7" horiz-adv-x="537" 
d="M60 785q20 0 49 -11q35 -12 48 -14q176 -29 179 -30q148 -33 148 -75q0 -6 -3 -13q-40 -76 -90 -214l-79 -223q-15 -41 -61 -139q-50 -109 -62 -137q-9 -20 -29 -20q-13 0 -23 9t-10 22q0 6 2 13l33 104q7 22 37 86q33 69 41 90q96 256 174 410q-55 25 -159 40
q-113 16 -160 33q-24 9 -35 9q-30 0 -30 30t30 30z" />
    <glyph glyph-name="eight" unicode="8" 
d="M345 431q-21 -32 -74 -75q-59 -48 -76 -68q-34 -41 -34 -89q0 -64 2 -76q8 -45 45 -45q34 0 83 37q44 34 61 64q35 63 35 133q0 88 -42 119zM163 688q-41 -49 -50 -114q9 -16 14 -46q3 -19 18 -24.5t72 -5.5q14 0 41.5 6.5t42.5 6.5v0q2 8 2 16q0 51 -21 90
q-23 44 -62 44q-4 0 -12 -1.5t-12 -1.5q-28 0 -33 30zM55 544q-7 8 -7 28q0 43 21 91q17 37 64 79q52 45 91 50q16 2 26 -7.5t10 -23.5q0 -27 -28 -31h-2q63 -6 105 -69q39 -60 39 -134q0 -17 -3 -33q42 -24 65 -76q22 -48 22 -106q0 -113 -47.5 -184.5t-151.5 -113.5
q-28 -11 -51 -11q-67 0 -96 71q-20 50 -20 125q0 81 60 145l106 93q-26 -6 -41 -6q-82 0 -111 21t-51 92z" />
    <glyph glyph-name="nine" unicode="9" horiz-adv-x="519" 
d="M208 692q-67 -68 -67 -170q0 -31 28 -69q29 -41 59 -41q28 0 77 39q26 21 26 70q0 75 -19 110q-23 41 -85 51q-12 2 -19 10zM370 671q6 32 12 56t28 24q31 0 31 -29q0 -16 -5.5 -49.5t-5.5 -50.5q0 -42 7 -85q6 -38 -14 -52q1 -24 -5 -95l-9 -99q-5 -98 -49 -311
q-6 -31 -37 -31q-18 0 -30.5 13t-8.5 34q27 131 30 149q16 87 19 150q3 51 6 89q-63 -44 -111 -44q-51 0 -103 67q-50 64 -50 115q0 89 47 161.5t126 107.5q6 3 13 3q29 0 29 -31q0 -18 -18 -26l-3 -2q69 -18 101 -64z" />
    <glyph glyph-name="colon" unicode=":" horiz-adv-x="239" 
d="M132 318q-22 0 -41 11q-23 13 -23 34q0 26 28 48l2 12l13 -1l15 10l12 -16q39 -17 39 -60q0 -38 -45 -38zM119 373q-4 -4 -5 -7q2 -2 8 -3q-1 7 -3 10zM128 -1q-66 0 -66 57q0 39 45 36q13 -2 45 -6q-1 -13 3 -24q7 -16 7 -27q0 -36 -34 -36z" />
    <glyph glyph-name="semicolon" unicode=";" horiz-adv-x="192" 
d="M134 399l-2 5q15 -15 15 -37q0 -43 -49 -43q-25 0 -43 10q-22 13 -22 36q0 43 60 43q31 0 41 -14zM89 375q-11 0 -11 -5q0 -1 20 -1q5 0 5 2h-2q-2 1 -5 2zM142 -8q-1 -26 -18.5 -42t-45.5 -15l-25 2l2 45q33 -2 22 -2q17 0 19 9q-37 9 -37 33q0 15 14 30t30 15
q10 0 30 -9q24 -11 20 -21q6 -10 6 -20q0 -16 -17 -25z" />
    <glyph glyph-name="less" unicode="&#x3c;" horiz-adv-x="511" 
d="M392 316q-35 -10 -104 -32q-33 -11 -145 -56q26 -6 58 -25q42 -26 129 -73l84 -34q49 -21 77 -50l-42 -42l-16 18q-11 11 -19 13q-81 12 -193 87q-50 35 -97 48q-25 7 -104 17l-13 40q43 13 128 50q92 39 137 55l105 32q61 19 103 42l24 -45q-49 -26 -112 -45z" />
    <glyph glyph-name="equal" unicode="=" horiz-adv-x="545" 
d="M358 303q-30 0 -89.5 5.5t-88.5 5.5q-16 0 -48.5 6t-49.5 6q-14 0 -32 -19l-33 35q34 33 76 33q44 0 132.5 -8.5t132.5 -8.5q29 0 79 7q61 9 87 10l4 -56q-24 -2 -89 -10q-51 -6 -81 -6zM416 204q-25 0 -73.5 1t-72.5 1q-28 0 -83 5.5t-83 5.5q-32 0 -69 -7l-10 47
q53 11 89 11q26 0 78 -4.5t78 -4.5q150 0 121 -1q71 2 121 15l15 -55q-52 -14 -111 -14z" />
    <glyph glyph-name="greater" unicode="&#x3e;" horiz-adv-x="511" 
d="M467 242l9 -3l-5 -12l8 -28q-35 -10 -82 -35.5t-144 -61.5q-101 -38 -145 -61q-23 -12 -40 -37l-36 28q16 21 23 28q12 12 31 21q14 7 44 19q114 49 255 123q-24 10 -52 18.5t-74 35.5q-49 29 -72 38q-43 13 -137 46l16 42q61 -16 178 -59q28 -14 205 -94l15 4z" />
    <glyph glyph-name="question" unicode="?" horiz-adv-x="567" 
d="M450 415q-31 -14 -122 -43q-82 -26 -122 -50q-61 -36 -86 -92q-14 -30 -14 -53q0 -39 43 -68l-41 -55q-65 46 -65 122q0 39 18 80q40 89 151 138l197 72q71 30 71 72q0 37 -88 76q-24 11 -58 11q-44 0 -81 -17q-41 -19 -56 -52l-41 19l15 32q14 34 68 54q46 17 103 17
q47 0 73 -12q127 -57 127 -134q0 -20 -9 -40q-20 -47 -83 -77zM121 -57q-19 -43 -49 -43q-19 0 -33 17t-14 39q0 12 5 23q10 23 41 23q10 0 34 -4l13 -19l11 -18z" />
    <glyph glyph-name="at" unicode="@" horiz-adv-x="1130" 
d="M942 522q-32 -9 -93 -36l-11 17q13 8 39 35q23 24 40 33zM868 610q-6 -11 -32 -42q-21 -25 -28 -44l-19 5q6 37 30 108zM944 379l-43 -36q-11 19 -38 51q-13 12 -37 56l18 10q9 -14 35 -31q31 -21 39.5 -28zM836 -194l-33 -47q-70 50 -146 176q-64 107 -100 206l19 7
q29 -80 108.5 -185.5t151.5 -156.5zM214 259l-8 -9q-43 34 -130 75l25 51q15 -7 34 -25q28 -25 32 -28l48 -49l287 78l4 -12l11 182l20 -1q-3 -54 5 -151q73 27 251 142l31 -48q-53 -34 -135 -64l-141 -49l-6 16q13 -167 13 -210h-56q0 69 6 175q-47 -14 -143.5 -58
t-135.5 -56zM287 23l-54 17q11 37 3 73q-1 6 -11 88l22 3q3 -15 14 -42t13 -40q18 -79 13 -99zM216 212q-14 -12 -41 -44.5t-44 -45.5l-30 45q18 7 50 27l53 34zM515 127q-48 -82 -92 -241q-49 -177 -81 -245l-52 24q26 53 99 239q58 146 109 233zM512 541q-36 0 -75 33
t-39 67q0 73 100 113l4 -11q-69 -32 -69 -102q0 -26 30 -45q25 -17 49 -17q32 0 59 24t27 53q0 35 -22.5 54t-57.5 17l-6 38q51 3 85 -24q38 -30 38 -85q0 -47 -38.5 -81t-84.5 -34z" />
    <glyph glyph-name="A" unicode="A" horiz-adv-x="710" 
d="M199 262l160 91q-72 134 -120 270q-3 -30 -5 -116q-1 -74 -8 -117q-9 -50 -27 -128zM123 209l2 2q16 65 41 189q6 35 9 167q2 104 26 165q9 26 23 26q26 0 63 -82l38 -93q46 -104 93 -190l30 26q21 16 34 16q16 0 28 -12.5t12 -28.5t-13 -28q-23 -21 -51 -40
q85 -138 173 -215q15 -12 15 -29t-12.5 -29.5t-28.5 -12.5q-14 0 -26 11q-92 79 -185 237l-111 -54q-66 -32 -106 -62q-33 -140 -41 -218q-3 -27 -30 -27q-33 0 -30 33q8 77 39 210q-13 23 8 39z" />
    <glyph glyph-name="B" unicode="B" horiz-adv-x="529" 
d="M244 437q-41 -42 -70 -42q-15 0 -26 11.5t-11 26.5q0 13 8 22q31 39 68 51q31 45 31 95q0 79 -79 79q-62 0 -55 0q-29 -2 -46 -12q28 -117 55 -273l45 -278q7 0 23 1t24 1q12 0 31 -3t31 -3q39 0 93.5 50t54.5 87q0 69 -37 126q-41 65 -105 65q-21 0 -35 -4zM8 685v2
q-4 13 4.5 22t20.5 9q4 0 8 -1q45 32 124 32q70 0 114 -48q42 -44 42 -108q0 -41 -20 -79q86 -11 144 -96q54 -79 54 -168q0 -72 -79 -143.5t-147 -71.5q-12 0 -31 3.5t-31 3.5h-46q-12 -15 -32 -15q-31 0 -37 32q-7 3 -14 8q-19 11 -19 31q0 25 22 35q-4 32 -28 255
q-16 151 -38 250q-21 4 -21 25q0 8 10 22z" />
    <glyph glyph-name="C" unicode="C" horiz-adv-x="680" 
d="M519 607q-25 61 -87 95q-57 32 -122 28q-83 -5 -132 -70q-56 -74 -56 -215q0 -160 118 -265q96 -85 168 -85q50 0 86 70q29 57 33 121q2 38 40 38q17 0 29 -11.5t11 -30.5q-5 -87 -61 -171q-62 -94 -138 -94q-149 0 -248 113q-105 120 -105 315q0 141 64 241
q75 117 208 117q75 0 137 -44q66 -47 101 -134q2 -5 2 -10q0 -24 -26 -24q-16 0 -22 16z" />
    <glyph glyph-name="D" unicode="D" horiz-adv-x="680" 
d="M299 107q88 2 164 64q83 68 83 160q0 38 -22 93l-37 90q-26 78 -119 140.5t-180 62.5q-27 0 -42 -1q21 -48 50 -125l64 -240q34 -139 39 -244zM84 759v5q0 25 25 25q18 0 24 -16q29 7 55 7q109 0 224 -72q119 -74 151 -168l41 -101q22 -58 22 -108q0 -125 -105 -215
q-97 -84 -216 -88q-127 -5 -182 88q-7 10 -7 21q0 16 12.5 27.5t28.5 11.5q17 0 33 -21q22 -26 35 -33q-5 100 -34 229q-6 25 -57 224q-15 44 -42 132q-33 -11 -30 -11q-24 0 -24 26q0 18 46 37z" />
    <glyph glyph-name="E" unicode="E" horiz-adv-x="610" 
d="M213 683q116 58 149 73q88 39 148 47q20 2 32.5 -8.5t12.5 -26.5q0 -30 -35 -35q-63 -8 -166 -61l-162 -86q-19 -103 -30 -207q29 3 90 20q58 15 91 18q19 2 30.5 -10t11.5 -28q0 -35 -36 -38q-63 -12 -193 -27q-8 -102 -8 -200q0 -22 86 -56q106 -42 118 -51
q14 -12 46 -29q24 -8 24 -40q0 -34 -31 -34q-27 0 -66 31q-27 21 -69 39l-74 31q-99 45 -99 109q0 219 61 498q-7 31 10 42l26 104q5 19 23 19q12 0 20.5 -9t4.5 -22q-8 -31 -15 -63z" />
    <glyph glyph-name="F" unicode="F" horiz-adv-x="470" 
d="M159 241q13 12 30 22q6 4 131 76q10 6 21 6q16 0 27.5 -13t11.5 -29q0 -22 -20 -34l-107 -47q-78 -37 -84 -64v-1q3 -45 23 -149q18 -95 18 -149q0 -36 -36 -36t-36 36q0 52 -17 141q-19 102 -22 141q-11 22 -11 61q1 53 -1 64l-24 135q-13 79 -15 137q-19 7 -19 26
q0 11 20 34q2 23 5.5 45.5t26.5 22.5q21 0 27 -17q68 44 228 112q9 3 17 3q17 0 28 -12.5t11 -28.5q0 -25 -24 -36l-134 -50q-96 -37 -128 -63q0 -58 20 -151l31 -145q2 -11 2 -37z" />
    <glyph glyph-name="G" unicode="G" horiz-adv-x="724" 
d="M673 106l1 -5q3 -15 3 -29q0 -92 -115 -168q-102 -70 -192 -70q-144 0 -218 141q-60 114 -60 274q0 158 52 279q62 142 184 199q57 27 198 27q59 0 81 -10q26 -11 63 -56q9 -11 9 -20q0 -17 -22 -17t-39 19q-22 25 -92 25q-128 0 -174 -22q-106 -49 -157 -176
q-42 -106 -42 -248q0 -119 50 -220q62 -124 167 -124q81 0 148 55q64 52 86 128q-8 38 -8 42q0 17 11 29l-1 25q0 5 4 34.5t4 44.5q0 26 -11 26q-3 0 -6.5 -7.5t-6.5 -10.5q-70 -78 -79 -86q-50 -44 -103 -52q-21 -3 -33.5 10t-12.5 31q0 34 34 39q45 6 112 79q64 71 95 71
q26 0 51.5 -74.5t25.5 -137.5q0 -30 -7 -45z" />
    <glyph glyph-name="H" unicode="H" horiz-adv-x="618" 
d="M432 757q55 -244 92 -574q4 -36 30.5 -110.5t28.5 -116.5q1 -19 -11 -30.5t-29 -11.5q-38 0 -40 39t-27 110q-26 76 -30 112q-7 61 -14 156l-135 -19q-81 -11 -134 -28q8 -118 32 -340q2 -19 -9 -30t-28 -11q-30 0 -35 31q-7 55 -15 167q-8 119 -14 169q-10 8 -10 21
q0 9 5 15q-30 244 -30 415q0 27 26 27q27 0 27 -27q0 -89 14 -196l30 -189q152 55 271 67q-16 219 -43 344q-3 13 5 21.5t20 8.5q19 0 23 -20z" />
    <glyph glyph-name="I" unicode="I" horiz-adv-x="373" 
d="M70 19q39 38 100 63q-4 7 -5 15l-40 284q-24 179 -30 300q-32 -8 -56 -24q-8 -6 -16 -6q-12 0 -20.5 9.5t-8.5 21.5q0 14 13 23q87 60 229 60q38 0 38 -38t-38 -38q-75 0 -91 -1q5 -106 47 -297q45 -209 53 -284v-3q20 3 39 4q41 1 41 -40q0 -39 -39 -40
q-140 -4 -180 -45q-8 -7 -18 -7q-25 0 -25 25q0 10 7 18z" />
    <glyph glyph-name="J" unicode="J" 
d="M365 701q3 -69 43 -219q36 -140 35 -221q-1 -79 -46 -180q-53 -122 -122 -122q-20 0 -50 22q-4 2 -49 17q-30 9 -47 22q-74 54 -74 242q0 58 8 83q14 45 55 45q16 0 36 -7q26 -8 26 -34q0 -15 -10 -26.5t-26 -11.5q-6 0 -10.5 2t-7.5 3q-2 0 -3 -19q-2 -25 -2 -35
q0 -114 7.5 -146.5t36.5 -41.5l85 -25q8 -4 25 -16q49 0 74 94q17 64 18 136q1 78 -26 209q-32 149 -37 208q-53 -21 -79 -46q-8 -6 -17 -6q-25 0 -25 25q0 11 8 19q70 62 209 112q6 2 12 2q15 0 24 -10.5t9 -24.5q0 -23 -23 -31z" />
    <glyph glyph-name="K" unicode="K" horiz-adv-x="720" 
d="M685 78q13 -12 13 -28t-12.5 -28.5t-28.5 -12.5t-28 13q-62 62 -161.5 133.5t-187.5 117.5q54 -138 71 -264q3 -20 -9 -32t-30 -12q-33 0 -37 34q-23 171 -107 370q-24 -39 -39 -76q-6 -16 -22 -16q-26 0 -26 24q0 5 2 10q22 54 58 118q-52 114 -117 221q-4 7 -4 14
q0 24 26 24q13 0 20 -12q70 -113 110 -188q64 104 71 117q39 67 62 122q10 25 36 25q16 0 28.5 -11t12.5 -28q0 -8 -3 -16q-26 -62 -80 -138l-95 -129l40 -82q68 -17 227 -116q153 -96 210 -154z" />
    <glyph glyph-name="L" unicode="L" horiz-adv-x="533" 
d="M226 63q19 3 36 3q33 0 99.5 -11.5t93.5 -12.5q37 -1 37 -38q0 -39 -39 -38q-27 1 -95 13q-63 11 -96 11q-14 0 -40 -5t-36 -5q-29 0 -31 37q-13 197 -52 430q-6 72 -13 145q-9 96 -36 137q-4 7 -4 14q0 25 26 25q12 0 20 -11q36 -55 55 -144l26 -154q30 -177 49 -396z
" />
    <glyph glyph-name="M" unicode="M" horiz-adv-x="909" 
d="M587 568q-24 -58 -66 -179q-15 -51 -31 -75q-13 -20 -34 -20q-24 0 -35 25l-128 252q-32 67 -61 108l4 4q-30 -9 -77 -340q-11 -78 -37 -178l-47 -170q-5 -19 -23 -19q-12 0 -20.5 9t-4.5 22q33 126 64 346l16 117q10 70 22 115q8 32 43 95q42 77 66 77q42 0 99 -100
l69 -136q29 -52 45 -83q18 63 57 156q65 153 66 154q10 25 37 25q24 0 35 -21q19 -35 19 -98q-1 -27 2 -79l24 -275q23 -176 87 -252q10 -12 10 -26q0 -16 -13 -28.5t-29 -12.5q-17 0 -30 15q-76 92 -101 272l-28 297v3z" />
    <glyph glyph-name="N" unicode="N" horiz-adv-x="700" 
d="M39 47q8 77 10 304q1 199 19 302q6 32 34 32q21 0 32 -21q31 -56 121 -251q73 -157 131 -245l77 311q48 180 120 297q12 20 33 20q16 0 29 -12t13 -28q0 -11 -7 -22q-55 -89 -94 -214q-23 -74 -58.5 -227t-58.5 -227q-10 -33 -29 -33q-31 0 -91 97q-64 103 -113 209
l-84 189q-8 -80 -15.5 -245.5t-14.5 -241.5q-3 -24 -27 -24q-30 0 -27 30z" />
    <glyph glyph-name="O" unicode="O" horiz-adv-x="790" 
d="M324 786q32 10 71 13q15 2 23 -7.5t6 -21.5q60 -9 93 -25l7 -4q91 -66 152 -201q60 -130 60 -250q0 -125 -104.5 -232.5t-230.5 -107.5q-154 0 -255 118q-95 112 -95 269q0 145 65 273q78 150 208 176zM313 711q-192 -101 -192 -374q0 -125 76 -214q81 -93 204 -93
q92 0 173.5 83.5t81.5 176.5q0 102 -51.5 215.5t-124.5 168.5q-26 12 -88.5 20t-78.5 17z" />
    <glyph glyph-name="P" unicode="P" horiz-adv-x="567" 
d="M196 269q8 7 19 11q84 23 137 121q50 90 50 196q0 78 -69 104q-43 16 -147 16q-3 0 -42.5 4t-58.5 2q48 -150 111 -454zM27 753q5 20 27 18q43 20 132 20q135 0 204 -34q92 -46 92 -160q0 -125 -59 -235q-69 -127 -186 -160q-15 -4 -27 2q7 -37 15 -155q8 -98 27 -153
q2 -7 2 -13q0 -16 -11.5 -26t-26.5 -10q-25 0 -34 25q-19 58 -26 160q-8 121 -17 162q-6 28 -45 256q-28 161 -56 255q-24 1 -24 25q0 11 13 23z" />
    <glyph glyph-name="Q" unicode="Q" horiz-adv-x="880" 
d="M679 157q52 -30 97 -63q18 -12 18 -31q0 -16 -12 -29t-29 -13q-12 0 -23 9l-95 68q-95 -100 -210 -100q-370 0 -370 360q0 96 42 201q46 117 123 179q-1 17 10 29.5t30 12.5q13 0 49 5q15 5 31 7q12 1 20 -6q38 -6 43 -6q160 0 247 -187q66 -143 66 -310q0 -64 -37 -126z
M418 271q97 -30 190 -76q28 45 28 88q0 153 -58 276q-68 141 -175 141q-11 0 -32 4t-31 4q-15 0 -39.5 -4t-40.5 -4h-6q-63 -53 -98 -161q-30 -92 -30 -181q0 -280 299 -280q74 0 142 66q-89 56 -163 79q-18 6 -18 23q0 26 24 26q4 0 8 -1z" />
    <glyph glyph-name="R" unicode="R" horiz-adv-x="680" 
d="M290 279q-32 31 -53 56q-7 8 -7 17q0 11 8.5 19t18.5 8q12 0 20 -10q16 -18 36 -37q9 34 9 79q0 242 -146 242q-11 0 -30.5 1t-29.5 1q23 -53 44 -171q22 -127 38 -171q12 -32 32 -97q39 30 60 63zM586 -40q-17 -3 -22 -3q-11 0 -22 30q-21 60 -79 125q-34 40 -114 112
q-32 -45 -87 -84q-9 -6 -18 -7q7 -67 24 -190q3 -21 -9.5 -34t-30.5 -13q-32 0 -38 33q0 3 -23 180q-12 104 -39 179q-18 50 -27 125q-13 114 -15 126q-6 35 -21 99l-1 -1q-7 -6 -16 -6q-25 0 -25 25q0 12 20 28q-2 4 -2 9q0 25 26 25q10 0 17 -8q39 18 92 18
q119 0 178 -103q48 -83 48 -214q0 -78 -24 -136q111 -90 125 -102q67 -62 100 -127q18 0 31 -14q3 -3 19 -28q10 -15 10 -27q0 -32 -42 -32q-24 0 -35 15z" />
    <glyph glyph-name="S" unicode="S" 
d="M336 611q-14 27 -57 53t-74 26q-51 0 -80 -81q-21 -62 -21 -133q0 -54 30 -77q26 -19 81 -19q15 0 37.5 1.5t37.5 1.5q64 0 117 -40q56 -43 56 -101q0 -13 -3 -26q-58 -246 -196 -246q-107 0 -175 64t-68 170q0 39 38 39q39 0 39 -39q0 -70 46.5 -112t119.5 -42
q42 0 79 54.5t37 111.5q0 34 -27 62t-63 28q-14 0 -37.5 -1t-37.5 -1q-92 0 -135 37q-47 41 -47 135q0 90 45 181q53 106 127 106q65 0 108 -36q33 -27 67 -92q3 -7 3 -13q0 -24 -26 -24q-14 0 -21 13z" />
    <glyph glyph-name="T" unicode="T" horiz-adv-x="530" 
d="M56 690q9 0 39 13q34 14 40 16q47 10 144 25.5t137 24.5q5 1 9 1q16 0 26 -11.5t10 -26.5q0 -29 -29 -35l-217 -38q97 -196 113 -233q60 -135 80 -246q4 -19 21 -59t20 -63q2 -20 -10.5 -32.5t-30.5 -12.5q-34 0 -39 35q-2 21 -19 59.5t-20 58.5q-40 214 -168 482
q-23 -7 -46 -13q-30 -8 -46 -8q-46 0 -46 34q0 31 32 29z" />
    <glyph glyph-name="U" unicode="U" horiz-adv-x="630" 
d="M148 631l1 -7q7 -152 41 -321q52 -263 131 -263q70 0 120 62q47 59 47 130q0 32 -20 160q-13 78 -16 150v4l-1 86q0 40 40 40t40 -40v-84q6 -68 29 -226q8 -54 8 -90q0 -106 -70 -187q-74 -85 -177 -85q-200 0 -232 658q-5 22 -5 103q0 25 25 25q21 0 30 -47q4 -34 9 -68
z" />
    <glyph glyph-name="V" unicode="V" horiz-adv-x="660" 
d="M345 118q58 233 194 509q11 22 34 22q15 0 27.5 -11t12.5 -27q0 -9 -4 -18q-115 -232 -169 -419l-27 -107q-21 -70 -46 -94q-13 -14 -29 -14q-29 0 -37 34q-13 61 -46 143l-58 140q-19 45 -65 205q-36 128 -79 199q-3 7 -3 14q0 24 26 24q13 0 21 -12q45 -79 92 -198
l78 -204q27 -61 78 -186z" />
    <glyph glyph-name="W" unicode="W" horiz-adv-x="970" 
d="M351 362q-8 -94 -31 -281q-8 -55 -27 -72.5t-35 -17.5q-38 0 -47 76q-1 28 -3 58q-12 82 -32 163l-37 169q-22 100 -47 166q-17 45 -17 92q0 25 25 25t25 -25q0 -31 19 -76q27 -63 30 -73q10 -31 66 -262l24 -100q9 93 15 138q10 77 21 134q6 27 34 27q25 0 33 -23
l18 -56q38 -21 68 -102q3 -9 47 -156q28 -94 55 -130q18 42 42 148q23 96 48 146q21 40 96 227q57 140 112 218q12 17 31 17q16 0 28.5 -12t12.5 -28q0 -12 -8 -23q-51 -70 -108 -210q-77 -186 -96 -223q-24 -48 -56 -181q-29 -117 -62 -162q-17 -22 -24 -22t-27 14
q-54 37 -94 140q-16 39 -53 175q-26 91 -46 102z" />
    <glyph glyph-name="X" unicode="X" horiz-adv-x="550" 
d="M92 579q17 -38 63 -89q61 -68 72 -83l80 -114q22 50 67 228q4 19 33 85q24 54 25 88q1 24 25 24q26 0 25 -26q-2 -64 -51 -238t-78 -227l-1 -3l173 -276q7 -11 7 -22q0 -16 -13 -28t-29 -12q-21 0 -33 20l-143 232q-47 -132 -51 -234q-1 -33 -34 -33q-35 0 -34 35
q6 148 73 306q-91 142 -167 241q-33 42 -61 102q-3 7 -3 13q0 28 30 28q17 0 25 -17z" />
    <glyph glyph-name="Y" unicode="Y" horiz-adv-x="600" 
d="M326 229q-40 -120 -40 -330q0 -37 -38 -37q-37 0 -37 37q0 74 20 175.5t50 178.5q-57 64 -129 202q-78 151 -115 200q-6 8 -6 17q0 12 9 20.5t21 8.5q13 0 22 -12q39 -53 107.5 -168t109.5 -169l39.5 166t68.5 161l84 126q12 19 32 19q16 0 29 -12t13 -28q0 -12 -8 -23
q-94 -144 -109 -174q-34 -68 -61 -198q-16 -78 -19 -91q-18 -61 -43 -69z" />
    <glyph glyph-name="Z" unicode="Z" horiz-adv-x="599" 
d="M417 663h-11q-58 0 -169 20t-169 20q-10 0 -27.5 3.5t-27.5 3.5q-25 1 -25 26q0 27 27 26q11 -1 27.5 3t25.5 4q58 0 169 -13.5t169 -13.5q52 8 62 8q50 0 50 -46q0 -37 -31 -78q-47 -61 -50 -68q-21 -40 -123 -203q-77 -124 -106 -210q-10 -28 -26 -82q65 15 102 15
q42 0 116 20q79 21 117 23q20 1 31 -11t11 -29q0 -38 -38 -40t-118 -23q-76 -20 -119 -20q-46 0 -96.5 -10.5t-56.5 -10.5q-19 0 -21 23q-6 76 26 170q43 126 94 210q49 68 137 214q6 11 48 67z" />
    <glyph glyph-name="bracketleft" unicode="[" horiz-adv-x="1211" 
d="M85 623q0 14 5 23q10 15 14 30l42 40q26 26 47 27q19 20 28 27q16 14 36 24q4 6 13 14q42 15 50 15q7 0 32 -8.5t34 -14.5q12 -9 29 -31q20 -25 27 -32q3 -3 10 -13q2 -3 11 -3q5 0 11 2t10 2q24 0 52 -28q6 -13 22 -33v-19q-17 -9 -17 -15q3 -2 6 -8t6 -8q8 4 27 4
q16 0 21 -2q30 -31 84 -97q6 -8 6 -24q0 -15 -3 -17q-10 -4 -18 -15q45 -48 182 -212q112 -135 174 -190q7 -41 24 -105q24 -90 26 -98q71 -83 71 -114q0 -20 -23 -35.5t-43 -15.5q-36 0 -89 56q-11 17 -31 41q-30 18 -96 39q-80 26 -108 39q-4 -4 -4 -9l-350 393
q-4 -13 -17 -30q-10 2 -23 5q-19 15 -39 29q-24 19 -26 35q-1 1 -10 5q-13 23 -6 76q-7 2 -16.5 10t-15.5 10q-11 -13 -18 -13q-23 0 -42 24q-8 17 -24 42q9 19 30 48q-60 51 -92 76q-2 19 -17 30q-2 9 -2 24zM107 633q20 -38 40 -64q19 -18 50 -53q12 2 32 31q24 37 36 46
q104 82 166 112q-3 9 -17 18q-21 12 -26 17q3 3 12 3q-1 12 -25 27q-28 18 -36 30q-4 2 -15 2q-15 0 -42 -19l-32 -22q-5 -8 -8 -16q1 0 3 -4q-34 -4 -76 -37t-62 -71zM196 441q0 -4 5 -13q8 -12 9 -14h24q28 86 90.5 153.5t133.5 81.5q21 7 62 17v15q-17 10 -36 10
q-21 0 -35 -7q-32 -18 -50 -25q-1 -3 -5 -10q-45 -12 -84 -48q-19 -17 -61 -66q-13 -17 -33 -51.5t-20 -42.5zM269 426q0 -5 8.5 -13.5t10.5 -11.5q12 24 37 69q14 12 36 35q23 29 48 48q30 24 63 38q18 4 52 11v15q-16 7 -17 22h-18q-6 0 -12 -4q-10 -7 -11 -7
q-13 -3 -38 -12q-3 -3 -9 -10q-28 -9 -61.5 -41.5t-42.5 -58.5q-6 -4 -14 -12q-17 -20 -25 -56q-2 -2 -4.5 -3.5t-2.5 -8.5zM299 339q0 -29 22 -47q39 -33 44 -40q-4 37 13 79q2 15 7 46q13 50 66 91q12 9 51 26.5t52 17.5q4 0 45.5 -12t47.5 -18q-1 6 18 14v19
q-10 9 -61 67q-4 1 -17.5 6t-19.5 5q-5 0 -29 -10q-30 -13 -38 -15q-17 -3 -50 -16q-102 -67 -141 -167q-10 -26 -10 -46zM397 305q0 -4 27 -34q30 -33 32 -36q5 -11 15 -29q172 -194 282 -308q3 91 61 103l-185 214q-6 3 -16 7q-45 56 -171 187h-15q-2 -14 -17 -49
q-13 -30 -13 -55zM456 433l180 -191l111 -126q69 -78 122 -124q-2 30 26 57t67 27q11 0 23 -2q-64 54 -152 160l-11 24l-63 78q-38 45 -74 75l-57 52q-25 19 -63 19q-73 0 -109 -49zM781 -123q42 -12 159 -49q6 -2 27 -15q0 6 5 19.5t5 18.5q0 11 -47.5 57t-70.5 60
q-16 11 -34 11q-16 0 -30 -14t-14 -31v-57zM891 11q0 3 6 -26l59 -73q35 -44 42 -44q2 0 20 4q15 4 26 0v27q0 6 -2.5 5t-3.5 1q-1 13 -22 76q-3 18 -11 52q-39 22 -63 22q-3 0 -46 -36q-5 1 -5 -8zM989 -203q0 -5 18 -26q30 -35 32 -38q27 -19 46 -19q32 0 32 32
q0 28 -31.5 66.5t-61.5 38.5q-17 0 -26 -17.5t-9 -36.5z" />
    <glyph glyph-name="backslash" unicode="\" horiz-adv-x="383" 
d="M323 -23q-40 43 -58 81l-36 88q-25 50 -66 153q-6 19 -40 163q-24 99 -55 158q-41 75 -42 78q-13 33 -13 90h45q0 -48 17 -77l42 -65q34 -61 59 -162q42 -160 44 -167q10 -31 31 -73l35 -72q16 -39 33 -76.5t51 -73.5z" />
    <glyph glyph-name="bracketright" unicode="]" horiz-adv-x="1323" 
d="M1240 63q0 -23 -10.5 -59t-20.5 -50q-15 -22 -43.5 -39.5t-50.5 -17.5q-6 0 -22.5 7t-21.5 7q-6 0 -21 -11q-11 -8 -22 -15t-51 -7q-42 0 -84.5 23.5t-35.5 23.5q-8 0 -14 -13q-113 -53 -181 -53q-32 0 -54 7q-7 2 -56 21q-7 -7 -13 -23q-7 -21 -11 -26q-32 -52 -67 -62
q-31 -9 -89 -18q-49 -7 -62 -7q-5 0 -22 8q-16 2 -42 7q-38 11 -56 34q-35 42 -35 111q0 30 3 39t32 61q11 8 42 8q6 0 35.5 -5t35.5 -5q37 0 96 31q-47 45 -47 116q0 20 5 61q-133 -5 -286 159q-2 59 38 121q42 66 93 66q44 0 101 -49l36 -36q24 -18 56 -15q-13 23 -32 69
q-3 12 0 47q2 30 -8 47q-2 4 -25.5 16.5t-32.5 26.5q-25 44 -25 45q-9 18 -9 44q0 25 6 46q40 50 88 50q37 0 82 -28q51 -32 58 -71h11q23 39 45.5 53t63.5 14q45 0 72 -12q13 -8 40 -22q8 47 19 69q77 44 83 44q29 0 82 -25q15 -8 32.5 -42.5t17.5 -61.5q0 -35 -19 -55
q-11 -11 -40 -26t-39 -27q9 -20 9 -45q0 -26 -9 -54q-1 -12 -3 -33q-4 -5 -12 -14q0 -8 3 -11q54 29 87 70l42 57q21 23 58 23q50 0 94.5 -49.5t44.5 -95.5q0 -30 -2 -34q-3 -8 -24 -35q-11 -13 -85 -66q-12 -4 -34.5 -18t-70.5 -48q0 -1 -2.5 -4.5t-2.5 -10.5q0 -14 17 -60
q5 -13 5 -34q0 -36 -13 -45q47 -15 73 7q37 -19 73 -19q15 0 34 26q7 3 27 3q30 0 49 -12q17 -42 17 -99zM1160 521q0 32 -44 74.5t-81 42.5q-13 0 -24 -7q-3 -6 -18 -21t-15 -25.5t-3 -27.5l-8 -10.5t-4 -11.5q0 -15 6 -26q19 -31 46 -48q24 -5 59 -20q3 9 25 10q29 2 37 6
l16 31t8 33zM1089 426q-56 -3 -99.5 35.5t-47.5 87.5q-61 -63 -109 -73q0 -4 -7 -12t-14 -11q28 -13 71 -41q7 -7 44 -62q7 -8 19 -26zM939 782q0 37 -17 60q-19 27 -55 28q-2 1 0 5q1 3 -6 3h-29q0 -5 -4 -10q-4 5 -5 10q0 -5 -5 -9q-33 -10 -56 -35q-1 -10 -8 -29t-7 -23
q0 -5 3.5 -14t3.5 -12t-1 -5h-12q-11 16 -35 31q-41 25 -84 25q-15 0 -40 -9t-34.5 -16t-23.5 -25.5t-20 -24.5h-12q-23 41 -33 52q-22 27 -58 39.5t-37 12.5q-25 0 -34 -8q-19 -17 -32 -23q-6 -22 -21 -56q19 -46 44 -80q19 -26 48 -26q2 0 11.5 3.5t18.5 2.5v-12
q-19 -38 -19 -62q0 -33 6 -51q3 -8 30 -53q15 -24 47 -43.5t65 -25.5q69 -12 108 -12q83 0 151 73.5t68 158.5q0 23 -19 51q11 7 18 21q20 4 54 16q11 8 29 42q2 4 2 30zM1216 66q0 89 -35 89q-44 0 -81 -84q-29 -67 -29 -102q0 -41 40 -58q105 53 105 155zM1094 121
q-9 0 -20 6l-21 12q-4 2 -34 2q-28 0 -35 -2q-23 -17 -36 -17q-6 0 -13.5 2.5t-11.5 2.5q-41 0 -61 -58q-3 -2 -11 -10q-3 -14 -7 -42q-2 -2 -5 0q-3 1 -3 -6v-14q13 -13 21 -27l22 -38q6 -10 40.5 -22.5t54.5 -12.5q36 0 56 15q14 12 20 19q-3 14 -3 29q0 37 17 80
q8 30 30 81zM948 211q0 48 -22 93l-27 54q-17 31 -36 48q-10 4 -29 13q-35 18 -38 18q-6 0 -31 -20q-28 -23 -36 -27q-48 -24 -83 -24q-67 0 -122 11q-21 4 -54 25q-36 24 -47 28q-57 19 -85 33q-52 24 -78 56q-2 1 -11 1q6 -17 6 -36q0 -45 -28.5 -87t-76.5 -61
q49 -59 143 -95q9 -4 27 -3q29 2 31 1q5 6 21 32q12 18 24 20l8 -8v-12q-18 -11 -24 -44q-9 -54 -9 -55q6 -9 1 -18q-2 0 0 -3q2 -4 -1 -6q2 -16 12 -42q13 -29 26 -40q7 -6 23.5 -9t19.5 -4q20 -8 33.5 -14.5t24.5 -27.5q6 -15 13 -29q15 -29 18 -56q44 -45 123 -45
q10 0 56.5 12t74.5 22q10 4 25.5 16.5t15.5 19.5q0 6 -12 33t-12 33q0 9 3 13l5 8q16 46 46 80q37 41 77 40q5 23 5 56zM230 472q0 20 -7 41q-10 27 -26 27q-15 0 -54 -26l-49 -94q4 -18 20 -53q12 -15 29 -15q9 0 56 43q13 11 23 37q8 23 8 40zM521 -94q0 37 -17 74
q-22 48 -60 48q-13 0 -41 -15q-15 -8 -30 -17q-44 -13 -77 -11q19 -29 22 -42q1 -6 1 -37q0 -87 -47 -120q28 -12 47 -12q94 0 143 25q59 31 59 107zM296 -92q0 26 -11 53q-13 34 -34 34q-3 0 -24 -4q-17 -3 -24 -1l-19 -37q-10 -23 -10 -49q0 -28 10 -62q3 -9 25 -29
t30 -20q22 0 41 47q16 40 16 68zM887 782q0 -21 -28 -26q-6 0 -17 9t-11 14q0 6 2.5 14.5t2.5 13.5q2 0 10 2.5t13 2.5q16 0 28 -30zM699 681q-1 0 -11 -2t-21 -2q2 14 -9 19q0 1 4.5 8.5t4.5 13.5h23q0 -5 9 -15v-22zM582 681q-15 -12 -15 -14h-21q-9 25 0 51h22
q0 -2 14 -15v-22zM765 566q0 -42 -29 -75t-76 -42q-3 -1 -21 -6.5t-24 -5.5h-27q-13 0 -37 12q-11 2 -29 8q-52 32 -52 85q0 18 2 24q5 11 28 37q21 5 65 18q6 2 26 18q18 13 24 13q5 0 16 -7.5t20 -9.5l50 -4q36 -5 53 -28q11 -16 11 -37zM742 559q0 51 -59 51
q-25 0 -39 -16.5t-29 -16.5q-10 0 -45 29q-23 -11 -47 -21q-35 -18 -35 -45q0 -36 39 -60q34 -20 72 -20q62 0 112 30q2 4 22 32q9 13 9 37zM718 550q-23 -12 -56 -40q-15 -12 -47 -12q-5 0 -31.5 9t-31.5 9q-3 0 -30 -9q0 2 -3 6t-3 10t12 20t14 20q11 -22 11 -33
q10 0 32.5 -4.5t27.5 -4.5q17 0 38.5 9.5t21.5 21.5q0 9 -15 17v17q2 0 4.5 2.5t8.5 2.5t23.5 -11t23.5 -13v-17zM404 744q0 -12 -8.5 -20l-16.5 -15h-16q-6 10 -6 28q0 33 23 33q24 0 24 -26z" />
    <glyph glyph-name="asciicircum" unicode="^" horiz-adv-x="1610" 
d="M1464 -243q-3 11 -6 20q-4 -1 -9 0q-27 5 -27 -9q0 -4 8.5 -11t13.5 -7q8 -1 20 7zM1422 -335q6 -7 8 -20q18 1 52 6q-1 20 -4 46q-19 -6 -58 -17q-1 -1 -5 -1zM1237 -299q-34 18 -65 19q-16 0 -36 -6q7 -13 -9 -24l6 2q17 1 21 -26t16 -27q17 -1 27.5 12t6.5 30
q-4 21 18 21q14 0 16 -14q2 -7 2 -14q0 -29 -20 -50t-51 -20q-19 0 -35.5 23t-16.5 44q0 11 6 16q-16 -11 -16 -32q-1 -27 18.5 -47t45.5 -21q33 0 54 27q18 24 21 59q1 13 -3 18q-6 9 -6 10zM581 -305q10 -11 0 -22q-9 -10 -9 -48q-2 -75 67 -76q36 0 61.5 26.5t25.5 63.5
q1 44 -6 45q-13 2 -14 16q-25 17 -59 17q-39 0 -66 -22zM392 -193q-2 -10 -11 -13q-20 -26 -28 -71q0 -10 4 -13l36 -1q17 0 17 -17q0 -4 -9 -42h1h20q21 -1 51 3q35 4 49 5q7 43 44 68.5t83 24.5q49 0 85 -28.5t42 -76.5q39 4 65 7q-26 66 -24 189q0 6 3 10q-30 3 -52 4
q-34 0 -96.5 -4t-96.5 -3q-17 0 -17 17q0 7 6 13q178 172 325 169h3q73 -1 128 -57l93 -106q6 -6 6 -13q0 -18 -18 -17q-31 0 -90.5 -6.5t-91.5 -5.5q-25 0 -68 5q2 -7 5 -78t18 -106q2 -5 2 -9q44 3 83 2q27 -1 82 -4q-6 44 47 75q45 27 85 26q62 -1 109 -42l34 -49
q4 0 15 2q16 3 50 8q-2 7 -2 15q0 20 24 24q12 2 26 6q-42 16 -42 51q1 19 17 31t36 13q-14 19 -59 27l-66 8q-53 7 -113 34t-101 60q-15 13 -44 53q-57 80 -158 82q-93 1 -173 -48q-44 -27 -137 -114q-27 -25 -100 -55t-97 -53zM278 -73q0 1 1 2q37 3 37 27q1 24 -19 34
l-7 -38l-6 3l4 -6q-9 -5 -10 -22zM164 -355l-5 2q2 -1 5 -2zM319 -270q-20 2 -60 14t-63 13q-39 0 -63 -25.5t-25 -66.5q0 -25 18 -52.5t36 -27.5q20 -1 35 14.5t15 36.5q0 22 -12 24q11 -12 11 -27q0 -24 -34 -24q-17 0 -26.5 14t-9.5 31q0 20 18 32q16 9 37 9
q52 -1 51 -59q-1 -35 -25.5 -61t-60.5 -25q-37 1 -64 44q-24 37 -23 72q1 53 34.5 89.5t88.5 35.5q23 0 65.5 -13t65.5 -13q5 16 12 29q-61 7 -103 41q-48 40 -47 101q1 37 29 65t65 28q30 -1 50 -24q17 -22 17 -50q-1 -25 -19.5 -42.5t-43.5 -17.5q-14 0 -28 8
q-17 10 -17 23q1 39 34 52q7 3 19 13q-6 3 -13 3q-22 0 -40 -18t-18 -41q-1 -48 41 -78t98 -29q29 30 101.5 59t99.5 54q98 91 148 121q86 51 187 49q117 -2 184 -95q12 -17 39 -47q37 -30 93.5 -55.5t104.5 -31.5q73 -9 81 -11q48 -11 68 -40q21 -32 35 -92q12 -53 11 -95
q0 -20 -45 -29q-22 -2 -52 -7q-15 -4 -19 11l-4 20q-14 0 -42.5 -5.5t-43.5 -4.5q-13 0 -32 28q-1 -10 -4 -21q-9 -36 -37 -60t-67 -23q-31 0 -57 20t-36 50q-5 -5 -12 -5l-33 1q-23 2 -73 4q-71 1 -198 -14h-4q-21 -74 -117 -94q-13 -3 -24 -3q-80 0 -79 111
q-36 -4 -115 -8q-17 0 -49 4q-8 2 -12 9q-4 -6 -12 -7q-22 -2 -30 20q-6 14 -6 38q1 25 6 51zM360 -349q-5 -2 -15 -5q-6 -3 -5 -9q2 -7 10 -5q4 1 9 3q0 5 3 10l1 1q2 -4 2 -8q11 5 19 5t8 7t-7 7q-9 1 -19 -3l5 21h-19l-3 1h-1v-7q0 -13 -2 -13q8 1 14 -5zM825 -114
q-7 22 -7 44q1 39 23 79q-100 -22 -220 -125q156 6 147 6q24 0 57 -4zM891 13q-17 1 -28 -30q-10 -26 -10 -53q-1 -23 11 -48q33 -4 56 -4q29 -1 72 3q62 7 70 7q-70 81 -72 83q-44 41 -99 42zM634 -406q-18 0 -33 14t-14 34q0 38 30 38q13 0 16 -12q6 -16 -11 -21
q-1 -1 -1 -2v-4q0 -12 13 -12q24 -1 35 34q4 12 16 12q9 0 14.5 -6.5t2.5 -16.5q-18 -59 -68 -58zM366 -346q-1 -4 -3 -8q-1 3 -3 5q3 2 6 3z" />
    <glyph glyph-name="underscore" unicode="_" horiz-adv-x="482" 
d="M-10 -126v50h502v-50h-502z" />
    <glyph glyph-name="a" unicode="a" horiz-adv-x="610" 
d="M320 372q-36 10 -76 10q-77 0 -108 -33q-40 -42 -40 -97q0 -80 59 -161q64 -87 141 -87q40 0 68 55q24 47 24 94q0 43 -25 107l-41 102q-2 5 -2 10zM526 38q8 0 8 13q0 6 -2 20t-2 19q1 28 29 28q30 0 29 -30q-1 -34 -18 -67q-19 -39 -44 -39q-47 0 -95 102
q-19 -55 -53 -93q-39 -43 -82 -43q-95 0 -176 106q-75 99 -75 198q0 77 53 133q25 26 78 40q50 13 88 9q37 -4 85 -33q17 0 25 -15q10 -7 7 -18l42 -105q22 -61 22 -110h-1l30 -69q24 -46 52 -46z" />
    <glyph glyph-name="b" unicode="b" horiz-adv-x="528" 
d="M169 410v0q9 17 56 38q44 20 66 20q78 0 151 -124q38 -63 38 -174q0 -53 -61 -136q-65 -86 -117 -86q-10 0 -24.5 -6t-22.5 -6q-14 0 -32 14q-54 40 -73 131q-10 76 -19 153q-17 158 -62 474q-5 29 25 29q21 0 25 -21zM236 365q-12 -22 -13 -44v-47q0 -19 14 -54
q3 -6 3 -12q0 -22 -21 -22q-11 0 -22 11q14 -158 64 -195l19.5 9.5t21.5 4.5q33 0 69 61q33 56 33 93q0 117 -73 194q-21 22 -37 24q-27 -8 -58 -23z" />
    <glyph glyph-name="c" unicode="c" horiz-adv-x="481" 
d="M196 296q-42 0 -67 -56q-20 -44 -20 -93q0 -161 135 -161q33 0 62 37q29 34 29 67t33 33t33 -33q0 -53 -51 -109t-106 -56q-102 0 -148 59q-41 54 -41 163q0 65 36 130q43 75 105 75q27 0 46.5 -16t19.5 -32q0 -15 -20 -15q-7 0 -22.5 3.5t-23.5 3.5z" />
    <glyph glyph-name="d" unicode="d" horiz-adv-x="391" 
d="M225 323q-10 2 -20 2q-52 0 -88 -53q-31 -48 -31 -105t22 -102l52 -88q7 -15 13 -15q45 0 60 18.5t15 73.5q0 78 -23 269zM272 749q-5 -44 -5 -213q0 -66 10 -155q26 -9 37 -19.5t11 -25.5t-11.5 -26t-26.5 -12q22 -163 22 -244q0 -75 -28 -111q-33 -42 -108 -42
q-31 0 -48 20l-26 42q-38 58 -53 94q-19 50 -19 110q0 82 48 150q54 75 130 75q6 0 13 -1q-8 83 -8 145q0 114 12 219q3 22 25 22q28 0 25 -28z" />
    <glyph glyph-name="e" unicode="e" horiz-adv-x="410" 
d="M109 191v-10q0 -73 29 -134q35 -73 94 -73q52 0 52 80q0 16 -2 29q-4 18 7 29.5t27 11.5q27 0 32 -27q3 -16 3 -32q0 -60 -29 -104q-34 -52 -90 -52q-80 0 -134 95q-46 82 -46 177q0 81 51 151q56 75 130 75q42 0 77 -22q39 -25 39 -60q0 -54 -63 -94q-51 -33 -102 -36
q-27 1 -75 -4zM121 250q13 2 59 5q37 3 72.5 26.5t35.5 43.5q0 24 -55 24q-75 0 -112 -99z" />
    <glyph glyph-name="f" unicode="f" horiz-adv-x="470" 
d="M74 351q31 9 65 32q-1 13 -1 26q0 22 11 93q13 81 23 92q24 49 63.5 81t79.5 32q70 0 110 -93q2 -6 2 -11q0 -24 -26 -24q-15 0 -22 15q-22 52 -60 52q-32 0 -58 -30l-39 -55q-20 -72 -24 -135q69 52 113 66q6 2 12 2q16 0 26.5 -12t10.5 -27q0 -26 -27 -35
q-43 -13 -130 -63q13 -61 80.5 -179t79.5 -187q3 -19 -8 -30.5t-28 -11.5q-29 0 -34 30q-12 70 -70 175q-62 110 -76 173q-51 -25 -66 -25q-24 0 -24 26q0 17 17 23z" />
    <glyph glyph-name="g" unicode="g" horiz-adv-x="610" 
d="M506 355q-4 29 -5 52q-8 43 -31 67q-17 17 -28 17q-6 -11 -12.5 -34t-20.5 -23q-15 0 -25 20q-16 -40 -16 -111q0 -29 12 -49q14 -23 40 -23q29 0 57.5 19.5t28.5 45.5v19zM570 308q15 -63 15 -98q0 -89 -32 -183t-84 -161q-60 -78 -168 -78q-122 0 -197 87
q-71 81 -71 203q0 53 16 108q22 77 62 77q15 0 24.5 -11t9.5 -25q0 -25 -25 -32.5t-25 -116.5q0 -93 55 -156q58 -67 151 -67q75 0 116 53q46 59 75 140q31 85 31 162q0 16 -2 34q-49 -39 -101 -39t-83 43q-28 39 -28 95q0 166 90 196q17 23 43 23q41 0 78 -38
q54 -53 54 -188q0 -14 -4 -28z" />
    <glyph glyph-name="h" unicode="h" horiz-adv-x="630" 
d="M127 313q-17 86 -64 215q-46 124 -53 231q-2 27 25 27q23 0 25 -23q5 -81 49 -196q63 -164 71 -191q40 32 87 32q72 0 108 -67q25 -44 42 -144q18 -108 30 -136q20 -47 25 -47q31 0 43 51q7 30 37 30q16 0 28 -10.5t12 -26.5q0 -39 -40.5 -79.5t-79.5 -40.5q-51 0 -82 65
q-23 47 -36 134l-16 108q-10 48 -22 68q-17 31 -49 31q-41 0 -73 -28q13 -75 16 -176q1 -17 1 -176q0 -34 -34 -34q-33 0 -33 34q0 236 -10 302q-16 7 -16 23q0 8 9 24z" />
    <glyph glyph-name="i" unicode="i" horiz-adv-x="290" 
d="M245 36q-17 -30 -24 -36q-16 -17 -40 -17q-59 0 -96 135q-9 32 -33 178q-13 76 -8 174q1 25 25 25q27 0 25 -27q-3 -75 21 -195q21 -112 51 -191q3 -10 8 -25q24 49 53 49q15 0 25.5 -12t10.5 -28q0 -20 -18 -30zM85 607q16 -8 16 -28q0 -14 -9.5 -24t-26.5 -8
q-9 1 -25 6q-16 9 -16 25q0 5 2 12q8 29 40 29q15 0 19 -12z" />
    <glyph glyph-name="j" unicode="j" horiz-adv-x="260" 
d="M146 428q56 -215 56 -350q0 -188 -58 -351q-13 -39 -44 -84q-37 -52 -66 -60q-15 -5 -28 -5q-65 0 -110 85q-38 71 -38 139q0 34 22 70q11 19 31 19q15 0 27 -11t12 -26q0 -10 -6 -20q-14 -24 -14 -32q0 -66 19 -108t46 -42q43 0 79 99q60 172 60 327q0 198 -36 338
q-4 13 4.5 22t20.5 9q18 0 23 -19zM73 605q5 2 10 2q12 0 21 -10t9 -22q0 -15 -17.5 -26.5t-33.5 -11.5q-18 0 -28 25q-7 20 -7 25q0 26 28 26q10 0 18 -8z" />
    <glyph glyph-name="k" unicode="k" horiz-adv-x="530" 
d="M186 403q37 -28 84 -77l79 -83q12 -13 66 -48q41 -26 61 -62q6 -10 6 -20q0 -16 -12.5 -27.5t-28.5 -11.5q-22 0 -34 21.5t-51 49.5q-50 34 -61 44q-22 23 -66 87q-41 59 -70 84l-1 -2q7 -33 21 -151q11 -95 33 -149q3 -8 3 -15q0 -16 -12 -26.5t-27 -10.5q-24 0 -34 24
q-23 58 -35 158q-14 122 -24 161q-49 192 -60 370q-2 27 25 27q24 0 25 -23q4 -71 67 -298l66 125q42 71 91 108q9 7 19 7q13 0 23 -10.5t10 -23.5q0 -15 -13 -25q-42 -31 -83 -92q-5 -7 -67 -111z" />
    <glyph glyph-name="l" unicode="l" horiz-adv-x="250" 
d="M78 767q43 -180 81 -501q12 -106 16 -123q15 -71 54 -108q12 -11 12 -25t-11 -25t-25 -11q-13 0 -24 11q-50 47 -69 127q-7 27 -21 146l-24 250q-16 156 -37 247q-4 14 4.5 22.5t20.5 8.5q19 0 23 -19z" />
    <glyph glyph-name="m" unicode="m" horiz-adv-x="716" 
d="M593 51q7 14 25 40q20 23 35 23q26 0 26 -50q0 -22 -7 -35q-20 -35 -26 -43q-19 -22 -43 -22q-61 0 -95 69q-24 50 -36 143q-8 61 -15 121q-10 50 -17 66q-13 31 -39 31q-70 0 -104 -78q24 -59 54 -242q3 -20 -9 -32.5t-30 -12.5q-32 0 -37 33q-7 48 -15 97q-9 59 -21 98
q-12 10 -8 27q-15 39 -35 68l-24 46q-2 4 1.5 9.5t2.5 5.5q-40 0 -70 -80q16 -62 26 -153q8 -69 15 -138q2 -18 -9 -29t-27 -11q-31 0 -34 32q-9 114 -19 228q-19 155 -73 207q-8 8 -8 18q0 25 25 25q9 0 17 -7q39 -36 65 -102q43 77 92 77q22 0 46 -33l34 -53q5 -7 9 -14
q49 91 136 91q79 0 113 -90q16 -43 35 -182q15 -116 44 -148z" />
    <glyph glyph-name="n" unicode="n" horiz-adv-x="520" 
d="M108 359q39 39 93 39q112 0 152 -188q15 -73 16 -76q18 -58 43 -58q8 0 20 7.5t22 7.5q17 0 29 -13t12 -29q0 -19 -18 -31q-44 -33 -79 -33q-46 0 -75 59q-20 39 -38 122t-26 99q-15 35 -21 43q-15 22 -37 22q-53 0 -76 -40q17 -62 65 -196q12 -34 8 -67q-3 -33 -36 -33
q-16 0 -27 11t-9.5 29.5t-7.5 43.5l-16 42q-18 62 -33 132q-4 7 -3 15q-16 85 -21 153q-3 30 27 30q26 0 27 -26q3 -30 9 -65z" />
    <glyph glyph-name="o" unicode="o" horiz-adv-x="460" 
d="M134 505q19 7 43 7q120 0 186 -91q59 -80 59 -200q0 -78 -43 -130q-46 -56 -124 -56q-96 0 -156 83q-53 75 -53 179q0 96 58 197q11 18 30 11zM128 425q-21 -59 -21 -128q0 -76 37 -130q42 -61 111 -61q45 0 69 36q22 31 22 79q0 86 -39 145q-46 71 -130 71
q-12 0 -49 -12z" />
    <glyph glyph-name="p" unicode="p" horiz-adv-x="440" 
d="M143 122q9 0 31.5 -5t34.5 -5q45 0 69 50q29 58 29 129q-11 60 -40 84.5t-97 24.5q-38 0 -57 -22q12 -92 30 -256zM81 420q38 45 89 45q105 0 152 -37q44 -34 62 -126l1 -7q0 -91 -37 -167q-46 -93 -127 -93q-28 0 -69 9q27 -245 52 -385q3 -18 -7.5 -29t-26.5 -11
q-27 0 -32 28q-11 61 -24 169q-18 139 -23 173q-9 61 -15 188q-6 136 -13 192q-5 9 -2 19l-1 3q-3 25 21 29z" />
    <glyph glyph-name="q" unicode="q" horiz-adv-x="530" 
d="M205 368q-27 -41 -44 -102q-15 -56 -15 -99q0 -34 46 -59q40 -20 80 -20q41 0 74.5 37.5t33.5 80.5q0 47 -27 126q-32 93 -67 93q-9 0 -27 -19q-11 -14 -24 -27.5t-30 -10.5zM377 -299q1 5 1 9q29 37 93 106q12 11 26 11q15 0 27 -12t12 -28q0 -15 -13 -27l-79 -86
q-62 -64 -95 -70q-45 -8 -45 90q0 83 17 180q7 42 37 170q-42 -27 -86 -27q-61 0 -124 44q-69 48 -69 106q0 52 27 122q28 74 70 124q2 9 10 16l40 47q24 23 60 23q91 0 135 -141q27 1 27 -25q0 -33 -2 -68q7 -30 7 -59q0 -40 -22 -80l-34 -207q-19 -123 -20 -218z" />
    <glyph glyph-name="r" unicode="r" horiz-adv-x="380" 
d="M84 342q49 95 136 95q12 0 32.5 -2t32.5 -2q-4 0 31 16q9 4 18 4q17 0 28 -12.5t11 -28.5q0 -24 -23 -35q-47 -21 -65 -21q-13 0 -32.5 4t-32.5 4q-41 0 -73 -32.5t-36 -72.5q17 -56 25 -97l15 -154q2 -19 -9.5 -30.5t-27.5 -11.5q-34 0 -37 34q-3 49 -15 148
q-15 89 -50 272q-2 13 6 21.5t20 8.5q19 0 24 -20q7 -38 22 -88z" />
    <glyph glyph-name="s" unicode="s" horiz-adv-x="450" 
d="M365 361q-10 10 -19 11q-24 3 -60.5 -9.5t-53.5 -30.5q-9 -8 -17 -69q15 -46 18 -50.5t36 -31.5q96 -79 96 -129q0 -35 -39 -64q-26 -18 -64 -18q-85 0 -151 39q-73 44 -88 118q-4 17 6.5 27.5t25.5 10.5q25 0 30 -26q11 -51 66 -78q47 -23 111 -23q34 0 34 17
q0 19 -49 64l-59 53q-4 5 -17.5 45t-12.5 48l11 48q13 50 21 59q22 23 62.5 40.5t77.5 17.5q44 0 68 -26q21 -23 21 -47q0 -27 -19 -27q-11 0 -21 13.5t-14 17.5z" />
    <glyph glyph-name="t" unicode="t" horiz-adv-x="380" 
d="M16 431q37 25 72 53q-5 73 -17 130q-3 13 5 21.5t20 8.5q19 0 23 -20q11 -46 18 -100l60 51q11 10 25 10q16 0 27.5 -12t11.5 -28t-14 -28q-43 -38 -99 -77q7 -92 26 -275q6 -53 15 -70q16 -33 56 -33q7 7 16 37q11 36 14 43q16 31 33 31q15 0 26.5 -21.5t11.5 -41.5
q0 -5 -1 -10q-20 -59 -31 -78q-26 -40 -69 -40q-73 0 -106 53q-24 38 -35 122q-6 50 -12 246l-40 -26q-9 -7 -19 -7q-13 0 -22.5 11t-9.5 24q0 16 15 26z" />
    <glyph glyph-name="u" unicode="u" horiz-adv-x="507" 
d="M93 332l47 -159q32 -106 62 -149q9 -12 19 -12q1 0 24 62q6 15 30 67q14 29 17 58q-14 73 -15 146q-1 33 37 33q24 0 31 -20q21 -58 21 -127q0 -20 -2 -40q28 -131 92 -169q20 -12 20 -33q0 -16 -11.5 -28.5t-27.5 -12.5q-11 0 -21 6q-55 32 -90 119l-6 -8l-31 -73
q-25 -52 -68 -52q-80 0 -126 159l-50 217q-1 4 -1 9q0 24 26 24q17 0 23 -17z" />
    <glyph glyph-name="v" unicode="v" horiz-adv-x="466" 
d="M80 415q-2 -29 17 -67l32 -61q64 -165 118 -240q30 114 49 166q33 96 75 155q12 17 31 17q16 0 28.5 -12t12.5 -28q0 -11 -8 -23q-47 -65 -84 -173l-56 -186q-9 -29 -27 -29q-47 0 -131 168q-23 44 -49 113l-45 116q-16 37 -13 86q1 24 25 24q26 0 25 -26z" />
    <glyph glyph-name="w" unicode="w" horiz-adv-x="570" 
d="M259 183q-19 -113 -89 -161q-19 -13 -26 -13q-8 0 -22 24q-26 44 -47 128q-25 98 -39 131q-2 6 -2 11q0 24 26 24q15 0 22 -15q23 -70 78 -206q22 32 31 87q4 24 9 93q2 34 33 34q18 0 29 -16l58 -80q33 -47 48 -86q40 101 59 181q11 50 38 142q10 26 36 26
q16 0 28.5 -11t12.5 -28q0 -7 -3 -15q-14 -37 -39 -138q-21 -88 -45 -135q-14 -34 -29 -67q-22 -43 -49 -43q-46 0 -68 44l-23 57q-14 14 -27 32z" />
    <glyph glyph-name="x" unicode="x" horiz-adv-x="387" 
d="M122 345q16 -31 46 -95q76 95 146 138q10 6 21 6q15 0 26 -12.5t11 -27.5q0 -20 -18 -32q-75 -45 -156 -137q55 -114 107 -171q11 -12 11 -26q0 -16 -12.5 -28t-28.5 -12q-15 0 -28 14q-47 51 -93 169q-72 -96 -95 -174q-5 -18 -23 -18q-26 0 -26 24q0 4 1 8
q32 105 118 228q-31 84 -51 122q-3 7 -3 13q0 24 26 24q14 0 21 -13z" />
    <glyph glyph-name="y" unicode="y" horiz-adv-x="470" 
d="M75 -242q122 105 196 271q-44 44 -101.5 156t-94.5 150q-4 3 -9 8l-16.5 16t-8.5 18q0 12 8.5 21.5t20.5 9.5q9 0 20 -8q59 -46 116 -145q69 -119 95 -148q36 109 36 211q0 37 37 37q38 0 38 -37q0 -125 -57 -259q12 -11 12 -27q0 -17 -13.5 -30t-30.5 -10
q-84 -160 -216 -272q-7 -6 -16 -6q-25 0 -25 25q0 11 9 19z" />
    <glyph glyph-name="z" unicode="z" horiz-adv-x="520" 
d="M355 369q-8 1 -46 1t-103 5t-102 5q-67 0 -67 21q0 13 24.5 28.5t42.5 15.5q36 0 102 -1t102 -1q65 0 84 -9q34 -16 36 -72q2 -33 -68 -105q-55 -55 -97 -84q-31 -21 -63 -50q-48 -43 -48 -62q0 -13 25 -13q39 0 109 18.5t108 18.5q32 0 62 -8.5t30 -37.5
q0 -16 -10.5 -28.5t-27.5 -12.5q-6 0 -13 2q-27 7 -60 7t-99 -11.5t-99 -11.5q-106 0 -106 55q0 41 59 107q47 51 93 83q83 57 132 139v1z" />
    <glyph glyph-name="braceleft" unicode="{" horiz-adv-x="1138" 
d="M1042 327q0 -7 -26 -38q-30 -35 -38 -51l58 -382q-17 -3 -54.5 -15.5t-44.5 -12.5q-13 0 -28 6q-10 33 -17 84q-6 48 -14 72q-14 39 -49 79q-52 -1 -82 -68q-14 -31 -29 -105q5 -5 7 -5v-84q-195 -60 -204 -60q-7 0 -123 25q-152 32 -193 40q0 -2 2.5 16t2.5 44
q-4 3 -12 3q-13 2 -46 -4q0 29 7.5 146.5t7.5 119.5v67q-39 5 -63 0q-2 5 -7 12l176 529q33 -1 51 5q5 10 -5 36q20 22 54 47t44 25q2 0 73 -5q75 -6 109 -7q14 -9 22 -52q8 -38 29 -38q9 0 30 11q7 -3 16 -12q74 -140 311 -383q35 -35 35 -45zM1015 330q-129 112 -325 367
q-13 -164 -88 -439q55 6 80 5q0 3 3.5 9.5t3.5 8.5q-4 27 -4 51q0 113 75 113q24 0 52 -19t35 -43q7 -32 25 -83q1 0 2.5 2.5t8.5 2.5t37 5.5t36 5.5q14 0 22 -18q-5 -5 -5 -14q5 5 21 23t21 23zM543 824q-19 0 -59 6.5t-43 6.5q-21 0 -65 -37h45q18 0 66.5 9.5t55.5 14.5z
M602 778q0 25 -7 37q-10 -3 -89 -38v-40q12 -13 17 -50l6 -59q19 38 60 92q13 18 13 58zM838 295v30q0 15 -16 48q-14 30 -23 37q-9 2 -25 8v-34q0 -6 12 -40q13 -37 16 -54q14 7 36 5zM494 776q-102 -7 -144 1q7 -121 5 -178l-5 -8q44 3 127 6q9 7 16 -6q-2 56 -6 126
q-10 49 7 59zM768 285q-7 26 -11 66q-6 58 -6 62q-42 -30 -42 -83q0 -6 3 -24.5t3 -26.5q23 0 38.5 3t14.5 3zM659 740q-16 -3 -39 -14q-8 -15 -26 -39l-23 -28q-15 -23 -43 -90q-26 1 -80 -2.5l-54 -3.5h-33q-25 0 -32 9q2 51 -2 146h-35l-163 -477q0 -9 7 -16l366 -48h51
q6 40 23 103q25 56 46 162l29 163q-1 0 -3 4q15 33 15 95q0 23 -4 36zM1009 -104q-5 0 -9 6l-50 382h-28q-35 0 -75 -12.5t-120 -24.5q-68 -9 -135 -17q-3 -13 -3 -32v-17q0 -20 -2 -32q-17 0 -39 -6v-22q0 -7 11 -59.5t11 -59.5q0 -16 -16 -20q-21 -5 -22 -5q-5 -23 -5 -66
q0 -70 17 -126q8 2 141 38q5 39 11 114q4 59 19 80q37 50 39 52q22 22 60 22q55 0 79 -60q10 -24 26 -111q11 -60 32 -60q10 0 29 8t27 16q2 3 2 12zM532 11q0 24 -3 73.5t-3 61.5l5 7l-336 39l-17 -244v-45h19q149 44 167 50q98 30 168 58zM504 -209v176h-18
q-180 -65 -249 -81v-58zM403 53q0 5 -2 -42q-16 -5 -62 -23q-39 -15 -46 -15q-15 0 -29 28v105h127q3 -3 10 -12q-3 -6 -1 -19q3 -19 3 -22zM376 71q-10 4 -31 14v-21zM376 28q-8 8 -26 8q0 -10 8 -15q0 7 18 7zM322 84h-36v-30h20q0 5 4 10q5 -5 5 -11q0 1 3.5 11.5
t3.5 19.5zM328 30h-37v-19q2 0 11.5 -2.5t19.5 -2.5q0 18 6 24z" />
    <glyph glyph-name="bar" unicode="|" horiz-adv-x="1540" 
d="M1291 417q-5 -12 -16 -12q-4 0 -10 1.5t-9 1.5q-15 0 -21 -8q-4 -4 -9 -1q-4 4 0 8q9 13 30 13q3 0 9 -1.5t10 -1.5q3 0 8 10q3 5 8 2q5 -2 3 -8zM1272 386q-29 0 -41 -12q-4 -4 -8 0t0 8q16 16 49 16q16 0 20 9q2 6 7 3q6 -2 4 -7q-7 -17 -31 -17zM1289 370
q-44 0 -48 -12q-1 -5 -7 -4q-5 2 -4 8q7 20 59 20q16 0 21 9q3 5 8 2t2 -8q-9 -15 -31 -15zM968 323h-1q-3 3 -9 11q11 7 18 10q-12 13 -3 21q5 4 7 7q-57 59 -88 59q-28 0 -42 -15q18 -1 17 -15q0 -15 -1 -14h1l6 -1q10 -1 13 -3q6 -5 6 -11t-9 -14q-4 -4 3 -7q4 -2 11 -6
l7 -6q-3 -2 -8 -4q-8 -4 -11 -12t-8 -13h1l8 -1q-7 -16 -20 -32q-8 -11 -8 -18q1 -2 5 -4l2 -1q2 -2 7 -6l-2 -2q8 -3 21 -7q3 0 6 5l4 5h3h6l3 -1q0 6 7 15l4 2q-3 14 9 15q4 1 0 14l5 1v4h4l8 10q0 8 16 13zM819 402q10 -6 10 -21q0 -7 -3 -16q14 -15 45 -45q1 6 12 20
q-7 3 -10 7q-9 9 5 21q4 4 1 6q-9 0 -23 7q-2 4 0 19q1 5 -9 5h-6v3zM809 391q-2 -1 -4 -1q-17 -1 -17 -22q0 -16 8 -16q19 0 19 29q0 8 -6 10zM776 356q-2 6 -2 12q0 4 1 8q-11 -6 -18 -11q9 -7 19 -9zM777 273q2 0 4 -1q17 -4 39 -4q12 0 23 -16l5 -7q6 -10 12 -1
q-13 9 -13 15q0 10 8 21l15 21q-5 2 -9 10q-6 4 -41 41q-9 -13 -24 -13q-13 0 -19 13q-19 -15 -25 -31q5 -6 7 -6t7 4q-3 4 -6 7l6 5q2 -2 8 -10q2 -1 3 -3q5 -6 11 -10l-5 -7q-6 5 -10 10q-9 -6 -14 -6t-11 5v-9q0 -19 29 -28zM1129 165l43 51q-17 45 -49 45q-20 0 -20 -22
q0 -33 26 -74zM1234 45q26 -38 32 -43q22 -26 43 -26q18 0 35.5 18.5t17.5 36.5q0 21 -22.5 50t-38.5 31l-13 2l-2 -3q-7 4 -14 4q-17 0 -31.5 -18t-14.5 -33q0 -7 5 -10l6 -4zM647 201q11 21 26 35q-6 3 -16 11.5l-21 18.5q-14 12 -26 14v-5q0 -12 -8 -21q9 -5 26 -38
q8 -15 19 -15zM570 159q3 -71 45 -71q12 0 40 15l83 27q51 19 51 55q0 19 -27 36.5t-49 17.5t-41 -25q-16 -20 -22 -44q-1 0 -10.5 -8.5t-16.5 -8.5q-14 0 -22.5 13t-11.5 13q-13 0 -16 -21zM573 188v7q0 19 -20 19q-7 0 -14.5 -10t-7.5 -19q0 -4 5.5 -10t9.5 -6q1 0 3 1
l4 2q5 2 9 2h1q4 9 10 14zM556 158q-7 -3 -10 -3q-13 0 -23 14q4 -39 28 -68q27 -33 65 -33q21 0 74 33q-19 -5 -29 -10q-31 -17 -46 -17q-54 0 -59 84zM563 240l-1 -2l-3 -10q28 -4 28 -33v-2h2q11 1 19.5 -12.5t14.5 -13.5l15 12q1 4 3 8q-16 4 -28 29q-6 13 -8 17
q-7 9 -16 10q-9 -5 -19 -5q-3 0 -6 1zM559 276q9 -4 9 -14v-10h1q11 0 19 7t8 16q0 27 -12 27q-6 0 -14 -9t-11 -17zM544 226q8 22 6 31q-1 5 -6 5q-20 0 -20 -32h-2v-28q8 19 22 24zM809 -268q61 40 154 40q28 0 66 -12q-23 45 -103 139q-64 34 -104 34q-105 0 -138 -21
q9 -6 14 -23q5 -21 8 -25q35 -56 103 -132zM837 -300q55 36 140 36q28 0 66 -11l-6 18q-42 15 -74 15q-87 0 -145 -37zM1047 -291q-40 13 -70 13q-79 0 -130 -33q73 -79 124 -79q29 0 54.5 19.5t25.5 45.5q0 17 -4 34zM316 294q-12 -35 -21 -70q17 -8 53 -19l2 2l1 -1
q6 22 20 64q-5 4 -52 23zM342 366q0 -3 1 -6h-3q-11 -27 -19 -52v0v-1l3 -1q19 -6 53 -22q9 16 23 31q-17 21 -55 58zM351 150v-12h-3q-13 -60 -13 -113q0 -58 75 -103q66 -39 130 -39q24 0 64.5 16.5t62.5 16.5l2 2q24 29 153 29q5 0 11 -1v3q0 20 19 20q18 0 18 -20
q0 -5 -2 -9q27 -9 66 -30q19 -5 47 -17l55 -24q32 -12 58 -12q10 0 20 16l13 25q26 44 100 142l-3 2q-12 7 -12 22q0 22 19 43.5t41 21.5q11 0 22 -6l-2 -2q18 16 36 39q7 10 71 96l-159 16q-130 -143 -180 -227q-28 46 -102 85l-123 59q-7 -8 -34 -17q-7 -39 -73 -59
l-25 -20l-42 -24q-28 -15 -45 -15q-37 0 -66 29t-38 68q-3 11 -3 65q0 43 -11 60q-36 53 -53 52q-12 0 -26 -13v0l-10 -9q-13 -14 -21 -32q1 -1 0 -3l-3 -5v0q-17 -41 -34 -116zM280 163q26 -11 57 -11q4 18 10 38l-56 21q-6 -24 -11 -48zM264 155h-1l2 5q21 99 63 208
q0 7 1.5 18t1.5 18q0 35 -22 35q-33 0 -57 -55l-27 -83q-34 -102 -39 -122q-19 -69 -19 -127q0 -16 5 -36q8 -27 19 -27q17 0 33 23q2 4 21 38q0 15 19 105zM204 283q-5 1 -16 2q-15 1 -15 -3q0 -11 19 -36q2 7 12 37zM267 105q19 -2 60 -4q3 18 7 37q-31 1 -57 11l-3 -16
q-2 -11 -7 -28zM254 39h5q40 -7 58 -7h4q0 27 4 56q-13 0 -62 3q-2 -7 -3 -13q-4 -23 -4 -21l7 -4l-6 -9v-2h-1zM481 -270q-19 0 -32 15.5t-13 37.5q0 20 11.5 35t28.5 17q4 5 18 18q9 9 20 18q-67 9 -123 46q-66 44 -70 101h-4q-19 0 -60 7l-9 1v-10v-3q-3 -2 -3 -1
q0 -1 -2 1v1v5q-23 -44 -52 -44q-18 0 -29 31q-9 24 -9 46q0 74 34 179q-8 8 -18 25t-10 26q0 16 22 17q6 0 16 -1.5t12 -1.5l3 9q28 86 30 91q27 57 67 57q36 0 36 -49q0 -6 -1 -14q23 -15 66 -65q18 17 36 17q12 0 24.5 -7t23.5 -24l16 -29q6 -8 8 -19q11 16 27 16h1
q3 12 14.5 24t23.5 12q15 0 23 -21q16 -1 79 -48q13 7 27 7q9 0 21 -3q2 2 30 15q-28 12 -28 36q0 28 19 49q-2 1 -10 8q-2 2 -9 7l54 34q1 4 7 7h4q17 11 30 11l23 19q8 7 38 7q37 0 104 -71q-8 -10 -15 -16h1q2 -2 14 -18q-15 -4 -22 -8l1 -1q2 -2 3 -4q33 7 58 25
q15 14 54 42q21 13 61 23q46 12 62 20q3 2 46 24l-27 -24q4 2 8 2t12 -2t12 -2q6 0 10 11q2 6 8 4q5 -3 3 -8q-8 -19 -21 -19q-4 0 -12 2.5t-12 2.5q-5 0 -10 -6l-3 -3q-3 -3 -7 -1q-3 2 -3 6q-13 -16 -13 -74v-5h-11v5q0 52 8 70q-6 -3 -53 -15q-33 -9 -52 -21l-55 -41
t-66 -28q-3 -2 -11 -5q-2 -1 -2 -6l-15 -13q2 -17 -9 -18q-3 0 0 -14q-4 -2 -12 -4q0 -7 -6 -19q-4 1 -13 3q-9 -12 -19 -10q-5 3 -20 7q-6 -9 -13 -9q-5 0 -26 25q-5 6 -9 6q-24 0 -43 5l-32 -15q33 -13 48 -35q15 10 32 10q16 0 46.5 -5t48.5 -5q45 0 97 42q61 49 90 58
q10 2 59 13q32 7 59 20l5 -10q-28 -13 -61 -21q-19 -3 -59 -13q-28 -8 -89 -58q-52 -42 -101 -42q-18 0 -48.5 5t-46.5 5q-14 0 -26 -9q3 -7 4 -15q12 5 15 8q7 4 11 14l124 -59q78 -41 107 -78q21 34 64 87l-5 -3q-30 47 -30 84q0 36 34 36q39 0 59 -47l55 61l184 -20
q-41 -60 -106 -147q21 -11 41 -40t20 -51q0 -24 -21.5 -46.5t-45.5 -22.5q-34 0 -77 62q-33 -44 -93 -133l-17 -31q-12 -17 -28 -17q-31 0 -69 16l-65 28q105 -126 105 -212q0 -33 -30.5 -56t-63.5 -23q-44 0 -97 47q-16 14 -77 82q-39 43 -62 71q-41 52 -47 77
q-8 29 -21 29q-19 0 -49 -12q-1 -36 4 -72q19 10 39 10q57 0 57 -63q0 -26 -26.5 -44.5t-55.5 -18.5q-54 0 -54 63q0 26 27 46q-6 26 -5 73q-37 -15 -64 -15h-7q-19 -15 -37 -37q30 -12 30 -49q0 -22 -13 -37.5t-32 -15.5zM661 -184q-19 0 -37 -10l1 -1l-6 -2
q-25 -16 -25 -38q0 -51 42 -51q25 0 47.5 15.5t22.5 35.5q0 51 -45 51zM481 -177q-13 0 -23 -11.5t-10 -28.5q0 -18 10 -29.5t23 -11.5t23 11.5t10 29.5q0 17 -10 28.5t-23 11.5zM1269 136q-18 0 -18 20t18 20q19 0 19 -20t-19 -20zM1223 136q-18 0 -18 20t18 20
q19 0 19 -20t-19 -20zM1177 143q-19 0 -19 20t19 20q18 0 18 -20t-18 -20zM922 97q-18 0 -18 20t18 20q19 0 19 -20t-19 -20zM839 133q-19 0 -19 20t19 20q18 0 18 -20t-18 -20zM905 47q-19 0 -19 20t19 20q18 0 18 -20t-18 -20zM812 83q-19 0 -19 20q0 19 19 19
q18 0 18 -19q0 -20 -18 -20zM876 -14q-18 0 -18 20t18 20q19 0 19 -20t-19 -20zM794 26q-18 0 -18 20t18 20q19 0 19 -20t-19 -20zM776 -35q-18 0 -18 20t18 20q19 0 19 -20t-19 -20zM431 234q-17 0 -17 18q0 19 17 19t17 -19q0 -18 -17 -18zM417 172q-17 0 -17 18
q0 19 17 19t17 -19q0 -18 -17 -18zM403 108q-17 0 -17 18q0 19 17 19q16 0 16 -19q0 -18 -16 -18zM388 47q-16 0 -16 19q0 18 16 18q17 0 17 -18q0 -19 -17 -19zM378 -31q-17 0 -17 18q0 19 17 19q16 0 16 -19q0 -18 -16 -18zM662 -262q-7 -4 -17 -4q-28 0 -28 16
q0 10 9.5 21t19.5 14q11 3 20.5 -1.5t9.5 -15.5q0 -24 -14 -30zM649 -227q-7 -2 -13.5 -9.5t-6.5 -13.5q0 -5 10 -5q9 0 17 3.5t8 19.5q0 9 -15 5zM481 -245q-24 0 -24 26q0 25 24 25t24 -25q0 -26 -24 -26zM481 -206q-12 0 -12 -13q0 -14 12 -14t12 14q0 13 -12 13z
M335 575q-4 -5 -10 -1q-12 8 -24 8q-19 0 -35 -17t-19 -17q-4 0 -6 4t1 7q31 37 59 37q17 0 32 -11q6 -4 2 -10zM352 485q-7 -3 -10 3q-12 28 -29 28q-23 0 -49.5 -25t-24.5 -40q1 -6 -6 -7q-7 -2 -8 5q-3 22 28.5 51.5t59.5 29.5q26 0 42 -36q3 -6 -3 -9zM107 234
q3 -6 -4 -8t-9 5t-2 19q0 61 33 106q2 3 6 3q7 0 7 -7q0 -3 -2 -4q-31 -42 -31 -98q0 -10 2 -16zM201 -79q-32 0 -56 40q-21 33 -23 68q-1 7 6 7q7 1 7 -6q3 -32 21 -62q21 -33 45 -33q11 0 16 11t9 21q2 6 9 3q6 -2 3 -9q-10 -25 -11 -27q-8 -13 -26 -13zM115 -41q3 6 9 3
t3 -9q-2 -5 -2 -10q0 -10 9.5 -18t21.5 -8q6 0 11 2q6 3 9 -3q2 -7 -4 -9.5t-13 -2.5q-18 0 -32 10q-17 10 -17 27q0 8 5 18z" />
    <glyph glyph-name="braceright" unicode="}" horiz-adv-x="1279" 
d="M1194 416q0 -25 -10 -54q-12 -35 -32 -53q-28 -25 -135 -91q-18 -12 -38 -13q-1 0 -4 -0.5t-3 -7.5q0 1 38.5 -61t38.5 -72q0 -19 -11 -33q-1 -2 -32 -34q69 -46 89 -46q6 0 4.5 2.5t4.5 2.5q28 0 46 -38q15 -30 15 -53q0 -32 -26 -70q-27 -41 -59 -41q-5 0 -24.5 7
t-25.5 7t-8.5 -2t-8.5 -2q-42 0 -81 15q-10 4 -36 20q-21 13 -27 13q-11 0 -15 -8q-36 -5 -48 -8q-29 -7 -42 -18h-159q-7 0 -6 3.5t-1 4.5q-12 1 -47 10q-4 2 -8 2q-15 -23 -39.5 -43.5t-40.5 -23.5q-22 -4 -90 -18q-56 -12 -63 -12h-28q-22 0 -50 45q-25 41 -25 61
q0 39 12 70q10 27 23 34q9 3 24 16q2 0 11 -9q18 6 55 22q-2 6 -11 13t-11 10q-16 25 -16 70q0 51 34 95v12q-14 7 -37 17q-59 11 -115.5 63t-66.5 99q-4 4 -11 14q-1 4 -4 18t-3 21q0 51 35.5 92t85.5 41q45 0 80 -22q20 -11 45 -42q36 -44 38 -46q12 -13 29.5 -19
t35.5 -11q3 3 3 10q0 4 -17.5 31.5t-19.5 38.5q-1 3 -25 87q1 12 -2 37q-8 24 -18 34q2 6 5 23.5t5 23.5q-13 7 -45 23q-16 -26 -35 -41q-32 -26 -58 -26q-11 0 -21.5 11t-20.5 23q-7 -15 -32 -15q-7 0 -23 15.5t-16 20.5q0 7 6 16q7 13 7 14q5 15 9 29q8 22 19 34l80 93
q61 62 96 62q22 0 50.5 -11.5t43.5 -29.5q3 -6 3.5 -24.5t4.5 -27.5q13 -32 37 -32q6 0 32 17q30 20 38 24q27 12 72 12q60 0 113 -13q70 -17 93 -51q2 -4 10 -4q2 15 10 34q1 0 10 -9q3 2 63 74q1 1 13 4t20 3q36 0 74 -35t46 -68l16 -20q15 -38 49 -109v-17l-26.5 -11
t-28.5 -9q2 0 -32 10q-22 -34 -40 -34q-24 0 -48 25q-2 1 -4 12t-10 11q-11 0 -15.5 -12.5t-26.5 -11.5q-1 -3 -6 -70q-4 -5 -11 -15q-3 -31 -14 -63l-21 -56q-4 -3 7 -3q9 0 96.5 77t117.5 77q48 0 86 -49q35 -45 35 -88zM1077 705q-5 21 -16 52q-15 23 -31 45
q-29 39 -42 39h-16q38 -45 105 -136zM1089 700l-7 2l-6 -12l7 -3zM1073 640v22q-7 5 -31 53q-11 24 -43 64q-45 58 -70 58q-7 0 -10 -3t-4 -3l32 -32q15 -15 35 -44q30 -45 32 -47q4 -14 13 -34q17 -23 28 -34h18zM1020 630q0 38 -52 103q-47 60 -77 75v-18q39 -37 88 -169
q10 -3 24 -15q2 3 11 11q6 7 6 13zM934 676q0 11 -36 76q-18 12 -25 12h-15q-2 -2 -10 -13q-6 -7 -6 -13q0 -5 19 -44q20 -43 25 -63h18q1 7 15.5 15.5t14.5 29.5zM1179 423q0 14 -27 51t-43 48q-3 2 -29 2q-23 0 -28 -2q-19 -11 -49 -34l-8 -11t-8 -10q-10 -6 -23 -13
q-22 -24 -64 -61v-16q0 -6 11 -10.5t12 -4.5q25 -43 25 -57q0 -6 -9.5 -21.5t-9.5 -21.5q0 -7 9 -21.5t17 -14.5q27 0 114 61q83 57 89 70q21 46 21 66zM855 601q1 8 1 16q0 21 -10 48q-14 38 -16 44l-6 6q-12 51 -33 62q-37 20 -53 24q-42 12 -112 12q-25 0 -65.5 -12
t-90.5 -59q-39 -38 -64 -76q-8 -25 -26 -64h17q28 8 58 54l23 45q17 30 35 30q12 0 39 -23q4 -10 4 -20q1 17 13 33q14 20 33 20q33 0 33 -36q0 -8 -2 -25t-2 -24q0 -8 2 -14q0 22 3 57q12 32 31 32q12 0 34 -18q7 -17 17 -82h23v16q-2 5 -13 20t-11 23q0 46 34 46
q14 0 20 -6q15 -16 36 -41q16 -34 48 -88zM739 579q0 -3 -16 -3q0 -9 5 -13q11 0 11 16zM558 672q-4 4 -12 4l-36 -73q5 -4 28 -6q2 12 10 37t10 38zM880 550v26q-1 0 -6.5 -2t-12.5 -2q-29 0 -42 30.5t-24 60.5q-16 37 -48 48q0 -1 -3 -8.5t-3 -14.5q0 -6 14.5 -31.5
t14.5 -31.5q0 -14 -19 -21q4 -3 11.5 -17t7.5 -17q0 -12 -17 -22t-31 -10q-29 0 -29 27q0 7 11.5 19t12.5 14v16q-23 10 -30 39q-5 24 -9 49q-3 0 -9 -2.5t-9 -2.5q-3 -17 0 -41q3 -27 3 -34q2 -2 2 -6q0 -15 -18 -15q-9 0 -35 24q-11 9 -11 31q0 12 3.5 33t3.5 27
q-26 -11 -28 -46q-2 -49 -15 -72q-5 -13 -19 -35q-20 7 -56 27q-3 10 -3 19q0 18 16 45q21 33 26 47h-17q-6 -2 -15 -6q-8 -36 -35 -74q-30 -42 -57 -45v-26q10 -15 13 -50q3 -42 7 -55q8 -24 24 -49q29 -42 88 -63q31 -11 108 -11q64 0 93 11q39 15 69 44.5t43 62.5
q5 12 9 42t8 39q13 25 13 29zM457 768q-28 21 -31 21q-25 0 -49 -41l-30 -59q8 0 22.5 -7t19.5 -8q1 19 29 50q37 40 39 44zM924 316q-13 18 -44 47q-8 2 -27 12q-1 -48 -48 -96.5t-88 -53.5v-35q0 -6 11 -15q13 -12 28 -12t45 21q44 31 47.5 35.5t41.5 44.5q33 35 34 52z
M413 818v38q-39 -29 -104 -99q-67 -73 -92 -117h21q33 0 93 88.5t82 89.5zM375 879h-54q-13 0 -35 -21q-31 -29 -73 -82q-59 -75 -59 -106v-16h23l114 117q44 48 84 108zM1145 -128q0 17 -7 30q-9 8 -23 25h-21q-17 -23 -43 -63q-7 -25 -21 -60q15 -16 43 -16q30 0 51 27
t21 57zM601 296v8h-13v-8h13zM1068 -70q-26 18 -73 43q-20 7 -57 7q-86 0 -86 -94q0 -18 6 -29q23 -29 35 -34q54 -25 92 -25h30q-1 7 -1 15q0 29 22 65q31 49 32 52zM626 228q0 11 -9.5 25t-17.5 19q-37 16 -100 51q-5 3 -18 17q-10 11 -17 11q-17 0 -48 -19
q-36 -21 -36 -41q0 -17 91 -69q88 -49 104 -49q15 0 19 1q32 50 32 54zM1025 67q0 22 -49 91l-54 75q-12 7 -16 7l-65 -63q-47 -43 -81 -43q-19 0 -41 21q-26 23 -26 51q0 34 13 57q16 -4 53 24l52 41q6 30 6 27q-50 -40 -106 -52q-39 -9 -109 -7q43 -26 43 -68
q0 -20 -2 -23q-10 -20 -21 -39q-12 -22 -18 -22h-26q-21 0 -157 82q-34 -34 -63 -86q0 -1 -39 -79q0 -12 -3 -34q-3 -5 -8 -5l22 -45q16 -29 39 -30q9 17 34 28q21 10 37 10q17 0 38 -11q30 -16 54 -50q26 -37 26 -71q0 -13 -3 -24q-2 -4 4 -12l120 -15q31 0 127 16
q17 8 46 20q-15 13 -18 28q-1 6 -1 32q0 111 103 111q6 0 19.5 -2.5t19.5 -2.5q7 0 19 12q9 10 19 19q1 3 6.5 14.5t5.5 17.5zM395 238q-39 31 -39 60q0 19 15 39q3 3 11 8.5t8 8.5q-34 38 -99 100q-9 8 -29 12.5t-23 5.5q-17 9 -27 9q-38 0 -69.5 -35t-31.5 -76
q0 -57 69 -123q65 -62 116 -66q4 -1 49 -18q13 26 50 75zM534 -142q0 37 -31 70t-67 33q-18 0 -42.5 -24t-25.5 -24q-4 0 -32 -5.5t-37 -5.5q18 -19 41 -50q9 -21 17 -58q8 -43 10 -49q58 -1 106 24q61 32 61 89zM342 -239q0 42 -22 78q-11 19 -29 38q-12 12 -24 12
q-8 0 -18 -11.5t-11.5 -18.5t-1.5 -33q0 -96 60 -96q46 0 46 31zM645 563q0 -16 -16 -26q-12 -8 -25 -8q-15 0 -24 11q-7 8 -7 18q0 6 5 19.5t5 18.5q1 0 10.5 2.5t15.5 2.5q13 0 26 -18q10 -15 10 -20zM620 558v18q-4 0 -12 6l-11 -11v-17q3 0 12 2t11 2zM832 506
q-6 -2 -22 -33q-11 -3 -31 -8q-26 -48 -43 -68q-29 -32 -65 -32q-98 0 -138 97q-12 3 -35 11q-12 15 -12 34q0 11 11.5 21t13.5 20q30 -10 41 -10q7 -18 7 -35q0 -23 -15 -26q26 -49 45 -65q26 -23 68 -23q40 0 67 37l36 57q-4 3 -8 3q-2 6 -2 11q0 20 12 35.5t27 15.5
q14 0 24 -8t19 -17v-17zM808 522q-4 0 -14 1h-18v-22q10 0 10 -11q12 25 22 32zM534 501l-6 23q-9 -6 -23 -22q5 -4 7 -12q11 11 22 11zM929 108q0 -20 -23.5 -38t-34.5 -18q-20 0 -37 21q-16 18 -16 32q0 23 20 43t38 20q23 0 40 -25q13 -21 13 -35zM905 117q0 7 -3 13.5
t-3 8.5h-16q-11 -3 -24 -7q-17 -22 -17 -29t6 -14q9 -11 10 -12h17q4 7 19 20q11 8 11 20zM809 2q0 -16 -15.5 -35.5t-33.5 -19.5q-19 0 -32 16q-11 13 -11 27q0 24 11.5 43t31.5 19q25 0 38 -19q11 -15 11 -31zM789 17q-23 12 -27 11q-21 -20 -21 -38q0 -8 6 -14h21
q12 5 15 17zM722 86q0 -20 -24 -39t-39 -19q-6 0 -16 3q-13 3 -15 4q-26 44 -26 54q0 25 27 41q24 14 52 14q17 0 30 -25q11 -20 11 -33zM698 96q0 7 -3 9.5t-3.5 3t-8 3.5t-14.5 3q-15 0 -29 -8.5t-14 -25.5q0 -7 2.5 -12t2.5 -7h35q7 0 19.5 13.5t12.5 20.5zM799 -121
q0 -17 -16.5 -30t-26.5 -13q-19 0 -31.5 17t-12.5 36q0 15 11 48h25q22 0 37 -21q14 -17 14 -37zM775 -111q0 7 -8 13.5t-15 5.5q-1 -3 -8.5 -11t-7.5 -15q0 -11 7 -17h21q11 11 11 24zM534 113q0 -17 -24.5 -39t-37.5 -22q-5 0 -58 25q-5 63 22 79q6 1 22.5 9t22.5 8
q21 0 38 -26q15 -21 15 -34zM510 120q0 17 -17 24q-31 -10 -50 -10q0 -5 -5 -16.5t-5 -16.5q0 -9 9.5 -17t17.5 -8q50 23 50 44zM630 -13q0 -17 -14 -37q-16 -23 -34 -23q-5 0 -47 30q-3 40 10 69q9 7 15 7h4q2 -1 3 -1q4 0 8 11l30 -18q25 -15 25 -38zM606 -18v16l-11 11
h-22q2 -5 2 -9q0 -8 -9 -15q-12 -10 -13 -12q6 -17 25 -17q4 0 16 9t12 17zM669 -128q0 -4 -5.5 -15t-6.5 -15q-24 -21 -36 -21q-19 0 -33 16q-10 13 -10 25q0 6 11 24l19 31h15q12 0 29 -19t17 -26zM645 -122q-11 0 -11 10q-32 -13 -32 -28q0 -7 2.5 -9.5t2.5 -4.5
q15 3 38 32z" />
    <glyph glyph-name="asciitilde" unicode="~" horiz-adv-x="747" 
d="M415 172q-19 0 -58.5 5.5t-58.5 5.5q-87 -1 -120 2l6 60q37 -4 47 -4q11 0 33.5 2t33.5 2q19 0 58 -4t59 -4q23 0 73 8t81 8v-67q-31 0 -81 -7t-73 -7z" />
    <glyph glyph-name="Ccedilla" unicode="&#xc7;" horiz-adv-x="258" 
 />
    <glyph glyph-name="Eacute" unicode="&#xc9;" horiz-adv-x="586" 
d="M265 669q-24 -10 -58 -63q-7 0 -16.5 6t-9.5 13q0 3 1 6q-1 10 6 18v16l26 40q13 7 45 48.5t54 50.5l23 -55q-6 -3 -31 -38.5t-40 -41.5zM458 -202q-3 1 -10 1q-17 0 -51.5 -1t-51.5 -1q-22 0 -66.5 2.5t-67.5 2.5q-41 0 -52 38q-5 17 -5 70q0 21 -9 55q-10 39 -11 55
q-5 42 -16 127l-49 -3l-4 50l47 4l-18 111q-10 64 -11 111q-12 -7 -29 -23l-31 33q41 39 81 53q5 5 17 23l21 -13q42 6 125 21q5 1 93 27q53 16 97 16q32 0 80 -7l-10 -66l-43 6q-44 0 -103 -13l-100 -25q-25 -5 -71 -7q-50 -3 -70 -6q4 -66 31 -235q98 13 201 38
q34 8 85 11l86 4l6 -67q-35 -2 -97 -2q-28 0 -68 -10q-65 -15 -68 -15q-48 -9 -138 -13q4 -36 21 -137q15 -85 17 -137q0 -4 1 -12q5 0 14 1.5t14 1.5q17 0 50 -2.5t50 -2.5t51.5 1.5t51.5 1.5q22 0 27 -9l1 -2h11q5 0 50 21l26 -63q-61 -26 -76 -26q-23 0 -29 12z" />
    <glyph glyph-name="Ntilde" unicode="&#xd1;" horiz-adv-x="747" 
d="M41 -65q0 5 -6 22q-3 13 -3 22q0 127 29 346q5 56 18 161q7 49 34 189q6 34 25 34q23 0 61 -52q31 -41 43 -71q109 -266 267 -469q43 269 96 409q29 78 29 108q0 11 -5.5 24.5t-5.5 20.5q0 16 13 27.5t29 11.5q23 0 34 -21q15 -27 15 -63q0 -44 -35 -136
q-37 -100 -64 -237q-8 -42 -41 -243q-5 -35 -38 -35q-18 0 -31 14q-150 166 -286 445q-11 24 -28 72.5t-27 70.5q-4 -20 -37 -268l-24 -168q-14 -106 -14 -170q0 -23 2 -36q5 -29 -25 -29q-21 0 -25 21zM293 718q90 37 207 37q40 0 40 -40t-40 -40q-14 0 -51 2t-57 2
q-51 0 -79 -11q-5 -2 -11 -2q-26 0 -26 28q0 17 17 24z" />
    <glyph glyph-name="Odieresis" unicode="&#xd6;" horiz-adv-x="258" 
 />
    <glyph glyph-name="Udieresis" unicode="&#xdc;" horiz-adv-x="258" 
 />
    <glyph glyph-name="aacute" unicode="&#xe1;" horiz-adv-x="526" 
d="M481 156l9 -1l-1 -19l10 -42l-62 -16l-8 26q-43 -24 -134 -24q-50 0 -122 44.5t-104 96.5q-34 56 -34 139q0 156 232 156q56 0 95 -24q2 9 7 37l44 -5q-3 -26 -3 -30q0 -106 71 -338zM360 433q-40 27 -93 27q-175 0 -175 -100q0 -65 29 -108q26 -39 86 -76q51 -31 88 -31
h43q52 0 72 26q-42 153 -50 262zM439 716q-23 -14 -66 -47l-13 -11l-5 -11l-98 -6q35 33 108 94q14 10 37 28q2 7 11.5 11.5t16.5 3.5h29v-49z" />
    <glyph glyph-name="eacute" unicode="&#xe9;" horiz-adv-x="528" 
d="M274 681q-40 -40 -37 -52l8 -26l-52 -16l-8 26q-2 6 -2 14q0 24 16 56q14 29 29 44q8 8 29 46l59 -33q-22 -39 -42 -59zM128 240q23 -61 65 -96.5t96 -35.5q31 0 64 12q91 72 84 88l-13 30l60 25l13 -30q3 -9 3 -19q0 -27 -34 -64q-50 -53 -51 -55q-15 -23 -33 -30
q-47 -18 -92 -18q-72 0 -128.5 46t-86.5 124l-49 -22l-17 47l47 19l-1 1l6 2q-3 19 -3 38q0 79 55 147q51 63 129 93q20 8 41 8q52 0 92 -38t40 -85q0 -48 -47.5 -78t-117.5 -60zM264 487q-66 -25 -107 -77q-45 -56 -40 -120q21 13 65 35q77 30 98 40q75 36 75 63
q0 21 -25 42t-47 21q-10 0 -19 -4z" />
    <glyph glyph-name="iacute" unicode="&#xed;" horiz-adv-x="191" 
d="M152 614q-11 -14 -8 -42l-53 11q-4 15 -4 19q0 17 20 45l32 40l45 -35zM59 -18q0 64 -4.5 180.5t-4.5 173.5q0 -11 2 58q1 32 -4 58l44 8q10 -48 13 -128q1 -33 10 -171q6 -106 6 -179h-62z" />
    <glyph glyph-name="ntilde" unicode="&#xf1;" horiz-adv-x="519" 
d="M104 364q77 93 154 93q49 0 69 -34q8 -14 22 -73l63 -282q0 -1 3 11.5t5 13.5q12 10 25 10q16 0 28.5 -13t12.5 -29q0 -18 -16 -30q-45 -36 -78 -36q-49 0 -65 83q-19 95 -54 286q-5 28 -15 28q-38 0 -81 -33q-39 -29 -62 -68l27 -151q14 -89 14 -161q0 -34 -34 -34
q-33 0 -33 34q0 83 -27 287q-9 10 -3 24q-13 103 -13 179q0 26 26 26t26 -26q0 -50 6 -105zM99 570q23 65 59 65q11 0 33 -6t33 -6q8 0 20.5 4.5t19.5 4.5q33 0 33 -37q0 -19 -15.5 -34t-46.5 -15q-19 0 -42 7q-43 13 -35 13q-8 0 -13.5 -15t-21.5 -15q-26 0 -26 24
q0 5 2 10z" />
    <glyph glyph-name="oacute" unicode="&#xf3;" horiz-adv-x="524" 
d="M262 -6q-110 0 -170 71q-56 66 -56 176q0 81 64 136t144 52q31 17 74 17q63 0 109 -70q40 -62 40 -125q0 -100 -50 -173q-57 -84 -155 -84zM189 370q-39 -15 -65 -51t-26 -78q0 -84 40 -132q43 -51 124 -51q71 0 111 61q35 54 35 132q0 39 -24 81q-25 46 -57 53
q-148 -8 -138 -15zM393 623q-18 -26 -50 -54q-3 -2 -7 -6q-2 -2 6 -28l-51 -15l-8 26q-1 6 -1 12q0 24 30.5 61t31.5 45l4 31l63 -10q-7 -45 -18 -62z" />
    <glyph glyph-name="uacute" unicode="&#xfa;" horiz-adv-x="495" 
d="M364 8q-10 93 -10 213q0 18 2 59t2 67h45q0 -26 6 -67t6 -59q0 -167 46 -374l-66 -15q-11 49 -18 87q-54 -59 -136 -59q-68 0 -111 62q-31 46 -53 135l-28 130q-7 24 -7 45q0 23 9 54l44 -13q-7 -19 -7 -26q0 1 14 -44q20 -62 43 -160q28 -119 96 -119q44 0 72 20
q25 18 51 64zM209 521l13 -9l-25 -37l-18 12l-4 1q-27 9 -27 33t27 46q31 52 56 110l58 -26q-46 -104 -76 -127z" />
    <glyph glyph-name="acute" unicode="&#xb4;" horiz-adv-x="308" 
d="M141 522l-48 22l82 169l40 -20q-23 -56 -74 -171z" />
    <glyph glyph-name="dieresis" unicode="&#xa8;" horiz-adv-x="335" 
d="M185 595q-11 87 -11 166q0 32 32 34l15 7l20 -40l-15 -8q0 -9 19 -151zM92 596q0 25 -1 66.5t-1 59.5q0 14 5 38.5t5 47.5h45q0 -36 4 -95.5t4 -86.5v-30h-61z" />
    <glyph glyph-name="ordfeminine" unicode="&#xaa;" horiz-adv-x="290" 
d="M289 385q-64 13 -108 13q-11 0 -33.5 -1.5t-33.5 -1.5q-17 0 -61 4q-37 3 -62 2l-4 52q1 0 128 1q-50 16 -88 81q-35 59 -35 110q0 61 54 114.5t114 49.5l25 -1l-5 -37l15 -27v4q-1 22 23 56l38 -25q-16 -22 -16 -31q0 -40 17 -95l31 -91q11 -37 15 -76l-59 -7
q-4 29 -8 53q-16 -54 -55 -74q65 0 120 -12zM120 757q-28 -15 -51 -49t-23 -63q0 -31 31.5 -85t55.5 -54q21 0 37 27q14 24 14 51q0 63 -64 173z" />
    <glyph glyph-name="ordmasculine" unicode="&#xba;" horiz-adv-x="297" 
d="M210 772q81 -46 81 -174q0 -50 -49 -84q-44 -30 -94 -30q-60 0 -103 54q-39 50 -39 110q0 53 51 108.5t105 55.5q16 0 29 -13zM139 748q-24 -15 -48 -45q-25 -34 -25 -55q0 -36 24.5 -70t57.5 -34q32 0 58.5 18t26.5 45q0 129 -94 141zM149 420q-20 0 -59.5 5.5
t-58.5 5.5q-11 0 -21 -1v48q21 -2 52 1q38 5 52 5q6 0 17.5 -2t17.5 -2q17 0 114 6l4 -60q-84 -6 -118 -6z" />
    <glyph glyph-name="questiondown" unicode="&#xbf;" horiz-adv-x="507" 
d="M259 613q-17 -9 -35 -9q-40 0 -40 40q0 62 42 62q23 0 39.5 -18t16.5 -40q0 -23 -23 -35zM243 -199q-179 0 -179 111q0 60 58 130l106 122q58 76 58 155q0 85 -76 98l15 67q64 -13 97 -62q28 -43 28 -103q0 -97 -64 -184l-126 -148q-33 -43 -33 -75q0 -38 43 -49
q22 -6 73 -6q50 0 100 39q54 42 55 93h44l1 -35q0 -54 -77 -106q-70 -47 -123 -47z" />
    <glyph glyph-name="exclamdown" unicode="&#xa1;" horiz-adv-x="327" 
d="M132 572q-17 0 -33 16t-16 33q0 24 29 42q25 16 46 16q19 0 34 -21.5t15 -38.5q0 -47 -75 -47zM162 -226q-21 95 -21 280q0 27 -3 80t-3 80q0 23 5 68t5 68q0 28 -10 85t-10 93h45q0 -40 15.5 -98t15.5 -92q0 -18 -4 -55t-4 -56q0 -23 4.5 -71.5t4.5 -72.5
q0 -12 -1 -40.5t-1 -43.5q0 -114 22 -211z" />
    <glyph glyph-name="guillemotleft" unicode="&#xab;" horiz-adv-x="307" 
 />
    <glyph glyph-name="guillemotright" unicode="&#xbb;" horiz-adv-x="307" 
 />
    <glyph glyph-name="endash" unicode="&#x2013;" horiz-adv-x="426" 
d="M408 226q-58 5 -74 5q-43 0 -127.5 -12t-127.5 -12q-55 0 -62 -1l-6 52q27 3 69 3t126.5 18t127.5 18q29 0 81 -5z" />
    <glyph glyph-name="emdash" unicode="&#x2014;" horiz-adv-x="908" 
d="M798 226q-15 0 -44.5 3t-45.5 3q-22 0 -66.5 -2t-67.5 -2q-26 0 -79 7t-80 7q-26 0 -79 -7.5t-80 -7.5t-81 5t-82 5q-21 0 -50 -14l-21 43q56 27 115 27q20 0 60 -1.5t59 -1.5q27 0 80 8t79 8q28 0 83.5 -6.5t82.5 -6.5q11 0 34.5 2t35.5 1q28 0 87 -4.5t89 -4.5
q4 0 12 8l11 12l35 -35q-46 -46 -87 -46z" />
    <glyph glyph-name="quotedblleft" unicode="&#x201c;" horiz-adv-x="310" 
d="M253 573l-63 107q-35 62 -55 111l42 17l9 -21q9 -24 53 -83l69 -99zM131 577q-18 34 -65 106q-44 66 -63 107l40 19q22 -46 68 -95l34 -38q18 -22 28 -41l15 -29z" />
    <glyph glyph-name="quotedblright" unicode="&#x201d;" horiz-adv-x="312" 
d="M256 761q-26 -33 -49 -101l-33 -109l-63 21q47 140 125 235l35 -29zM160 764q-40 -70 -58 -174l-61 11q15 87 61 157l30 48l39 -23z" />
    <glyph glyph-name="quoteleft" unicode="&#x2018;" horiz-adv-x="207" 
d="M101 580q-14 50 -34 88q-24 46 -24 75q0 14 18 28l16 16l32 -32l-10 -10q5 -22 28 -59t28 -57l9 -31z" />
    <glyph glyph-name="quoteright" unicode="&#x2019;" horiz-adv-x="215" 
d="M150 751q-14 -10 -18 -70q-2 -36 -5 -50q-5 -30 -17 -48l-16 -23l-47 33q21 29 27 49q5 14 8 50q6 70 60 108l26 -36z" />
    <glyph glyph-name="divide" unicode="&#xf7;" horiz-adv-x="539" 
d="M222 455h-1l2 45h22l11 12l15 -14q35 -7 35 -43q0 -20 -22 -32q-17 -8 -34 -8q-29 0 -29 25q0 8 1 15zM282 281q-142 0 -229 34l17 42q77 -31 251 -31q25 0 79 2.5t86 2.5v-45q-38 0 -105.5 -2.5t-98.5 -2.5zM276 184l10 3l1 -4q39 -9 39 -46q0 -16 -12 -29.5t-29 -13.5
q-14 0 -31 13.5t-22 29.5l-17 -1v45q13 0 33 2t28 1z" />
    <glyph glyph-name="Aacute" unicode="&#xc1;" horiz-adv-x="730" 
d="M293 699q-3 -21 -13 -73l-61 13q14 63 27 87q21 37 72 59l18 -42q-35 -14 -43 -44zM105 172q-26 2 -68 33l32 44q25 -20 36 -20t31 7q141 319 183 319q67 0 150 -101q63 -78 101 -162q31 5 62 6l3 -65q-23 -1 -41 -3l46 -134q28 -80 54 -132q14 -30 30 -85l-67 -18
q-5 18 -47 119q-19 44 -44 120q-31 93 -41 121q-30 -3 -53 -3q-11 0 -34 4t-35 4q-6 0 -26.5 -8.5t-30.5 -8.5q-81 0 -174 -26q-27 -56 -27 -136q0 -33 5 -86q7 -78 7 -87l-48 -3q-3 30 -3 37q0 22 -9 86t-9 97q0 50 17 81zM403 430l-39 42q-30 30 -45 30q1 -3 1 -10
q-4 -8 -9 -19q-47 -92 -105 -217q34 7 135 17q10 1 30 9.5t32 8.5t35 -4t34 -4q13 0 28 1q-42 93 -97 146z" />
    <glyph glyph-name="Iacute" unicode="&#xcd;" horiz-adv-x="222" 
d="M140 753l-20.5 -48.5t-29.5 -46.5l-47 41q27 39 84 115l35 -29q-15 -18 -22 -32zM153 -36q18 3 53 7l5 -65q-69 -6 -65 -6q-21 0 -41.5 11.5t-33.5 11.5q-12 0 -27 -5l-11 44q8 2 23 9q11 5 21 5q6 0 14 -1q4 58 4 92q0 22 -9.5 66t-9.5 66q0 24 6 71t6 71q0 19 -12 91
q-4 22 -9 66q-14 -1 -41 -11l-15 43q77 26 139 26h30v-60q-35 0 -62 2q1 -16 11.5 -44t12.5 -43q3 -26 3 -67q0 -24 -5 -72t-5 -71q0 -17 8 -46q9 -33 11 -46q2 -27 2 -62q0 -32 -3 -83z" />
    <glyph glyph-name="Oacute" unicode="&#xd3;" horiz-adv-x="890" 
d="M656 716q-19 -5 -56 -34q-31 -23 -59 -21l3 65q43 22 119 54l23 -53q-16 -7 -30 -11zM444 -130q-170 0 -313 248q-10 17 -23 33q-23 30 -29.5 47.5t-6.5 54.5q0 115 60 201q47 69 124 109q62 33 107 33q20 0 22 -9q19 6 36 6q119 0 225 -55q121 -63 159 -167
q14 -38 14 -105q-1 145 -1 -108q0 -288 -374 -288zM561 510q-97 22 -140 22q-135 0 -211 -67q-83 -72 -83 -212q0 -66 42 -122q4 -6 88 -95q98 -103 187 -103q86 0 179 31q83 27 112 92q21 48 21 153v85q0 70 -63 137q-60 63 -132 79z" />
    <glyph glyph-name="Uacute" unicode="&#xda;" horiz-adv-x="718" 
d="M346 697l-27 -80l-61 23q22 59 41 87q24 37 70 68l26 -39q-34 -23 -49 -59zM649 133q-28 -72 -70 -142q-59 -98 -105 -114q-38 -14 -83 -14q-99 0 -173 86q-57 68 -89 174q-12 45 -41 133q-17 41 -37 159q-20 115 -20 162q0 21 12 34l4 5q6 6 11 26l44 -10
q-12 -53 -12 -55q0 -17 6 -44q8 -35 9 -43q8 -53 15 -106q11 -61 28 -104q4 -11 40 -131q25 -81 56 -123q36 -49 63 -69q37 -28 84 -28q53 0 65 11q34 32 75 102q35 60 57 115q34 87 34 262q0 39 -16 99q-9 33 -24 112l65 9q4 -35 24 -113q16 -64 16 -108q0 -189 -38 -285z
" />
    <glyph glyph-name="Ucircumflex" unicode="&#xdb;" horiz-adv-x="877" 
 />
    <glyph glyph-name="minus" unicode="&#xad;" horiz-adv-x="542" 
d="M18 250l-6 50q94 11 134 11q37 0 81 -6q69 -10 148 -11q-117 2 155 2v-61q-52 0 -256 15q-158 12 -256 0z" />
    <glyph glyph-name="minus" unicode="&#x2212;" horiz-adv-x="542" 
d="M18 250l-6 50q94 11 134 11q37 0 81 -6q69 -10 148 -11q-117 2 155 2v-61q-52 0 -256 15q-158 12 -256 0z" />
    <glyph glyph-name="multiply" unicode="&#xd7;" horiz-adv-x="562" 
d="M423 308q-58 -63 -95 -97q30 -21 86 -68q27 -29 36 -35q15 -12 49 -25l-26 -65q-57 22 -80 47q-15 17 -49 50l-68 49q-58 -57 -186 -173l-29 35q21 17 41 43l35 45q32 35 88 88q-55 45 -102 120q-30 46 -41 60q-21 27 -51 52l29 35q45 -38 114 -119q60 -70 101 -102
q63 60 102 102q34 41 107 118l47 -48q-37 -35 -108 -112z" />
    <glyph glyph-name="fi" unicode="&#xf001;" horiz-adv-x="579" 
d="M479 513q-19 0 -40 10q-26 12 -31 32q-12 6 -22 41q57 16 80 39l16 -16q21 -3 41 -17q24 -18 24 -39q0 -25 -25 -40q-20 -10 -43 -10zM456 -23q-62 98 -62 319q0 46 29 187l44 -8q-11 -54 -11 -111q0 -123 6 -181q12 -111 50 -170zM427 685q-17 9 -69 45q-35 25 -55 25
q-10 0 -36 -14q-134 -72 -134 -192q0 -23 8 -64q6 -32 13 -65q16 1 94 -13l-10 -63q-25 6 -75 15q41 -271 90 -355l-56 -32q-60 102 -96 387q-18 -4 -63 -11l-6 47q20 1 34 8q24 11 28 13l-10 66q-7 40 -7 67q0 85 56 155q50 62 132 97q18 8 38 8q28 0 58 -20q3 -2 48 -38
q17 -14 38 -25z" />
    <glyph glyph-name="fl" unicode="&#xf002;" horiz-adv-x="623" 
d="M567 765q0 -18 5.5 -54t5.5 -55q0 -55 -3.5 -166t-3.5 -166q0 -54 5.5 -166t5.5 -174h-63q0 62 -5.5 174t-5.5 166q0 58 6.5 173.5t6.5 173.5q0 12 -2.5 37t-2.5 37q0 43 37 82l34 -32q-20 -17 -20 -30zM387 718h-1q-52 29 -88 29q-16 0 -48 -28q-106 -96 -106 -244
q0 -33 10 -78q27 2 120 21l12 -61q-67 -14 -118 -17q11 -49 31 -174q18 -112 36 -174l-60 -18q-20 67 -37 183q-21 138 -31 184q-11 1 -19 1q-3 0 -3.5 -2.5t-3.5 -18.5l-44 10q13 62 58 66q-8 44 -8 78q0 180 143 298q34 28 68 28q51 0 125 -42q7 -14 29 -22l-21 -41z" />
    <glyph glyph-name="hungarumlaut" unicode="&#x2dd;" horiz-adv-x="307" 
d="M205 580q-9 23 -29 98q-15 61 -35 97l43 22q21 -39 79 -196zM76 573q-14 64 -32 200l45 3q2 -35 14.5 -69.5l25.5 -68.5q8 -25 12 -56z" />
    </font>
</defs>
</svg>
