<?xml version="1.0" encoding="utf-8"?>
<!-- Generator: Adobe Illustrator 16.0.0, SVG Export Plug-In . SVG Version: 6.00 Build 0)  -->
<!DOCTYPE svg PUBLIC "-//W3C//DTD SVG 1.1//EN" "http://www.w3.org/Graphics/SVG/1.1/DTD/svg11.dtd">
<svg version="1.1" id="Layer_1" xmlns="http://www.w3.org/2000/svg" xmlns:xlink="http://www.w3.org/1999/xlink" x="0px" y="0px"
	 width="215px" height="130px" viewBox="57.5 0 215 130" enable-background="new 57.5 0 215 130" xml:space="preserve">
<g>
	
		<linearGradient id="SVGID_1_" gradientUnits="userSpaceOnUse" x1="597.9346" y1="787.1309" x2="484.0704" y2="771.3914" gradientTransform="matrix(-1 0 0 1 765.7383 -710.9199)">
		<stop  offset="0.0181" style="stop-color:#000000"/>
		<stop  offset="0.1029" style="stop-color:#080808"/>
		<stop  offset="0.2327" style="stop-color:#1D1D1D"/>
		<stop  offset="0.3911" style="stop-color:#404040"/>
		<stop  offset="0.5723" style="stop-color:#707070"/>
		<stop  offset="0.7726" style="stop-color:#AEAEAE"/>
		<stop  offset="0.9861" style="stop-color:#F9F9F9"/>
		<stop  offset="1" style="stop-color:#FEFEFE"/>
	</linearGradient>
	<path opacity="0.2" fill="url(#SVGID_1_)" enable-background="new    " d="M263.762,24h-93.688c0,0,9.439,49.645,0.826,85.396
		c49.189,6.438,70.967,5.207,94.604,5.207C275.418,101.859,263.762,24,263.762,24z"/>
	
		<linearGradient id="SVGID_2_" gradientUnits="userSpaceOnUse" x1="561.7383" y1="720.0166" x2="552.1807" y2="808.5702" gradientTransform="matrix(-1 0 0 1 765.7383 -710.9199)">
		<stop  offset="0.0181" style="stop-color:#EB649C"/>
		<stop  offset="0.2244" style="stop-color:#ED67A4"/>
		<stop  offset="0.5389" style="stop-color:#F36EB9"/>
		<stop  offset="0.5901" style="stop-color:#F46FBD"/>
		<stop  offset="0.7881" style="stop-color:#F576AF"/>
		<stop  offset="1" style="stop-color:#F7809C"/>
	</linearGradient>
	<path fill="url(#SVGID_2_)" d="M256.42,16h-90.283c0,0,0,56.533-3.259,90.869c10.216,0.974,79.624,1.633,92.839-3.48
		C261.719,89.465,256.42,16,256.42,16z"/>
</g>
<g>
	
		<linearGradient id="SVGID_3_" gradientUnits="userSpaceOnUse" x1="481.7217" y1="801.8389" x2="451.219" y2="815.5311" gradientTransform="matrix(1 0 0 1 -395.3203 -710.9199)">
		<stop  offset="0.0181" style="stop-color:#000000"/>
		<stop  offset="0.1029" style="stop-color:#080808"/>
		<stop  offset="0.2327" style="stop-color:#1D1D1D"/>
		<stop  offset="0.3911" style="stop-color:#404040"/>
		<stop  offset="0.5723" style="stop-color:#707070"/>
		<stop  offset="0.7726" style="stop-color:#AEAEAE"/>
		<stop  offset="0.9861" style="stop-color:#F9F9F9"/>
		<stop  offset="1" style="stop-color:#FEFEFE"/>
	</linearGradient>
	<path opacity="0.2" fill="url(#SVGID_3_)" enable-background="new    " d="M65.134,20.07h118.131c0,0-7.142,61.012,3.721,106.092
		c-77.713-1.207-87.037,5.053-115.007,6.838C57.249,117.824,65.134,20.07,65.134,20.07z"/>
	
		<linearGradient id="SVGID_4_" gradientUnits="userSpaceOnUse" x1="525.5449" y1="747.6289" x2="519.0214" y2="808.0717" gradientTransform="matrix(1 0 0 1 -395.3203 -710.9199)">
		<stop  offset="0.0181" style="stop-color:#EE7808"/>
		<stop  offset="0.1572" style="stop-color:#F2800F"/>
		<stop  offset="0.3692" style="stop-color:#FC9522"/>
		<stop  offset="0.4279" style="stop-color:#FF9C29"/>
		<stop  offset="0.7043" style="stop-color:#FFA31B"/>
		<stop  offset="1" style="stop-color:#FFAD08"/>
	</linearGradient>
	<path fill="url(#SVGID_4_)" d="M65.73,20.07h117.238c0,0-8.629,63.193,4.018,104.9c-2.967-0.096-9.393-0.203-17.805-0.154
		c-30.261,0.179-97.352-2.6-102.41-11.378C61.712,104.66,65.73,20.07,65.73,20.07z"/>
	
		<linearGradient id="SVGID_5_" gradientUnits="userSpaceOnUse" x1="512.4619" y1="834.9844" x2="521.3741" y2="802.9797" gradientTransform="matrix(1 0 0 1 -395.3203 -710.9199)">
		<stop  offset="0.0564" style="stop-color:#DD7808"/>
		<stop  offset="0.1588" style="stop-color:#E27F10"/>
		<stop  offset="0.3148" style="stop-color:#F09325"/>
		<stop  offset="0.4201" style="stop-color:#FCA437"/>
		<stop  offset="0.5097" style="stop-color:#F2962E"/>
		<stop  offset="0.677" style="stop-color:#D87317"/>
		<stop  offset="0.7749" style="stop-color:#C65B08"/>
	</linearGradient>
	<path fill="url(#SVGID_5_)" d="M89.039,96.467c-1.786,15.473-13.601,21.484-21.962,17.047
		c9.224,15.722,80.681,11.154,102.899,11.154C154.304,120.271,99.057,106.484,89.039,96.467z"/>
</g>
<g>
	<g>
		<g>
			<g>
				<path d="M97.686,41.887c-1.278-3.837-3.295-7.465-7.595-8.164c-4.161-0.677-8.296,2.857-10.999,5.505
					c-7.427,7.275-10.55,16.22-11.003,26.417c-0.391,8.801,0.694,24.274,11.11,27.224C89.207,95.7,96.291,81.863,97.654,74.111
					c0.335-1.908-2.638-2.311-2.972-0.408c-1.179,6.706-9.164,21.968-17.738,14.688c-6.304-5.354-6.229-17.271-5.755-24.691
					c0.467-7.306,2.714-13.316,7.163-19.128c2.24-2.926,5-5.678,8.36-7.27c4.577-2.169,6.948,1.967,8.201,5.734
					C95.523,44.871,98.293,43.716,97.686,41.887L97.686,41.887z"/>
			</g>
		</g>
		<g>
			<g>
				<path d="M103.601,63.677c1.153-0.798,1.885-1.577,2.703-2.708c-0.889-0.377-1.777-0.756-2.665-1.132
					c-0.088,8.087-1.078,16.116-1.387,24.19c-0.073,1.916,2.898,2.342,2.972,0.408c0.31-8.074,1.299-16.104,1.387-24.19
					c0.015-1.356-1.699-2.47-2.666-1.13c-0.706,0.974-1.052,1.406-2.156,2.17C100.195,62.391,102.014,64.775,103.601,63.677
					L103.601,63.677z"/>
			</g>
		</g>
		<g>
			<g>
				<path d="M104.575,62.518c3.207,1.834,5.427,5.382,7.325,8.441c1.567,2.521,4.219,6.589,4.08,9.717
					c-0.085,1.914,2.887,2.342,2.972,0.408c0.167-3.77-2.208-7.689-4.006-10.829c-2.28-3.981-5.12-8.17-9.186-10.495
					C104.077,58.801,102.917,61.57,104.575,62.518L104.575,62.518z"/>
			</g>
		</g>
		<g>
			<g>
				<path d="M114.463,73.383c-4.403,0.326-9.851-0.26-13.87,1.885c-1.69,0.898-0.564,3.686,1.147,2.771
					c3.74-1.993,9.009-1.376,13.121-1.682C116.789,76.213,116.388,73.24,114.463,73.383L114.463,73.383z"/>
			</g>
		</g>
		<g>
			<g>
				<path d="M112.962,42.913c4.357,9.167,7.129,19.001,9.655,28.78c0.889,3.438,2.089,7.144,5.209,9.162
					c3.548,2.295,8.149,0.109,11.369-1.641c1.68-0.915,0.555-3.697-1.148-2.771c-4.263,2.316-8.652,3.879-11.174-1.396
					c-1.787-3.733-2.291-8.146-3.338-12.129c-1.871-7.124-4.64-14.502-7.801-21.154C114.907,40.025,112.128,41.16,112.962,42.913
					L112.962,42.913z"/>
			</g>
		</g>
		<g>
			<g>
				<path d="M163.101,50.896c1.932,6.896,4.92,13.455,6.271,20.512c0.302,1.576,2.896,1.779,2.976,0.007
					c0.138-3.167-1.668-18.354,3.434-18.056c2.843,0.166,4.025,7.68,4.498,9.656c0.594,2.481,0.754,5.409,1.82,7.749
					c0.802,1.754,3.58,0.617,2.771-1.146c-2.093-4.588-1.674-20.129-9.708-19.268c-8.082,0.867-5.557,15.331-5.789,20.656
					c0.99,0.002,1.981,0.004,2.974,0.009c-1.401-7.317-4.475-14.116-6.475-21.265C165.353,47.889,162.587,49.052,163.101,50.896
					L163.101,50.896z"/>
			</g>
		</g>
		<g>
			<g>
				<path d="M202.821,47.367c-4.14-2.985-9.804-0.167-13.015,2.932c-3.711,3.583-3.742,9.087-2.527,13.799
					c0.896,3.475,3.104,7.238,7.004,7.662c5.119,0.557,8.646-5.57,10.643-9.291c0.918-1.708-1.852-2.873-2.756-1.183
					c-1.38,2.565-3.935,7.514-7.479,7.502c-2.7-0.009-4.052-3.576-4.597-5.698c-0.776-3.014-0.979-6.883,0.832-9.538
					c1.742-2.553,6.99-6.022,10.039-3.823C202.537,50.857,204.389,48.499,202.821,47.367L202.821,47.367z"/>
			</g>
		</g>
		<g>
			<g>
				<path d="M190.145,21.837c-0.368,7.668,3.666,16.095,6.335,23.072c3.321,8.692,6.972,17.312,11.014,25.696
					c0.834,1.732,3.613,0.604,2.771-1.146c-3.52-7.302-6.68-14.788-9.688-22.313c-2.925-7.313-7.85-16.809-7.46-24.899
					C193.208,20.329,190.238,19.904,190.145,21.837L190.145,21.837z"/>
			</g>
		</g>
		<g>
			<g>
				<path d="M214.107,44.764c3.912,7.713-0.52,18.033,3.425,25.806c0.868,1.714,3.647,0.584,2.771-1.146
					c-3.91-7.715,0.519-18.035-3.424-25.809C216.012,41.902,213.229,43.032,214.107,44.764L214.107,44.764z"/>
			</g>
		</g>
		<g>
			<g>
				<path d="M215.016,42.659c3.529,3.472,6.521,7.478,9.267,11.586c2.53,3.792,5.991,9.065,5.724,13.862
					c-0.105,1.918,2.863,2.342,2.973,0.408c0.281-5.016-2.439-9.696-4.907-13.87c-3.075-5.203-6.892-10.11-11.2-14.349
					C215.488,38.939,213.653,41.318,215.016,42.659L215.016,42.659z"/>
			</g>
		</g>
		<g>
			<g>
				<path d="M224.797,57.389c-3.267,1.072-6.744,1.74-9.754,3.465c-1.652,0.946-0.531,3.733,1.146,2.771
					c3.008-1.725,6.49-2.391,9.753-3.464C227.779,59.557,226.624,56.786,224.797,57.389L224.797,57.389z"/>
			</g>
		</g>
		<g>
			<g>
				<path d="M231.17,40.708c1.07,3.826,2.158,7.647,3.256,11.467c1.239,4.314,2.086,9.315,4.104,13.354
					c0.857,1.719,3.641,0.589,2.771-1.148c-1.879-3.762-2.67-8.404-3.834-12.423c-1.191-4.126-2.365-8.26-3.524-12.397
					C233.422,37.701,230.652,38.864,231.17,40.708L231.17,40.708z"/>
			</g>
		</g>
		<g>
			<g>
				<path d="M234.201,42.332c1.342-7.159,7.514-1.75,9.939,1.688c1.482,2.097,2.511,4.736,2.215,7.326
					c-0.449,3.959-5.438,4.684-8.563,4.92c-1.746,0.133-1.623,2.692-0.009,2.974c7.296,1.263,14.88,6.935,15.524,14.701
					c0.162,1.93,3.136,1.529,2.976-0.396c-0.758-9.12-9.526-15.797-18.09-17.279c-0.002,0.991-0.004,1.982-0.006,2.973
					c4.327-0.324,8.999-1.571,10.756-5.979c1.478-3.709-0.397-7.964-2.414-11.053c-4.034-6.178-13.454-10.169-15.304-0.283
					C230.877,43.827,233.846,44.227,234.201,42.332L234.201,42.332z"/>
			</g>
		</g>
	</g>
	<g>
		<g>
			<path d="M140.057,56.382c0.046-0.049,0.092-0.1,0.138-0.149c-0.462,0.188-0.923,0.373-1.384,0.561
				c-0.707-0.167,0.368,1.455,0.525,1.807c0.318,0.713,0.604,1.443,0.866,2.18c1.433,4.012,2.708,8.008,2.138,12.313
				c-0.254,1.918,2.718,2.326,2.973,0.409c0.653-4.929-0.781-9.514-2.423-14.107c-0.647-1.81-1.535-5.066-3.671-5.572
				c-0.53-0.127-1.046,0.191-1.385,0.56c-0.045,0.05-0.091,0.099-0.138,0.15C136.384,55.958,138.757,57.796,140.057,56.382
				L140.057,56.382z"/>
		</g>
	</g>
	<g>
		<g>
			<path d="M151.886,54.277c0.604-0.422,0.997-0.813,1.269-1.504c0.449-1.142-0.441-2.109-1.576-2.078
				c-3.895,0.104-9.574,1.881-12.178,4.91c-1.265,1.472,1.104,3.314,2.361,1.853c1.173-1.364,3.277-2.017,4.914-2.608
				c1.683-0.607,3.5-1.133,5.3-1.181c-0.525-0.692-1.051-1.386-1.577-2.079c0.125,0.139,0.016,0.236-0.325,0.296
				C148.484,52.996,150.302,55.382,151.886,54.277L151.886,54.277z"/>
		</g>
	</g>
	<g>
		<g>
			<path d="M148.952,61.721c-2.575-0.508-8.684-2.074-8.665,2.238c0.009,1.93,2.982,1.516,2.974-0.396
				c0.002,0.342-0.481,0.703-0.178,0.57c0.072-0.031,0.417-0.074,0.581-0.092c0.666-0.07,1.349,0.025,2.009,0.107
				c0.97,0.123,1.913,0.354,2.87,0.541C150.443,65.064,150.84,62.091,148.952,61.721L148.952,61.721z"/>
		</g>
	</g>
	<g>
		<g>
			<path d="M156.878,76.268c0.22,0.03,0.44,0.063,0.661,0.092c0.136-0.989,0.272-1.98,0.408-2.974
				c-3.116-0.407-6.264-0.644-9.399-0.819c-1.532-0.088-5.623-0.861-6.399,1.107c-0.709,1.799,2.048,2.982,2.757,1.184
				c-0.338,0.859-1.128,0.69-0.133,0.615c0.576-0.045,1.159-0.021,1.736-0.007c1.334,0.035,2.669,0.13,4.001,0.224
				c2.345,0.17,4.698,0.365,7.029,0.67c1.917,0.252,2.325-2.707,0.409-2.971c-0.22-0.031-0.439-0.062-0.661-0.093
				C155.369,73.032,154.961,76.004,156.878,76.268L156.878,76.268z"/>
		</g>
	</g>
</g>
</svg>
