<?xml version="1.0" encoding="utf-8"?>
<!-- Generator: Adobe Illustrator 16.0.0, SVG Export Plug-In . SVG Version: 6.00 Build 0)  -->
<!DOCTYPE svg PUBLIC "-//W3C//DTD SVG 1.1//EN" "http://www.w3.org/Graphics/SVG/1.1/DTD/svg11.dtd">
<svg version="1.1" id="Layer_1" xmlns="http://www.w3.org/2000/svg" xmlns:xlink="http://www.w3.org/1999/xlink" x="0px" y="0px"
	 width="200px" height="200px" viewBox="0 0 200 200" enable-background="new 0 0 200 200" xml:space="preserve">
<g>
	
		<linearGradient id="SVGID_1_" gradientUnits="userSpaceOnUse" x1="-270.5703" y1="126.3662" x2="-313.7276" y2="145.7389" gradientTransform="matrix(-1 0 0 1 -115.79 0)">
		<stop  offset="0.0181" style="stop-color:#000000"/>
		<stop  offset="0.1029" style="stop-color:#080808"/>
		<stop  offset="0.2327" style="stop-color:#1D1D1D"/>
		<stop  offset="0.3911" style="stop-color:#404040"/>
		<stop  offset="0.5723" style="stop-color:#707070"/>
		<stop  offset="0.7726" style="stop-color:#AEAEAE"/>
		<stop  offset="0.9861" style="stop-color:#F9F9F9"/>
		<stop  offset="1" style="stop-color:#FEFEFE"/>
	</linearGradient>
	<path opacity="0.2" fill-rule="evenodd" clip-rule="evenodd" fill="url(#SVGID_1_)" d="M192.55,23.459L18.541,24.324
		c0,0-0.914,87.344-17.584,152.853c119.28-1.753,133.405,0.503,176.336,3.098C199.901,158.222,192.55,23.459,192.55,23.459z"/>
	
		<linearGradient id="SVGID_2_" gradientUnits="userSpaceOnUse" x1="-206.3594" y1="45.9482" x2="-216.0235" y2="135.4889" gradientTransform="matrix(-1 0 0 1 -115.79 0)">
		<stop  offset="0.0181" style="stop-color:#FF8FCC"/>
		<stop  offset="0.1572" style="stop-color:#FF97D3"/>
		<stop  offset="0.3692" style="stop-color:#FFACE6"/>
		<stop  offset="0.4279" style="stop-color:#FFB3ED"/>
		<stop  offset="0.7043" style="stop-color:#FFBADF"/>
		<stop  offset="1" style="stop-color:#FFC4CC"/>
	</linearGradient>
	<path fill-rule="evenodd" clip-rule="evenodd" fill="url(#SVGID_2_)" d="M191.637,22.594L24.479,20c0,0-4.111,94.84-23.521,155.447
		c4.553-0.142,14.417-0.089,27.328-0.018c46.447,0.259,144.476,0.288,156.312-18.809C192.466,143.924,191.637,22.594,191.637,22.594
		z"/>
	
		<linearGradient id="SVGID_3_" gradientUnits="userSpaceOnUse" x1="-251.9023" y1="173.2354" x2="-245.9357" y2="151.8083" gradientTransform="matrix(-1 0 0 1 -115.79 0)">
		<stop  offset="0.0564" style="stop-color:#FF8FCC"/>
		<stop  offset="0.1588" style="stop-color:#FF96D4"/>
		<stop  offset="0.3148" style="stop-color:#FFAAE9"/>
		<stop  offset="0.4201" style="stop-color:#FFBBFB"/>
		<stop  offset="0.5097" style="stop-color:#FFADF2"/>
		<stop  offset="0.677" style="stop-color:#FF8ADB"/>
		<stop  offset="0.7749" style="stop-color:#FF72CC"/>
	</linearGradient>
	<path fill-rule="evenodd" clip-rule="evenodd" fill="url(#SVGID_3_)" d="M160.239,160.963c20.703,4.251,21.219-1.314,24.357-4.342
		c-14.158,22.844-67.091,18.055-101.194,18.055C109.996,171.855,143.797,178.547,160.239,160.963z"/>
</g>
<g>
	<g>
		<g>
			<path d="M81.93,54.953c0.427-4.617-3.367-4.856-6.708-3.268c-4.771,2.27-8.906,6.299-10.851,11.188
				c-2,5.026-1.011,12.243,3.67,15.516c5.438,3.803,10.921,0.415,14.446-4.207c1.174-1.539-1.434-3.03-2.591-1.514
				c-2.61,3.422-6.738,6.155-10.606,2.883c-3.408-2.882-3.264-8.043-2.027-11.882c0.955-2.959,3.173-4.921,5.506-6.811
				c1.227-0.994,2.574-1.844,3.967-2.583c1.379-0.732,2.365-1.181,2.193,0.677C78.751,56.88,81.753,56.863,81.93,54.953
				L81.93,54.953z"/>
		</g>
	</g>
	<g>
		<g>
			<path d="M86.431,49.847c1.838,4.374,1.201,9.739,0.936,14.355c-0.301,5.24-0.915,10.46-1.03,15.71
				c-0.04,1.807,2.361,1.888,2.946,0.399c2.579-6.562,2.864-14.517,7.62-20.082c1.574-1.842,3.675-1.467,4.343,0.894
				c0.697,2.461-0.111,5.504-0.638,7.904c-0.871,3.965-2.245,7.893-3.826,11.63c-0.744,1.759,1.839,3.291,2.591,1.514
				c1.968-4.651,10.613-25.29,0.291-26.149c-9.308-0.775-10.951,17.584-13.272,23.492c0.982,0.133,1.964,0.266,2.946,0.399
				c0.125-5.715,0.783-11.407,1.111-17.112c0.255-4.434,0.641-9.553-1.124-13.751C88.585,47.294,85.681,48.064,86.431,49.847
				L86.431,49.847z"/>
		</g>
	</g>
	<g>
		<g>
			<path d="M111.624,61.338c-1.315,3.277-2.152,6.807-3.096,10.203c-0.712,2.564-2.267,6.078-1.831,8.797
				c0.305,1.906,3.195,1.094,2.893-0.798c-0.318-1.987,1.622-6.464,2.246-8.687c0.815-2.904,1.555-5.913,2.681-8.717
				C115.238,60.339,112.335,59.566,111.624,61.338L111.624,61.338z"/>
		</g>
	</g>
	<g>
		<g>
			<path d="M112.047,56.806c4.014,7.819,6.173,16.08,5.449,24.899c-0.158,1.929,2.843,1.914,3,0
				c0.765-9.327-1.618-18.152-5.859-26.414C113.753,53.57,111.165,55.088,112.047,56.806L112.047,56.806z"/>
		</g>
	</g>
	<g>
		<g>
			<path d="M116.034,70.221c-2.631,0.154-5.608,0.188-8.104,1.093c-1.805,0.654-1.026,3.554,0.797,2.893
				c2.262-0.82,4.924-0.846,7.307-0.985C117.957,73.108,117.968,70.107,116.034,70.221L116.034,70.221z"/>
		</g>
	</g>
	<g>
		<g>
			<path d="M129.271,59.321c-1.342,0.048-1.07-1.522-1.03,0.072c0.023,0.927-0.082,1.863-0.164,2.785
				c-0.22,2.482-0.618,4.949-1.012,7.409c-0.619,3.858-0.902,8.56-2.461,12.184c-0.755,1.756,1.827,3.287,2.591,1.514
				c0.268-0.621,0.534-1.242,0.801-1.863c0.756-1.757-1.828-3.287-2.59-1.514c-0.268,0.621-0.534,1.242-0.802,1.862
				c0.863,0.504,1.728,1.009,2.591,1.514c1.271-2.955,6.814-27.132,2.076-26.963C127.343,56.39,127.336,59.39,129.271,59.321
				L129.271,59.321z"/>
		</g>
	</g>
	<g>
		<g>
			<path d="M130.625,61.809c1.846-5.496,8.173-6.314,9.773-0.597c0.836,2.986,0.23,6.499-0.314,9.466
				c-0.859,4.677-2.409,9.332-4.267,13.707c-0.747,1.759,1.836,3.29,2.59,1.514c3.137-7.387,6.182-16.061,5.117-24.186
				c-1.315-10.033-12.775-9.686-15.792-0.703C127.114,62.851,130.013,63.633,130.625,61.809L130.625,61.809z"/>
		</g>
	</g>
	<g>
		<g>
			<path d="M163.615,73.144c3.468-0.757,3.609-4.229,2.544-7.007c-0.686-1.787-3.587-1.012-2.893,0.798
				c0.32,0.837,0.589,1.663,0.544,2.566c-0.026,0.542-0.562,0.656-0.992,0.75C160.929,70.664,161.729,73.556,163.615,73.144
				L163.615,73.144z"/>
		</g>
	</g>
	<g>
		<g>
			<path d="M164.713,68.035c1.935,0,1.935-3,0-3S162.778,68.035,164.713,68.035L164.713,68.035z"/>
		</g>
	</g>
	<g>
		<g>
			<path d="M159.207,65.553c-9.868-8.955-23.86,14.418-16.768,22.673c4.758,5.537,11.875,0.054,15.415-3.88
				c2.831-3.146,9.187-11.004,7.25-15.76c-0.72-1.767-3.623-0.995-2.893,0.798c1.134,2.783-2.796,7.875-4.237,9.978
				c-2.27,3.314-6.858,9.152-11.524,8.017c-8.989-2.187,3.314-26.347,10.636-19.704C158.515,68.971,160.643,66.855,159.207,65.553
				L159.207,65.553z"/>
		</g>
	</g>
	<g>
		<g>
			<path d="M167.355,84.53c4.943,1.788,12.351,1.388,12.976-5.267c0.522-5.569-4.883-8.087-9.522-5.845
				c-7.684,3.711-12.467,12.359-8.179,20.35c4.47,8.331,15.292,8.689,22.146,3.415c1.511-1.163,0.02-3.771-1.514-2.591
				c-5.41,4.164-12.289,4.464-17.028-0.86c-5.11-5.741-1.071-13.085,4.312-16.744c2.624-1.783,6.937-2.394,6.821,1.903
				c-0.129,4.777-6.36,3.779-9.214,2.747C166.329,80.978,165.551,83.878,167.355,84.53L167.355,84.53z"/>
		</g>
	</g>
	<g>
		<g>
			<path d="M25.493,122.334c2.248,9.616-1.627,19.607-1.932,29.274c-0.042,1.329,1.654,1.958,2.561,1.061
				c1.002-0.992,1.573-1.804,2.165-3.103c0.796-1.746-1.789-3.272-2.591-1.514c-0.332,0.979-0.896,1.811-1.695,2.495
				c0.854,0.354,1.707,0.707,2.561,1.061c0.314-9.97,4.151-20.118,1.824-30.071C27.946,119.653,25.053,120.452,25.493,122.334
				L25.493,122.334z"/>
		</g>
	</g>
	<g>
		<g>
			<path d="M28.526,123.424c0.209-4.575,4.234-4.388,7.376-2.337c2.34,1.527,3.04,4.611,2.67,7.208
				c-0.788,5.544-5.996,9.08-11.246,6.701c-1.748-0.792-3.274,1.793-1.514,2.59c8.376,3.796,16.654-3.028,15.781-11.99
				c-0.866-8.884-15.558-13.331-16.068-2.172C25.438,125.358,28.438,125.351,28.526,123.424L28.526,123.424z"/>
		</g>
	</g>
	<g>
		<g>
			<path d="M49.635,117.709c-2.609,4.853-4.063,10.444-5.194,15.802c-0.544,2.575-2.18,8.327,1.157,9.679
				c1.794,0.727,2.566-2.176,0.798-2.893c-0.398-0.161,1.575-8.817,1.893-10.058c0.958-3.737,2.103-7.605,3.938-11.017
				C53.142,117.52,50.552,116.005,49.635,117.709L49.635,117.709z"/>
		</g>
	</g>
	<g>
		<g>
			<path d="M50.811,120.11c2.352-1.746,3.603,6.725,3.833,8.146c0.52,3.213,1.358,7.829,0.239,11.002
				c-0.646,1.829,2.254,2.608,2.893,0.797c1.44-4.084-0.52-28.446-8.479-22.535C47.762,118.66,49.255,121.266,50.811,120.11
				L50.811,120.11z"/>
		</g>
	</g>
	<g>
		<g>
			<path d="M53.85,129.717c-3.528-1.415-7.313-1.389-10.697,0.4c-1.711,0.904-0.195,3.493,1.514,2.59
				c2.707-1.431,5.611-1.21,8.385-0.098C54.85,133.33,55.622,130.428,53.85,129.717L53.85,129.717z"/>
		</g>
	</g>
	<g>
		<g>
			<path d="M74.43,123.271c1.282-3.968-3.565-4.019-6.011-2.905c-2.747,1.25-6.762,4.893-4.855,8.244
				c1.784,3.136,3.896,6.071,5.641,9.236c0.788,1.43,1.793,3.097,1.998,4.75c0.047,0.377,0.628,0.071-0.294-0.17
				c-1.367-0.356-2.651-1.229-3.845-1.95c-1.661-1.003-3.167,1.592-1.514,2.59c2.05,1.237,5.632,3.733,7.949,1.739
				c1.903-1.64-0.136-5.358-0.935-7.001c-1.517-3.12-3.456-6.038-5.319-8.958c-0.323-0.506-0.645-1.014-0.958-1.527
				c-0.594-0.975-0.45,0.605,0.005-1.088c0.379-1.409,1.855-2.354,3.045-3.004c0.45-0.219,0.918-0.388,1.404-0.504
				c0.221-0.037,0.442-0.074,0.664-0.11c0.591,0.076,0.635,0.03,0.133-0.139C70.94,124.319,73.838,125.104,74.43,123.271
				L74.43,123.271z"/>
		</g>
	</g>
	<g>
		<g>
			<path d="M86.693,126.11c1.3-0.583,1.353-0.606,2.32-1.544c0.793-0.768,0.436-2.247-0.662-2.507
				c-5.908-1.398-13.108-1.235-11.094,6.709c0.837,3.303,9.35,16.857,3.132,17.562c-1.899,0.215-1.92,3.218,0,3
				c6.918-0.784,5.67-6.942,3.655-11.839c-1.305-3.169-2.936-6.218-3.895-9.52c-1.501-5.171,4.091-3.804,7.403-3.02
				c-0.221-0.836-0.441-1.671-0.662-2.507c-0.571,0.358-1.142,0.717-1.713,1.075C83.417,124.312,84.944,126.896,86.693,126.11
				L86.693,126.11z"/>
		</g>
	</g>
	<g>
		<g>
			<path d="M89.777,124.211c-0.418,7.875,1.395,17.304,4.135,24.651c0.413,1.108,1.6,1.415,2.507,0.662
				c2.892-2.399,4.943-5.918,6.993-9.012c0.752-1.134,5.348-9.741,6.678-9.611c1.926,0.188,1.907-2.813,0-3
				c-2.661-0.26-5.122,4.813-6.265,6.523c-2.881,4.312-5.485,9.624-9.527,12.979c0.835,0.221,1.671,0.441,2.507,0.662
				c-2.669-7.159-4.433-16.209-4.027-23.854C92.88,122.276,89.879,122.287,89.777,124.211L89.777,124.211z"/>
		</g>
	</g>
	<g>
		<g>
			<path d="M99.925,129.301c0.093,6.383,1.596,12.698,5.582,17.788c0.536,0.685,1.555,0.474,2.121,0
				c6.012-5.021,7.998-13.14,10.917-20.082c0.75-1.782-2.154-2.553-2.893-0.797c-2.725,6.479-4.539,14.074-10.146,18.758
				c0.707,0,1.414,0,2.121,0c-3.463-4.421-4.623-10.165-4.703-15.667C102.896,127.368,99.896,127.365,99.925,129.301L99.925,129.301
				z"/>
		</g>
	</g>
	<g>
		<g>
			<path d="M117.831,132.953c-2.336,5.867-1.62,16.464,6.433,16.902c5.627,0.307,9.167-3.666,8.992-9.11
				c-0.129-4.03-1.99-9.334-5.616-11.525c-5.372-3.246-6.686,5.928-6.893,9.038c-0.129,1.933,2.872,1.92,3,0
				c0.076-1.14,0.394-8.212,2.893-6.088c2.226,1.893,3.341,5.392,3.594,8.199c0.315,3.51-1.237,6.224-4.949,6.481
				c-6.625,0.461-6.256-8.841-4.561-13.101C121.439,131.951,118.537,131.178,117.831,132.953L117.831,132.953z"/>
		</g>
	</g>
	<g>
		<g>
			<path d="M135.058,129.843c5.105,6.739,4.542,17.685,2.876,25.548c0.914-0.12,1.827-0.239,2.741-0.358
				c-0.41-0.856-0.493-1.947-0.631-2.881c-0.281-1.908-3.172-1.095-2.893,0.797c0.266,1.802,0.182,2.032,0.934,3.598
				c0.556,1.159,2.481,0.87,2.741-0.358c1.82-8.59,2.426-20.462-3.179-27.858C136.495,126.808,133.888,128.3,135.058,129.843
				L135.058,129.843z"/>
		</g>
	</g>
	<g>
		<g>
			<path d="M137.443,133.687c1.215-3.722,4.213-1.07,5.53,1.118c2.47,4.105,0.306,8.309-3.375,10.675
				c-1.181,0.758-0.82,2.252,0.358,2.741c4.317,1.795,8.806,3.125,13.123,4.919c1.786,0.742,2.557-2.161,0.797-2.893
				c-4.317-1.795-8.806-3.124-13.123-4.919c0.12,0.914,0.239,1.827,0.358,2.741c5.607-3.604,7.758-10.014,3.815-15.77
				c-2.974-4.341-8.568-4.955-10.377,0.59C133.949,134.733,136.846,135.518,137.443,133.687L137.443,133.687z"/>
		</g>
	</g>
	<g>
		<g>
			<path d="M167.47,132.146c-2.944-0.745-6.166-0.624-8.35,1.741c-1.901,2.061-2.195,5.021-1.831,7.676
				c0.323,2.358,1.581,4.81,3.678,6.04c2.651,1.555,5.556-0.008,7.501-1.92c1.382-1.357-0.741-3.478-2.121-2.121
				c-1.076,1.057-2.55,2.223-4.06,1.336c-1.354-0.794-1.869-2.706-2.105-4.133c-0.265-1.592,0.065-3.317,0.969-4.649
				c1.205-1.773,3.741-1.527,5.522-1.077C168.549,135.513,169.345,132.62,167.47,132.146L167.47,132.146z"/>
		</g>
	</g>
	<g>
		<g>
			<path d="M167.352,112.586c-0.364,13.968,5.609,27.743,1.573,41.621c-0.542,1.861,2.354,2.651,2.893,0.797
				c4.132-14.205-1.838-28.143-1.466-42.418C170.402,110.65,167.402,110.655,167.352,112.586L167.352,112.586z"/>
		</g>
	</g>
	<g>
		<g>
			<path d="M150.43,90.735c4.462,7.595,4.003,23.814-4.33,28.606c-8.346,4.8-18.949-10.981-7.74-12.791
				c1.906-0.308,1.095-3.198-0.797-2.893c-13.556,2.188-5.277,18.865,4.932,19.529c15.213,0.988,15.721-25.124,10.525-33.966
				C152.041,87.555,149.447,89.064,150.43,90.735L150.43,90.735z"/>
		</g>
	</g>
</g>
</svg>
