<?xml version="1.0" encoding="utf-8"?>
<!-- Generator: Adobe Illustrator 16.0.0, SVG Export Plug-In . SVG Version: 6.00 Build 0)  -->
<!DOCTYPE svg PUBLIC "-//W3C//DTD SVG 1.1//EN" "http://www.w3.org/Graphics/SVG/1.1/DTD/svg11.dtd">
<svg version="1.1" id="Layer_1" xmlns="http://www.w3.org/2000/svg" xmlns:xlink="http://www.w3.org/1999/xlink" x="0px" y="0px"
	 width="200px" height="200px" viewBox="0 0 200 200" enable-background="new 0 0 200 200" xml:space="preserve">
<g>
	
		<linearGradient id="SVGID_1_" gradientUnits="userSpaceOnUse" x1="-19.3579" y1="214.2344" x2="-53.8315" y2="287.4583" gradientTransform="matrix(0.4441 -0.6967 0.7849 0.5003 -18.9559 30.3039)">
		<stop  offset="0.0181" style="stop-color:#000000"/>
		<stop  offset="0.1029" style="stop-color:#080808"/>
		<stop  offset="0.2327" style="stop-color:#1D1D1D"/>
		<stop  offset="0.3911" style="stop-color:#404040"/>
		<stop  offset="0.5723" style="stop-color:#707070"/>
		<stop  offset="0.7726" style="stop-color:#AEAEAE"/>
		<stop  offset="0.9861" style="stop-color:#F9F9F9"/>
		<stop  offset="1" style="stop-color:#FEFEFE"/>
	</linearGradient>
	<path opacity="0.2" fill-rule="evenodd" clip-rule="evenodd" fill="url(#SVGID_1_)" d="M5.112,119.837l73.26-119.41
		c0,0,68.274,48.36,121.662,72.27c-29.692,81.874-46.429,104.174-68.577,127.989C104.821,204.542,5.112,119.837,5.112,119.837z"/>
	
		<linearGradient id="SVGID_2_" gradientUnits="userSpaceOnUse" x1="76.3672" y1="119.0244" x2="-71.8978" y2="185.7967" gradientTransform="matrix(0.4441 -0.6967 0.7849 0.5003 -18.9559 30.3039)">
		<stop  offset="0.0181" style="stop-color:#E9CA00"/>
		<stop  offset="0.1199" style="stop-color:#EDD207"/>
		<stop  offset="0.275" style="stop-color:#F8E71A"/>
		<stop  offset="0.318" style="stop-color:#FCEE21"/>
		<stop  offset="0.6475" style="stop-color:#FDF513"/>
		<stop  offset="1" style="stop-color:#FFFF00"/>
	</linearGradient>
	<path fill-rule="evenodd" clip-rule="evenodd" fill="url(#SVGID_2_)" d="M5.112,119.837L78.181,0.727
		c82.945,57.306,116.959,71.195,121.769,71.921c-2.011,2.914-6.09,9.404-11.425,17.9c-19.197,30.566-65.594,95.882-78.781,94.631
		C96.553,183.929,5.112,119.837,5.112,119.837z"/>
	
		<linearGradient id="SVGID_3_" gradientUnits="userSpaceOnUse" x1="10.4185" y1="223.6152" x2="24.4804" y2="173.1172" gradientTransform="matrix(0.4441 -0.6967 0.7849 0.5003 -18.9559 30.3039)">
		<stop  offset="0.0564" style="stop-color:#D8CA00"/>
		<stop  offset="0.1588" style="stop-color:#DDD108"/>
		<stop  offset="0.3148" style="stop-color:#EBE51D"/>
		<stop  offset="0.4201" style="stop-color:#F7F62F"/>
		<stop  offset="0.5097" style="stop-color:#EDE826"/>
		<stop  offset="0.677" style="stop-color:#D3C50F"/>
		<stop  offset="0.7749" style="stop-color:#C1AD00"/>
	</linearGradient>
	<path fill-rule="evenodd" clip-rule="evenodd" fill="url(#SVGID_3_)" d="M105.19,150.786c16.388,12.97,15.628,29.196,5.241,34.401
		c23.726,2.076,75.359-90.143,89.603-112.491c-0.734-2.637-4.351-2.987-4.351-2.987S120.326,148.366,105.19,150.786z"/>
</g>
<g>
	<g>
		<g>
			<path d="M44.189,89.265c8.541,4.758,23.263-10.041,15.685-17.577c-6.355-6.32-14.388-2.16-16.609,5.319
				c-2.157,7.263-1.108,17.514,3.686,23.586c6.359,8.057,14.506,0.505,18.762-5.568c1.113-1.588-1.49-3.085-2.591-1.514
				c-2.869,4.095-8.521,10.96-13.467,5.669c-3.776-4.04-4.483-11.02-4.289-16.255c0.166-4.455,1.658-11.453,7.321-11.3
				c12.353,0.333,1.647,19.857-6.984,15.048C44.012,85.731,42.5,88.323,44.189,89.265L44.189,89.265z"/>
		</g>
	</g>
	<g>
		<g>
			<path d="M78.463,75.543c-1.292-4.721-5.123-3.774-7.733-0.662c-3.043,3.629-5.189,8.338-3.833,13.047
				c1.356,4.707,5.523,8.992,10.157,10.505c5.063,1.653,7.81-2.613,8.335-7.029c0.228-1.918-2.774-1.896-3,0
				c-1.077,9.054-9.87,1.333-12.041-2.872c-1.488-2.882-0.969-5.396,0.396-8.163c0.67-1.355,1.504-2.649,2.475-3.807
				c1.037-1.237,1.826-2.141,2.351-0.223C76.081,78.205,78.975,77.413,78.463,75.543L78.463,75.543z"/>
		</g>
	</g>
	<g>
		<g>
			<path d="M72.285,55.509c6.577,13.514,9.016,29.068,17.181,41.807c1.041,1.623,3.638,0.12,2.591-1.514
				c-8.154-12.721-10.606-28.297-17.181-41.807C74.029,52.256,71.442,53.778,72.285,55.509L72.285,55.509z"/>
		</g>
	</g>
	<g>
		<g>
			<path d="M89.701,68.985c3.181,2.979,4.167,9.009,5.548,12.988c0.52,1.497,2.55,7.291,4.826,3.889
				c1.079-1.613-1.521-3.113-2.591-1.514c1.671,0.403,2.251,0.252,1.739-0.454c-0.122-0.232-0.234-0.469-0.335-0.71
				c-0.276-0.658-0.508-1.336-0.746-2.009c-0.687-1.94-1.319-3.9-2.005-5.841c-1.004-2.839-2.05-6.35-4.314-8.47
				C90.412,65.543,88.286,67.66,89.701,68.985L89.701,68.985z"/>
		</g>
	</g>
	<g>
		<g>
			<path d="M88.471,61.979c0.191,0,0.382,0,0.573,0c1.935,0,1.935-3,0-3c-0.191,0-0.382,0-0.573,0
				C86.536,58.979,86.536,61.979,88.471,61.979L88.471,61.979z"/>
		</g>
	</g>
	<g>
		<g>
			<path d="M105.352,51.715c2.17,8.553,1.789,18.82,7.052,26.282c4.599,6.521,14.693,2.212,15.365-4.918c0.182-1.926-2.82-1.909-3,0
				c-0.484,5.144-7.401,6.77-10.274,2.696c-1.778-2.521-2.48-5.885-3.189-8.833c-1.272-5.291-1.723-10.751-3.061-16.024
				C107.769,49.043,104.875,49.839,105.352,51.715L105.352,51.715z"/>
		</g>
	</g>
	<g>
		<g>
			<path d="M113.496,60.78c1.319-0.473,2.689-0.672,4.009-1.145c0.636-0.228,1.102-0.741,1.102-1.446c0-0.191,0-0.382,0-0.573
				c0-1.007-0.954-1.663-1.898-1.446c-4.75,1.085-9.438,2.489-14.044,4.072c-2.449,0.841-7.393,1.992-8.617,4.635
				c-0.807,1.743,1.778,3.268,2.591,1.514c1.081-2.335,7.532-3.514,9.749-4.232c3.655-1.185,7.372-2.239,11.118-3.096
				c-0.633-0.482-1.266-0.964-1.898-1.446c0,0.191,0,0.382,0,0.573c0.367-0.482,0.734-0.964,1.102-1.446
				c-1.319,0.473-2.689,0.672-4.009,1.145C110.892,58.536,111.671,61.435,113.496,60.78L113.496,60.78z"/>
		</g>
	</g>
	<g>
		<g>
			<path d="M50.25,142.56c4.875-6.438,1.563-15.223,1.351-22.52c-0.854,0.354-1.707,0.707-2.561,1.061
				c4.462,5.219,8.292,11.053,12.29,16.626c2.034,2.836,4.063,5.675,6.126,8.489c0.837,1.144,1.801,3.017,3.077,3.754
				c1.678,0.971,3.188-1.622,1.515-2.59c-0.604-0.35-2.21-2.963-2.928-3.946c-2.181-2.992-4.329-6.008-6.487-9.016
				c-3.723-5.188-7.316-10.579-11.471-15.438c-0.859-1.005-2.597-0.189-2.561,1.061c0.192,6.646,3.471,15.178-0.942,21.006
				C46.49,142.589,49.098,144.081,50.25,142.56L50.25,142.56z"/>
		</g>
	</g>
	<g>
		<g>
			<path d="M59.836,139.866c0.01,0.001,0.021,0.002,0.031,0.003c-0.482-0.633-0.964-1.267-1.446-1.899
				c0,0.003-0.001,0.006-0.002,0.008c0.349-0.349,0.698-0.698,1.047-1.048c-2.496,0.949-5.36,0.743-7.832,1.859
				c-1.761,0.795-0.234,3.38,1.514,2.59c-0.314,0.143,0.352-0.097,0.416-0.115c0.404-0.117,0.815-0.211,1.225-0.306
				c0.98-0.229,1.968-0.422,2.956-0.617c1.076-0.213,3.228-0.229,3.57-1.573c0.256-1.005-0.473-1.816-1.446-1.898
				c-0.01-0.001-0.021-0.002-0.031-0.003C57.907,136.702,57.923,139.704,59.836,139.866L59.836,139.866z"/>
		</g>
	</g>
	<g>
		<g>
			<path d="M75.449,126.156c-2.831-4.34-6.834-2.768-8.792,1.449c-1.835,3.952-0.682,8.437,1.852,11.761
				c4.713,6.184,14.665,8.041,16.827-1.174c0.442-1.882-2.451-2.681-2.893-0.797c-1.286,5.479-6.029,5.081-9.764,2.026
				c-1.654-1.353-2.891-3.166-3.568-5.184c-0.42-1.25-0.421-2.615-0.206-3.904c0.221-1.322,1.945-5.741,3.953-2.664
				C73.911,129.283,76.509,127.781,75.449,126.156L75.449,126.156z"/>
		</g>
	</g>
	<g>
		<g>
			<path d="M88.826,118.895c0.182-4.834-3.947-4.105-6.523-1.528c-3.679,3.68-5.003,9.211-2.718,13.952
				c2.071,4.296,5.882,7.435,10.656,8.069c5.071,0.675,8.287-3.722,9.414-8.068c0.486-1.874-2.408-2.669-2.893-0.797
				c-1.77,6.826-7.809,7.266-12.398,2.615c-2.285-2.315-3.481-5.746-2.682-8.916c0.385-1.526,1.298-2.975,2.266-4.196
				c0.63-0.796,1.939-2.709,1.879-1.131C85.753,120.83,88.753,120.823,88.826,118.895L88.826,118.895z"/>
		</g>
	</g>
	<g>
		<g>
			<path d="M103.09,111.052c-1.065-2.654-3.47-4.945-5.909-2.143c-2.583,2.967-2.792,7.989-2.266,11.654
				c0.824,5.742,8.237,11.979,13.661,7.692c8.044-6.359,8.252-29.429-6.187-25.125c-1.85,0.551-1.062,3.446,0.797,2.893
				c9.694-2.89,8.608,10.968,6.101,16.39c-1.492,3.225-4.112,5.573-7.5,3.306c-2.701-1.808-4.026-4.699-4.123-7.861
				c-0.05-1.641,0.275-3.261,0.735-4.826c0.387-1.315,0.958-3.273,1.798-1.183C100.909,113.621,103.812,112.849,103.09,111.052
				L103.09,111.052z"/>
		</g>
	</g>
	<g>
		<g>
			<path d="M112.742,100.568c-0.545,5.501,3.045,11.391,7.409,14.499c1.593,1.134,3.867,1.799,5.608,0.611
				c2.505-1.708,2.256-5.636,2.009-8.238c-0.181-1.908-3.183-1.926-3,0c0.13,1.372,0.71,4.808-0.724,5.785
				c-0.915,0.624-2.648-0.921-3.244-1.44c-3.058-2.664-5.468-7.088-5.059-11.217C115.933,98.644,112.931,98.662,112.742,100.568
				L112.742,100.568z"/>
		</g>
	</g>
	<g>
		<g>
			<path d="M118.336,94.757c5.765,4.576,7.742,13.229,11.793,19.168c1.083,1.588,3.684,0.089,2.59-1.514
				c-4.209-6.171-6.252-15.005-12.262-19.775C118.959,91.446,116.821,93.554,118.336,94.757L118.336,94.757z"/>
		</g>
	</g>
	<g>
		<g>
			<path d="M125.208,90.748c5.217,4.693,7.257,12.089,12.027,17.18c1.325,1.414,3.442-0.711,2.121-2.121
				c-4.769-5.089-6.786-12.465-12.027-17.18C125.896,87.336,123.767,89.451,125.208,90.748L125.208,90.748z"/>
		</g>
	</g>
	<g>
		<g>
			<path d="M131.151,95.015c-0.585-2.863-0.455-7.745,3.419-7.958c2.11-0.116,4.024,2.178,5.256,3.593
				c3.052,3.509,5.371,8.19,6.76,12.608c0.578,1.839,3.475,1.054,2.893-0.797c-1.956-6.224-5.523-13.178-10.92-17.054
				c-2.274-1.633-5.083-1.738-7.422-0.242c-3.539,2.263-3.63,6.969-2.878,10.648C128.646,97.708,131.537,96.904,131.151,95.015
				L131.151,95.015z"/>
		</g>
	</g>
	<g>
		<g>
			<path d="M136.429,62.954c4.344,8.979,6.603,20.286,14.491,27.031c1.841,1.574,4.086,2.875,6.564,2.41
				c3.267-0.613,3.085-5.539,2.929-7.863c-0.129-1.919-3.13-1.932-3,0c0.208,3.098,0.085,6.195-3.469,3.991
				c-1.844-1.143-3.433-2.958-4.617-4.749c-4.553-6.88-6.739-14.958-10.309-22.335C138.177,59.699,135.59,61.221,136.429,62.954
				L136.429,62.954z"/>
		</g>
	</g>
	<g>
		<g>
			<path d="M143.635,73.229c1.066-0.8,2.043-1.096,2.828-2.256c0.773-1.143-0.492-2.5-1.693-2.204
				c-4.923,1.211-12.104,2.438-13.074,8.492c-0.303,1.892,2.588,2.704,2.893,0.798c0.762-4.756,7.157-5.457,10.979-6.397
				c-0.564-0.734-1.129-1.469-1.693-2.204c-0.401,0.593-1.203,0.769-1.752,1.18C140.594,71.785,142.086,74.391,143.635,73.229
				L143.635,73.229z"/>
		</g>
	</g>
</g>
</svg>
