<?xml version="1.0" encoding="utf-8"?>
<!-- Generator: Adobe Illustrator 16.0.0, SVG Export Plug-In . SVG Version: 6.00 Build 0)  -->
<!DOCTYPE svg PUBLIC "-//W3C//DTD SVG 1.1//EN" "http://www.w3.org/Graphics/SVG/1.1/DTD/svg11.dtd">
<svg version="1.1" id="Layer_1" xmlns="http://www.w3.org/2000/svg" xmlns:xlink="http://www.w3.org/1999/xlink" x="0px" y="0px"
	 width="220px" height="140px" viewBox="0 0 220 140" enable-background="new 0 0 220 140" xml:space="preserve">
<g>
	<g>
		
			<linearGradient id="SVGID_1_" gradientUnits="userSpaceOnUse" x1="216.7744" y1="-268.7334" x2="184.581" y2="-283.1845" gradientTransform="matrix(1 0 0 -1 -197.6602 -179.96)">
			<stop  offset="0.0181" style="stop-color:#000000"/>
			<stop  offset="0.1029" style="stop-color:#080808"/>
			<stop  offset="0.2327" style="stop-color:#1D1D1D"/>
			<stop  offset="0.3911" style="stop-color:#404040"/>
			<stop  offset="0.5723" style="stop-color:#707070"/>
			<stop  offset="0.7726" style="stop-color:#AEAEAE"/>
			<stop  offset="0.9861" style="stop-color:#F9F9F9"/>
			<stop  offset="1" style="stop-color:#FEFEFE"/>
		</linearGradient>
		<path opacity="0.2" fill="url(#SVGID_1_)" enable-background="new    " d="M0.019,13.494h123.269c0,0-7.452,63.584,3.881,110.625
			c-68.465,0.127-98.381-1.033-121.871,8.418C-7.744,115.77,0.019,13.494,0.019,13.494z"/>
		
			<linearGradient id="SVGID_2_" gradientUnits="userSpaceOnUse" x1="265.5195" y1="-211.499" x2="258.5098" y2="-276.4466" gradientTransform="matrix(1 0 0 -1 -197.6602 -179.96)">
			<stop  offset="0.0181" style="stop-color:#FFCA78"/>
			<stop  offset="0.1572" style="stop-color:#FFD27F"/>
			<stop  offset="0.3692" style="stop-color:#FFE792"/>
			<stop  offset="0.4279" style="stop-color:#FFEE99"/>
			<stop  offset="0.7043" style="stop-color:#FFF58B"/>
			<stop  offset="1" style="stop-color:#FFFF78"/>
		</linearGradient>
		<path fill="url(#SVGID_2_)" d="M0.64,13.494h122.336c0,0-12.108,63.584,4.191,109.383c-13.443,1.279-104.766,2.193-122.154-4.535
			C-2.879,100.021,0.64,13.494,0.64,13.494z"/>
	</g>
	
		<linearGradient id="SVGID_3_" gradientUnits="userSpaceOnUse" x1="-710.4902" y1="750.2852" x2="-744.0167" y2="765.3347" gradientTransform="matrix(-1 0 0 1 -510.1104 -650.9199)">
		<stop  offset="0.0181" style="stop-color:#000000"/>
		<stop  offset="0.1029" style="stop-color:#080808"/>
		<stop  offset="0.2327" style="stop-color:#1D1D1D"/>
		<stop  offset="0.3911" style="stop-color:#404040"/>
		<stop  offset="0.5723" style="stop-color:#707070"/>
		<stop  offset="0.7726" style="stop-color:#AEAEAE"/>
		<stop  offset="0.9861" style="stop-color:#F9F9F9"/>
		<stop  offset="1" style="stop-color:#FEFEFE"/>
	</linearGradient>
	<path opacity="0.2" fill="url(#SVGID_3_)" enable-background="new    " d="M221.084,19.629L94.45,20.303
		c0,0,5.79,66.688-6.342,117.695c83.375,3.309,67.083,4.182,128.96,7.773C225.589,120.182,221.084,19.629,221.084,19.629z"/>
	
		<linearGradient id="SVGID_4_" gradientUnits="userSpaceOnUse" x1="-629.8174" y1="665.4766" x2="-700.6649" y2="796.5293" gradientTransform="matrix(-1 0 0 1 -510.1104 -650.9199)">
		<stop  offset="0.0181" style="stop-color:#76C000"/>
		<stop  offset="0.0786" style="stop-color:#7AC800"/>
		<stop  offset="0.1707" style="stop-color:#85DD00"/>
		<stop  offset="0.1963" style="stop-color:#89E400"/>
		<stop  offset="0.8634" style="stop-color:#8BF200"/>
		<stop  offset="1" style="stop-color:#8CF500"/>
	</linearGradient>
	<path fill="url(#SVGID_4_)" d="M220.42,18.956c0,0-83.563-10.1-125.97,1.346c-5.762,31.872-8.576,62.396-6.342,117.694
		c3.314-0.107,4.038-0.096,13.434-0.039c33.801,0.199,105.142,0.225,113.754-14.645C221.021,113.426,220.42,18.956,220.42,18.956z"
		/>
	
		<linearGradient id="SVGID_5_" gradientUnits="userSpaceOnUse" x1="-689.9897" y1="786.3076" x2="-684.6883" y2="767.2698" gradientTransform="matrix(-1 0 0 1 -510.1104 -650.9199)">
		<stop  offset="0.0564" style="stop-color:#65C000"/>
		<stop  offset="0.1636" style="stop-color:#6AC800"/>
		<stop  offset="0.327" style="stop-color:#79DD00"/>
		<stop  offset="0.4201" style="stop-color:#84EC00"/>
		<stop  offset="0.5097" style="stop-color:#7ADE00"/>
		<stop  offset="0.677" style="stop-color:#60BB00"/>
		<stop  offset="0.7749" style="stop-color:#4EA300"/>
	</linearGradient>
	<path fill="url(#SVGID_5_)" d="M192.251,120.182c15.067,3.311,20.763,5.486,23.045,3.131
		c-10.305,17.787-48.825,14.059-73.644,14.059C161.006,135.176,180.285,133.873,192.251,120.182z"/>
</g>
<g>
	<g>
		<g>
			<path d="M11.297,29.86c-4.605,4.707-2.637,13.56-1.197,19.188c1.057,4.13,3.274,7.366,5.419,10.979
				c3.037,5.111,5.931,10.328,8.322,15.777c1.081,2.461,5.345,11.854-0.419,11.004c-1.892-0.279-2.706,2.611-0.798,2.893
				c12.338,1.822,3.929-15.445,1.476-20.362c-2.605-5.22-5.613-10.229-8.633-15.218c-3.076-5.076-6.793-17.287-2.05-22.136
				C14.772,30.598,12.652,28.475,11.297,29.86L11.297,29.86z"/>
		</g>
	</g>
	<g>
		<g>
			<path d="M8.269,34.883c9.737,5.917,12.809,19.313,21.696,26.432c0.757,0.607,2.335,0.584,2.507-0.662
				c1.211-8.783,0.765-17.563,0.721-26.398c-0.982,0.133-1.964,0.266-2.946,0.399c1.229,6.378,5.258,11.741,8.753,17.06
				c2.254,3.431,4.366,6.941,5.811,10.799c0.667,1.783,1.023,3.65,1.199,5.54c0.088,0.953-0.388,6.164-0.33,6.151
				c0.633,0.479,1.266,0.964,1.899,1.445c0.076-0.557,0.152-1.108,0.228-1.664c0.258-1.893-2.632-2.707-2.893-0.799
				c-0.113,0.826-0.289,1.631-0.335,2.463c-0.057,1.019,0.996,1.646,1.899,1.444c2.57-0.569,2.483-5.771,2.565-7.819
				c0.159-3.955-1.301-7.834-2.933-11.354c-3.808-8.216-11.216-14.959-12.971-24.064c-0.326-1.692-2.955-1.26-2.946,0.399
				c0.042,8.547,0.559,17.102-0.613,25.602c0.835-0.222,1.671-0.441,2.507-0.662C22.97,51.89,19.872,38.422,9.783,32.291
				C8.124,31.284,6.618,33.88,8.269,34.883L8.269,34.883z"/>
		</g>
	</g>
	<g>
		<g>
			<path d="M48.191,45.587c-0.168,4.198,2.931,9.264,6.876,10.864c5.531,2.242,7.141-4.01,7.457-8.197
				c-0.982,0.133-1.964,0.266-2.946,0.398c1.361,6.648,11.044,42.668-1.887,41.435c-1.926-0.185-1.908,2.817,0,3
				c17.414,1.659,6.466-36.997,4.779-45.231c-0.359-1.754-2.826-1.199-2.946,0.398c-0.291,3.854-1.645,7.456-5.376,3.914
				c-1.735-1.646-3.054-4.164-2.957-6.581C51.27,43.652,48.27,43.658,48.191,45.587L48.191,45.587z"/>
		</g>
	</g>
	<g>
		<g>
			<path d="M72.063,70.344c4.99,9.338,8.232,20.542,9.85,30.975c0.258,1.666,3.162,1.274,2.945-0.396
				c-0.174-1.343-0.494-2.665-0.667-4c-0.245-1.894-3.248-1.915-3,0c0.175,1.341,0.494,2.665,0.667,4
				c0.982-0.136,1.964-0.269,2.946-0.396c-1.658-10.705-5.028-22.104-10.151-31.691C73.742,67.123,71.151,68.639,72.063,70.344
				L72.063,70.344z"/>
		</g>
	</g>
	<g>
		<g>
			<path d="M88.024,67.087c1.297-0.015,2.369-0.075,3.423-0.871c1.395-1.054,0.557-2.985-1.154-2.742
				c-4.748,0.677-14.871,1.188-16.381,7.048c-0.481,1.875,2.41,2.668,2.895,0.797c0.587-2.275,4.265-2.979,6.189-3.492
				c2.648-0.703,5.385-1.071,8.094-1.457c-0.385-0.914-0.771-1.828-1.153-2.742c-0.58,0.416-1.216,0.57-1.91,0.462
				C86.092,64.109,86.09,67.109,88.024,67.087L88.024,67.087z"/>
		</g>
	</g>
	<g>
		<g>
			<path d="M84.783,84.215c0.354-0.178,0.707-0.354,1.063-0.523c0.56-0.271,0.056-0.055-0.265-0.013
				c-0.433-0.247-0.863-0.495-1.295-0.743c0,0.002,0.002,0.004,0.002,0.004c0.08-0.604,0.156-1.212,0.234-1.814
				c0.301-0.354,0.254-0.189,0.004-0.04c-0.25,0.147-0.503,0.293-0.756,0.438c-0.764,0.437-1.527,0.863-2.293,1.299
				c-1.266,0.717-2.771,1.375-3.85,2.375c-1.422,1.315,0.705,3.435,2.121,2.121c-0.293,0.271-0.088,0.063,0.152-0.095
				c0.284-0.187,0.576-0.356,0.867-0.53c0.786-0.47,1.583-0.918,2.379-1.371c0.75-0.424,1.501-0.848,2.25-1.272
				c0.385-0.222,0.95-0.457,1.244-0.804c0.436-0.51,0.607-1.211,0.234-1.815c0-0.002,0-0.003-0.002-0.004
				c-0.25-0.407-0.782-0.812-1.295-0.743c-0.824,0.109-1.578,0.578-2.314,0.946C81.537,82.488,83.057,85.076,84.783,84.215
				L84.783,84.215z"/>
		</g>
	</g>
	<g>
		<g>
			<path d="M93.631,78.648c1.714,1.719,0.367,9.397,0.264,11.574c-0.171,3.566-0.596,7.13-0.703,10.697c-0.059,1.936,2.941,1.93,3,0
				c0.127-4.213,0.611-8.422,0.791-12.637c0.129-3.002,1.201-9.317-1.23-11.758C94.385,75.154,92.264,77.277,93.631,78.648
				L93.631,78.648z"/>
		</g>
	</g>
	<g>
		<g>
			<path d="M93.627,79.033c7.174,1.729,10.063,12.602,10.951,18.951c0.268,1.907,3.154,1.094,2.894-0.799
				c-1.042-7.467-4.683-19.031-13.048-21.048C92.543,75.688,91.746,78.58,93.627,79.033L93.627,79.033z"/>
		</g>
	</g>
	<g>
		<g>
			<path d="M102.959,87.474c-3.281,1.269-6.719,2.065-10,3.334c-1.785,0.688-1.01,3.593,0.797,2.894c3.283-1.27,6.72-2.063,10-3.334
				C105.541,89.677,104.767,86.775,102.959,87.474L102.959,87.474z"/>
		</g>
	</g>
	<g>
		<g>
			<path d="M107.858,72.254c0.153,2.943,1.046,5.959,1.652,8.83c0.538,2.553,0.807,5.546,1.878,7.945
				c0.583,1.308,2.347,0.719,2.742-0.357c0.002-0.006,0.005-0.014,0.007-0.02c0.669-1.82-2.231-2.601-2.894-0.797
				c-0.002,0.006-0.004,0.012-0.009,0.02c0.913-0.12,1.827-0.239,2.741-0.358c-0.546-1.223-1.143-5.184-1.576-7.229
				c-0.553-2.6-1.404-5.368-1.545-8.03C110.758,70.328,107.758,70.32,107.858,72.254L107.858,72.254z"/>
		</g>
	</g>
	<g>
		<g>
			<path d="M108.025,73.087c4.631,0.536,5.857,5.815,9.893,6.827c5.125,1.283,7.181-8.104,8.223-11.262c-0.967,0-1.932,0-2.895,0
				c0.588,3.732,1.575,7.407,2.604,11.043c0.522,1.85,0.997,5.33,2.751,6.52c1.605,1.09,3.104-1.512,1.514-2.59
				c0.582,0.394-0.396-1.553-0.584-2.126c-0.494-1.501-0.912-3.027-1.332-4.552c-0.822-2.992-1.578-6.024-2.062-9.092
				c-0.248-1.578-2.472-1.281-2.894,0c-0.955,2.893-1.809,6.223-3.72,8.67c-0.963,1.229-2.104-0.563-2.821-1.313
				c-2.494-2.615-4.976-4.698-8.681-5.127C106.105,69.863,106.127,72.867,108.025,73.087L108.025,73.087z"/>
		</g>
	</g>
	<g>
		<g>
			<path d="M133.191,60.254c0.249,5.898,1.751,11.917,2.721,17.73c0.146,0.881,1.105,1.147,1.846,1.049
				c2.037-0.28,1.902-1.795,1.771-3.446c-0.153-1.914-3.155-1.931-3,0c0.128,1.573-0.112,0.629,0.437,0.554
				c0.615,0.35,1.229,0.698,1.846,1.049c-0.926-5.552-2.376-11.307-2.613-16.936C136.11,58.326,133.109,58.318,133.191,60.254
				L133.191,60.254z"/>
		</g>
	</g>
	<g>
		<g>
			<path d="M139.858,36.921c0.199,12.757,3.843,25.216,4,38c0.013,0.932,0.957,1.764,1.897,1.446
				c2.959-0.996,6.137-1.438,9.203-0.666c1.877,0.471,2.674-2.422,0.797-2.896c-3.572-0.896-7.336-0.498-10.797,0.666
				c0.634,0.479,1.267,0.964,1.896,1.446c-0.154-12.784-3.801-25.244-4-38C142.828,34.988,139.828,34.985,139.858,36.921
				L139.858,36.921z"/>
		</g>
	</g>
	<g>
		<g>
			<path d="M160.418,49.193c-0.951-0.758-3.586-1.377-3.307,0.787c0.246,1.895,1.725,3.67,2.756,5.206
				c1.803,2.69,3.74,5.292,5.744,7.835c1.141,1.446,2.566,3.736,4.32,4.528c1.748,0.789,3.273-1.796,1.515-2.591
				c-2.509-1.133-4.772-5.393-6.325-7.506c-1.213-1.649-2.387-3.332-3.502-5.047c-0.375-0.578-0.736-1.166-1.082-1.764
				c-0.147-0.255-0.283-0.518-0.412-0.783c-0.357-0.724-2.516,0.908-1.828,1.455C159.795,52.506,161.933,50.398,160.418,49.193
				L160.418,49.193z"/>
		</g>
	</g>
	<g>
		<g>
			<path d="M169.246,50.521c-1.639,8.707-2.836,17.481-4.084,26.25c-0.619,4.354-1.279,8.697-2.011,13.031
				c-0.31,1.838-0.657,3.669-1.008,5.5c-0.11,0.578-0.959,6.357-1.042,6.396c0.684,0.684,1.368,1.367,2.052,2.052
				c0.321-0.289,0.642-0.578,0.962-0.868c1.719-0.891,0.201-3.479-1.514-2.59c-0.906,0.469-1.469,1.107-2.038,1.943
				c-0.94,1.383,0.82,2.592,2.052,2.053c1.993-0.873,2.053-6.354,2.422-8.188c0.983-4.899,1.739-9.846,2.479-14.786
				c1.488-10.01,2.755-20.046,4.625-29.994C172.494,49.429,169.603,48.621,169.246,50.521L169.246,50.521z"/>
		</g>
	</g>
</g>
</svg>
