<?xml version="1.0" encoding="utf-8"?>
<!-- Generator: Adobe Illustrator 16.0.0, SVG Export Plug-In . SVG Version: 6.00 Build 0)  -->
<!DOCTYPE svg PUBLIC "-//W3C//DTD SVG 1.1//EN" "http://www.w3.org/Graphics/SVG/1.1/DTD/svg11.dtd">
<svg version="1.1" id="Layer_1" xmlns="http://www.w3.org/2000/svg" xmlns:xlink="http://www.w3.org/1999/xlink" x="0px" y="0px"
	 width="120px" height="120px" viewBox="0 0 120 120" enable-background="new 0 0 120 120" xml:space="preserve">
<g>
	
		<linearGradient id="SVGID_1_" gradientUnits="userSpaceOnUse" x1="376.2881" y1="809.0674" x2="356.8528" y2="850.3491" gradientTransform="matrix(-1.0991 0.1094 0.0436 1.1226 455.9526 -851.7354)">
		<stop  offset="0.0181" style="stop-color:#000000"/>
		<stop  offset="0.1029" style="stop-color:#080808"/>
		<stop  offset="0.2327" style="stop-color:#1D1D1D"/>
		<stop  offset="0.3911" style="stop-color:#404040"/>
		<stop  offset="0.5723" style="stop-color:#707070"/>
		<stop  offset="0.7726" style="stop-color:#AEAEAE"/>
		<stop  offset="0.9861" style="stop-color:#F9F9F9"/>
		<stop  offset="1" style="stop-color:#FEFEFE"/>
	</linearGradient>
	<path opacity="0.2" fill-rule="evenodd" clip-rule="evenodd" fill="url(#SVGID_1_)" d="M108.426,4.69L4.686,13.589
		c0,0,5.2,57.029,0.394,97.377c63.411,6.613,83.932,3.06,107.456-3.382C125.007,92.274,108.426,4.69,108.426,4.69z"/>
	
		<linearGradient id="SVGID_2_" gradientUnits="userSpaceOnUse" x1="429.9941" y1="755.5049" x2="347.106" y2="792.8342" gradientTransform="matrix(-1.0991 0.1094 0.0436 1.1226 455.9526 -851.7354)">
		<stop  offset="0.0181" style="stop-color:#6761CC"/>
		<stop  offset="0.1199" style="stop-color:#6B69D3"/>
		<stop  offset="0.275" style="stop-color:#767EE6"/>
		<stop  offset="0.318" style="stop-color:#7A85ED"/>
		<stop  offset="0.6475" style="stop-color:#7B8CDF"/>
		<stop  offset="1" style="stop-color:#7D96CC"/>
	</linearGradient>
	<path fill-rule="evenodd" clip-rule="evenodd" fill="url(#SVGID_2_)" d="M108.426,4.69L4.949,13.563
		C10.346,82.404,6.423,107.7,5.08,110.9c2.617-0.357,8.291-0.899,15.718-1.608c26.721-2.553,85.845-11.336,90.003-19.883
		C114.96,80.862,108.426,4.69,108.426,4.69z"/>
	
		<linearGradient id="SVGID_3_" gradientUnits="userSpaceOnUse" x1="393.1221" y1="814.6104" x2="400.8808" y2="786.748" gradientTransform="matrix(-1.0991 0.1094 0.0436 1.1226 455.9526 -851.7354)">
		<stop  offset="0.0564" style="stop-color:#5661CC"/>
		<stop  offset="0.1588" style="stop-color:#5B68D4"/>
		<stop  offset="0.3148" style="stop-color:#697CE9"/>
		<stop  offset="0.4201" style="stop-color:#758DFB"/>
		<stop  offset="0.5097" style="stop-color:#6B7FF2"/>
		<stop  offset="0.677" style="stop-color:#515CDB"/>
		<stop  offset="0.7749" style="stop-color:#3F44CC"/>
	</linearGradient>
	<path fill-rule="evenodd" clip-rule="evenodd" fill="url(#SVGID_3_)" d="M90.563,76.092c2.117,14.104,12.758,18.588,19.984,13.747
		c-7.593,15.32-85.852,19.133-105.467,21.128c-1.408-1.259-0.271-3.604-0.271-3.604S83.329,84.723,90.563,76.092z"/>
</g>
<g>
	<g>
		<g>
			<path d="M22.049,55.409c-0.923-1.466-2.305-1.869-3.66-2.86c-0.862-0.629-2.113,0.627-1.491,1.514
				c8.598,12.268,14.215,25.823,17.126,40.608c0.278,1.409,2.387,0.853,2.111-0.547c-2.948-14.971-8.636-28.736-17.344-41.162
				c-0.497,0.504-0.993,1.01-1.491,1.513c0.925,0.675,2.225,1.027,2.859,2.035C20.914,57.712,22.809,56.619,22.049,55.409
				L22.049,55.409z"/>
		</g>
	</g>
	<g>
		<g>
			<path d="M25.644,73.646c5.287,2.091,10.98-1.81,11.386-7.462c0.104-1.437-2.073-1.447-2.176-0.026
				c-0.311,4.353-4.741,6.882-8.634,5.344C24.911,70.982,24.346,73.133,25.644,73.646L25.644,73.646z"/>
		</g>
	</g>
	<g>
		<g>
			<path d="M26.005,45.313c5.577,14.495,11.772,28.733,17.354,43.226c0.508,1.32,2.622,0.786,2.109-0.547
				C39.888,73.499,33.691,59.26,28.115,44.765C27.607,43.447,25.493,43.981,26.005,45.313L26.005,45.313z"/>
		</g>
	</g>
	<g>
		<g>
			<path d="M46.123,73.553c4.954-0.216,13.324-5.94,11.544-11.971c-1.578-5.354-10.651-2.382-12.294,1.54
				c-3.646,8.698,7.605,24.585,16.044,15.439c0.96-1.04-0.576-2.617-1.541-1.571c-6.251,6.773-12.671-4.091-12.959-10.047
				c-0.22-4.539,3.497-6.567,7.613-5.546c2.93,0.728-0.155,4.921-1.078,6.002c-1.829,2.146-4.485,3.805-7.304,3.929
				C44.75,71.39,44.722,73.614,46.123,73.553L46.123,73.553z"/>
		</g>
	</g>
	<g>
		<g>
			<path d="M92.106,34.377c-4.148,0.21-8.009,1.823-8.863,6.368c-0.794,4.227,1.308,8.87,3.577,12.267
				c2.309,3.458,5.007,4.872,9.037,5.393c2.65,0.343,5.241-0.485,6.307-3.131c2.262-5.615-3.799-13.679-7.279-17.355
				c-3.844-4.06-9.959-6.115-11.288,1.167c-0.256,1.401,1.84,2.002,2.099,0.59c1.047-5.745,5.242-2.728,7.952,0.136
				c3.145,3.318,6.396,8.273,6.663,13.027c0.331,5.876-8.225,2.995-10.473,0.525c-2.292-2.525-3.827-5.968-4.433-9.328
				c-0.868-4.808,2.29-7.21,6.677-7.434C93.479,36.529,93.508,34.305,92.106,34.377L92.106,34.377z"/>
		</g>
	</g>
	<g>
		<g>
			<path d="M43.495,30.582c-0.188-0.049-0.374-0.099-0.563-0.146c-0.893-0.236-1.736,0.774-1.233,1.622
				c1.95,3.289,4.815,5.891,7.406,8.646c3.288,3.496,6.351,7.135,9.122,11.077c4.354,6.196,9.162,12.912,9.881,20.738
				c0.07,0.743,0.616,1.234,1.357,1.092c2.907-0.556,6.104-3.211,9.126-2.457c1.362,0.341,1.94-1.805,0.577-2.145
				c-3.624-0.906-6.802,1.788-10.24,2.445c0.453,0.362,0.906,0.728,1.356,1.092c-0.696-7.567-4.742-14.013-8.925-20.088
				c-2.22-3.224-4.523-6.337-7.066-9.301c-3.461-4.038-7.97-7.59-10.704-12.2c-0.412,0.542-0.822,1.082-1.234,1.624
				c0.188,0.05,0.375,0.099,0.562,0.147C44.278,33.085,44.855,30.941,43.495,30.582L43.495,30.582z"/>
		</g>
	</g>
	<g>
		<g>
			<path d="M60.178,25.329c-0.827-0.307-2.2-0.124-2.871-0.638c-1.049-0.803-2.058,0.854-1.313,1.751
				c8.749,10.53,15.64,22.361,21.545,34.754c0.982,2.06,2.211,8.122,5.113,8.477c3.755,0.461,6.438-3.521,8.908-5.736
				c1.056-0.945-0.489-2.514-1.54-1.571c-0.949,0.851-1.8,1.811-2.707,2.709c-0.999,0.991-2.104,1.795-3.409,2.307
				c-1.587,0.62-2.37-2.263-2.664-3.078c-1.643-4.549-4.039-8.881-6.281-13.146c-4.914-9.352-10.705-18.198-17.428-26.29
				c-0.438,0.584-0.875,1.168-1.313,1.751c1.039,0.797,2.206,0.421,3.384,0.857C60.923,27.963,61.488,25.815,60.178,25.329
				L60.178,25.329z"/>
		</g>
	</g>
</g>
</svg>
