<?xml version="1.0" encoding="utf-8"?>
<!-- Generator: Adobe Illustrator 16.0.0, SVG Export Plug-In . SVG Version: 6.00 Build 0)  -->
<!DOCTYPE svg PUBLIC "-//W3C//DTD SVG 1.1//EN" "http://www.w3.org/Graphics/SVG/1.1/DTD/svg11.dtd">
<svg version="1.1" id="Layer_1" xmlns="http://www.w3.org/2000/svg" xmlns:xlink="http://www.w3.org/1999/xlink" x="0px" y="0px"
	 width="130px" height="130px" viewBox="0 0 130 130" enable-background="new 0 0 130 130" xml:space="preserve">
<g>
	<linearGradient id="SVGID_1_" gradientUnits="userSpaceOnUse" x1="22.7822" y1="80.9775" x2="-8.7811" y2="95.1458">
		<stop  offset="0.0181" style="stop-color:#000000"/>
		<stop  offset="0.1029" style="stop-color:#080808"/>
		<stop  offset="0.2327" style="stop-color:#1D1D1D"/>
		<stop  offset="0.3911" style="stop-color:#404040"/>
		<stop  offset="0.5723" style="stop-color:#707070"/>
		<stop  offset="0.7726" style="stop-color:#AEAEAE"/>
		<stop  offset="0.9861" style="stop-color:#F9F9F9"/>
		<stop  offset="1" style="stop-color:#FEFEFE"/>
	</linearGradient>
	<path opacity="0.2" fill-rule="evenodd" clip-rule="evenodd" fill="url(#SVGID_1_)" d="M4.054,7H124.84
		c0,0-7.302,62.748,3.803,108.842c-67.086,0.124-96.399-1.234-119.416,8.025C-3.552,107.438,4.054,7,4.054,7z"/>
	<linearGradient id="SVGID_2_" gradientUnits="userSpaceOnUse" x1="70.5469" y1="24.7334" x2="63.664" y2="88.5046">
		<stop  offset="0.0181" style="stop-color:#E9CA00"/>
		<stop  offset="0.1572" style="stop-color:#EDD207"/>
		<stop  offset="0.3692" style="stop-color:#F8E71A"/>
		<stop  offset="0.4279" style="stop-color:#FCEE21"/>
		<stop  offset="0.7043" style="stop-color:#FDF513"/>
		<stop  offset="1" style="stop-color:#FFFF00"/>
	</linearGradient>
	<path fill-rule="evenodd" clip-rule="evenodd" fill="url(#SVGID_2_)" d="M4.663,7h119.873c0,0-11.866,62.748,4.106,107.625
		c-13.173,1.254-102.656,1.928-119.694-4.666C1.215,92.008,4.663,7,4.663,7z"/>
</g>
<g>
	<g>
		<path d="M10.416,24.385c0.118-0.578,0.15-1.158,0.097-1.742c-0.025-0.678-0.441-1.255-1.101-1.446
			c-0.25-0.073-0.5-0.146-0.75-0.218c-0.964-0.28-1.866,0.488-1.899,1.446c-0.606,17.635-0.023,35.274,0,52.913c1,0,2,0,3,0
			c-0.131-1.76-0.522-3.466-0.653-5.227c-0.143-1.917-3.144-1.931-3,0c0.131,1.76,0.522,3.466,0.653,5.227
			c0.142,1.906,3.002,1.956,3,0c-0.023-17.639-0.606-35.278,0-52.913c-0.633,0.482-1.266,0.964-1.899,1.446
			c0.25,0.073,0.5,0.146,0.75,0.218c-0.367-0.482-0.734-0.964-1.101-1.446c0.053,0.584,0.021,1.165-0.097,1.742
			C7.202,26.306,10.204,26.286,10.416,24.385L10.416,24.385z"/>
	</g>
</g>
<g>
	<g>
		<path d="M5.251,51.307c5.356,1.276,10.693-0.479,15.822-1.959c1.855-0.535,1.065-3.431-0.798-2.893
			c-4.554,1.314-9.458,3.095-14.226,1.959C4.168,47.966,3.37,50.859,5.251,51.307L5.251,51.307z"/>
	</g>
</g>
<g>
	<g>
		<path d="M19.828,23.078c0.054,16.772,1.27,33.524,1.306,50.3c0.004,1.967,2.822,1.892,3,0c0.145-1.538,0.508-3.035,0.653-4.573
			c0.182-1.927-2.82-1.909-3,0c-0.145,1.538-0.508,3.035-0.653,4.573c1,0,2,0,3,0c-0.036-16.776-1.252-33.527-1.306-50.3
			C22.821,21.144,19.821,21.143,19.828,23.078L19.828,23.078z"/>
	</g>
</g>
<g>
	<g>
		<path d="M48.903,48.3c0.923-4.984-2.284-8.989-7.397-9.343c-3.884-0.268-6.503,3.731-7.89,6.771
			c-3.088,6.769-4.697,17.991,0.66,24.137c5.087,5.836,12.006-0.074,14.891-5.004c4.477-7.654,3.461-17.309-3.263-23.246
			c-1.444-1.275-3.574,0.838-2.121,2.121c5.171,4.566,6.248,10.995,3.894,17.326c-1.206,3.244-5.593,10.075-9.95,7.858
			c-4.924-2.506-4.091-11.858-3.181-16.269c0.632-3.063,1.654-6.32,3.625-8.801c2.882-3.629,8.733-1.171,7.839,3.652
			C45.66,49.394,48.551,50.201,48.903,48.3L48.903,48.3z"/>
	</g>
</g>
<g>
	<g>
		<path d="M57.715,38.756c0.031,12.401,0.691,24.877-0.653,37.234c1,0,2,0,3,0c0-1.742,0-3.483,0-5.226c0-1.935-3-1.935-3,0
			c0,1.742,0,3.483,0,5.226c0,1.977,2.795,1.878,3,0c1.344-12.357,0.684-24.833,0.653-37.234
			C60.71,36.821,57.71,36.821,57.715,38.756L57.715,38.756z"/>
	</g>
</g>
<g>
	<g>
		<path d="M57.267,42.126c4.538,6.056,7.873,12.888,12.412,18.943c0.717,0.958,2.417,1.033,2.741-0.358
			c1.813-7.769,2.08-15.924,5.728-23.159c-0.932-0.252-1.863-0.504-2.795-0.757c0.608,11.534,0.698,23.088,1.307,34.622c1,0,2,0,3,0
			c-0.167-1.261-0.458-2.422-0.707-3.665c-0.379-1.896-3.271-1.092-2.893,0.797c0.188,0.959,0.388,1.915,0.6,2.868
			c0.245,1.854,3.104,1.98,3,0c-0.608-11.534-0.698-23.088-1.307-34.622c-0.073-1.394-2.082-2.171-2.795-0.757
			c-3.784,7.503-4.15,15.815-6.03,23.875c0.914-0.119,1.827-0.239,2.741-0.358C67.73,53.5,64.395,46.668,59.857,40.612
			C58.712,39.084,56.105,40.576,57.267,42.126L57.267,42.126z"/>
	</g>
</g>
<g>
	<g>
		<path d="M86.817,37.195c3.104,11.095,0.317,22.807,3.267,33.968c0.222,0.838,1.049,1.198,1.845,1.048
			c5.759-1.089,11.847-4.505,14.615-9.835c0.891-1.714-1.698-3.231-2.59-1.514c-2.436,4.687-7.783,7.503-12.822,8.456
			c0.614,0.349,1.229,0.698,1.845,1.048c-2.946-11.151-0.155-22.849-3.267-33.969C89.189,34.537,86.295,35.328,86.817,37.195
			L86.817,37.195z"/>
	</g>
</g>
<g>
	<g>
		<path d="M97.809,36.283c0.765-0.156,1.421-0.506,2.214-0.6c-0.133-0.982-0.266-1.964-0.398-2.946
			c-5.689,1.418-11.605,3.017-14.615,8.528c-0.928,1.699,1.662,3.212,2.59,1.515c2.606-4.771,7.938-5.932,12.822-7.15
			c1.609-0.401,1.306-3.147-0.398-2.946c-1.072,0.126-1.971,0.495-3.011,0.707C95.116,33.777,95.921,36.668,97.809,36.283
			L97.809,36.283z"/>
	</g>
</g>
<g>
	<g>
		<path d="M94.143,51.361c0.596-0.066,1.463-0.015,2.038-0.236c1.459-0.56,1.409-3.13-0.398-2.946
			c-2.706,0.275-5.451,0.772-8.171,0.836c-1.932,0.045-1.936,3.045,0,3c2.72-0.063,5.465-0.561,8.171-0.836
			c-0.133-0.982-0.266-1.964-0.398-2.946c0.545-0.209,0.36-0.049,0.045-0.014c-0.429,0.048-0.857,0.096-1.286,0.143
			C92.242,48.572,92.222,51.574,94.143,51.361L94.143,51.361z"/>
	</g>
</g>
</svg>
