<?xml version="1.0" encoding="utf-8"?>
<!-- Generator: Adobe Illustrator 16.0.0, SVG Export Plug-In . SVG Version: 6.00 Build 0)  -->
<!DOCTYPE svg PUBLIC "-//W3C//DTD SVG 1.1//EN" "http://www.w3.org/Graphics/SVG/1.1/DTD/svg11.dtd">
<svg version="1.1" id="Layer_1" xmlns="http://www.w3.org/2000/svg" xmlns:xlink="http://www.w3.org/1999/xlink" x="0px" y="0px"
	 width="200px" height="200px" viewBox="0 0 200 200" enable-background="new 0 0 200 200" xml:space="preserve">
<g>
	
		<linearGradient id="SVGID_1_" gradientUnits="userSpaceOnUse" x1="-273.6255" y1="127.6904" x2="-319.857" y2="148.4431" gradientTransform="matrix(-0.9958 0.0918 0.0918 0.9958 -124.4268 20.2539)">
		<stop  offset="0.0181" style="stop-color:#000000"/>
		<stop  offset="0.1029" style="stop-color:#080808"/>
		<stop  offset="0.2327" style="stop-color:#1D1D1D"/>
		<stop  offset="0.3911" style="stop-color:#404040"/>
		<stop  offset="0.5723" style="stop-color:#707070"/>
		<stop  offset="0.7726" style="stop-color:#AEAEAE"/>
		<stop  offset="0.9861" style="stop-color:#F9F9F9"/>
		<stop  offset="1" style="stop-color:#FEFEFE"/>
	</linearGradient>
	<path opacity="0.2" fill-rule="evenodd" clip-rule="evenodd" fill="url(#SVGID_1_)" d="M188.557,6.515L5.243,24.379
		c0,0,7.883,95.995-3.053,169.545c125.541-13.52,140.658-12.415,186.168-13.74C209.953,153.773,188.557,6.515,188.557,6.515z"/>
	
		<linearGradient id="SVGID_2_" gradientUnits="userSpaceOnUse" x1="-204.7529" y1="40.0957" x2="-215.3785" y2="138.5445" gradientTransform="matrix(-0.9958 0.0918 0.0918 0.9958 -124.4268 20.2539)">
		<stop  offset="0.0181" style="stop-color:#FF7300"/>
		<stop  offset="0.1572" style="stop-color:#FF7B07"/>
		<stop  offset="0.3692" style="stop-color:#FF901A"/>
		<stop  offset="0.4279" style="stop-color:#FF9721"/>
		<stop  offset="0.7043" style="stop-color:#FF9E13"/>
		<stop  offset="1" style="stop-color:#FFA800"/>
	</linearGradient>
	<path fill-rule="evenodd" clip-rule="evenodd" fill="url(#SVGID_2_)" d="M187.507,5.654l-176.444,13.4
		c0,0,5.272,104.536-9.047,172.971c4.784-0.597,15.186-1.498,28.801-2.675c48.98-4.231,152.303-13.729,162.844-35.848
		C200.669,138.795,187.507,5.654,187.507,5.654z"/>
	
		<linearGradient id="SVGID_3_" gradientUnits="userSpaceOnUse" x1="-253.2563" y1="180.1387" x2="-246.9974" y2="157.6623" gradientTransform="matrix(-0.9958 0.0918 0.0918 0.9958 -124.4268 20.2539)">
		<stop  offset="0.0564" style="stop-color:#FF7300"/>
		<stop  offset="0.1588" style="stop-color:#FF7A08"/>
		<stop  offset="0.3148" style="stop-color:#FF8E1D"/>
		<stop  offset="0.4201" style="stop-color:#FF9F2F"/>
		<stop  offset="0.5097" style="stop-color:#FF9126"/>
		<stop  offset="0.677" style="stop-color:#FF6E0F"/>
		<stop  offset="0.7749" style="stop-color:#FF5600"/>
	</linearGradient>
	<path fill-rule="evenodd" clip-rule="evenodd" fill="url(#SVGID_3_)" d="M168.428,160.638c22.252,2.655,22.231-3.506,25.232-7.135
		c-12.608,26.459-68.885,26.347-104.828,29.662C118.009,175.438,152.879,181.545,168.428,160.638z"/>
</g>
<g>
	<g>
		<g>
			<path d="M30.3,71.982c0.135,11.379,3.126,23.025,5.319,34.128c2.357,11.935,5.014,23.807,7.415,35.731
				c0.381,1.896,3.273,1.092,2.893-0.797c-2.238-11.119-4.699-22.192-6.933-33.313c-2.332-11.611-5.553-23.846-5.694-35.75
				C33.277,70.049,30.277,70.046,30.3,71.982L30.3,71.982z"/>
		</g>
	</g>
	<g>
		<g>
			<path d="M47.214,142.946c7.223-1.415,12.273-7.489,19.465-8.898c1.897-0.372,1.092-3.263-0.798-2.893
				c-7.223,1.415-12.273,7.489-19.465,8.898C44.519,140.426,45.325,143.316,47.214,142.946L47.214,142.946z"/>
		</g>
	</g>
	<g>
		<g>
			<path d="M80.518,97.722c-1.592-3.879-4.954-6.191-8.71-3.15c-4.453,3.606-7.144,10.113-7.67,15.712
				c-0.613,6.513,5.86,21.104,14.446,15.267c9.046-6.149,12.683-42.104-3.606-33.73c-1.721,0.885-0.203,3.474,1.515,2.591
				c5.818-2.992,6.977,3.782,7.102,8.18c0.168,5.91-1.162,12.386-4.152,17.521c-3.842,6.601-8.429,2.263-11.31-2.726
				c-2.42-4.19-0.763-9.948,1.021-14.06c1.252-2.887,5.993-10.847,8.473-4.806C78.35,100.284,81.253,99.513,80.518,97.722
				L80.518,97.722z"/>
		</g>
	</g>
	<g>
		<g>
			<path d="M110.164,89.831c-7.137-8.886-19.501,5.805-12.7,14.014c2.313,2.792,5.981,4.15,9.437,2.72
				c4.544-1.882,5.393-7.468,5.371-11.78c-0.01-1.937-2.955-1.931-3,0c-0.326,14.002,6.762,26.724,7.14,40.595
				c0.152,5.573-3.079,4.688-7.095,3.295c-3.925-1.363-7.739-2.667-11.893-3.123c-1.922-0.211-1.901,2.791,0,3
				c4.952,0.543,9.383,2.661,14.13,3.98c2.758,0.767,5.591,0.521,7.029-2.221c2.512-4.786,0.132-12.531-1-17.354
				c-2.198-9.369-5.539-18.413-5.312-28.173c-1,0-2,0-3,0c0.022,4.542-2.077,11.948-8.024,8.525
				c-7.497-4.313,1.555-17.882,6.795-11.358C109.255,93.46,111.363,91.323,110.164,89.831L110.164,89.831z"/>
		</g>
	</g>
	<g>
		<g>
			<path d="M117.263,87.755c2.778,4.628,4.509,10.228,5.579,15.506c0.563,2.772,0.772,7.329,2.771,9.535
				c0.367,0.406,0.95,0.499,1.46,0.386c0.545-0.12,0.909-0.45,1.123-0.956c0.746-1.76-1.838-3.29-2.59-1.514
				c1.114-2.632,2.438,1.204,1.614-1.705c-0.249-0.876-0.445-1.768-0.651-2.654c-0.435-1.866-0.808-3.747-1.184-5.625
				c-0.972-4.854-2.975-10.227-5.532-14.486C118.858,84.585,116.264,86.092,117.263,87.755L117.263,87.755z"/>
		</g>
	</g>
	<g>
		<g>
			<path d="M130.055,83.862c5.418,7.604,8.016,16.869,10.415,25.78c0.36,1.34,2.661,1.526,2.893,0
				c0.873-5.761,0.106-31.278,9.972-29.015c5.807,1.333,6.771,13.044,7.312,17.632c0.438,3.709,2.07,13.864-1.438,16.598
				c-1.525,1.188,0.614,3.295,2.121,2.121c4.66-3.631,2.757-14.979,2.19-19.789c-0.693-5.882-1.938-16.319-8.281-19.054
				c-14.342-6.184-13.688,23.57-14.769,30.71c0.964,0,1.929,0,2.893,0c-2.459-9.135-5.161-18.7-10.718-26.498
				C131.532,80.787,128.929,82.283,130.055,83.862L130.055,83.862z"/>
		</g>
	</g>
</g>
</svg>
