<?xml version="1.0" encoding="utf-8"?>
<!-- Generator: Adobe Illustrator 16.0.0, SVG Export Plug-In . SVG Version: 6.00 Build 0)  -->
<!DOCTYPE svg PUBLIC "-//W3C//DTD SVG 1.1//EN" "http://www.w3.org/Graphics/SVG/1.1/DTD/svg11.dtd">
<svg version="1.1" id="Layer_1" xmlns="http://www.w3.org/2000/svg" xmlns:xlink="http://www.w3.org/1999/xlink" x="0px" y="0px"
	 width="180px" height="180px" viewBox="0 0 180 180" enable-background="new 0 0 180 180" xml:space="preserve">
<g>
	<linearGradient id="SVGID_1_" gradientUnits="userSpaceOnUse" x1="34.4434" y1="118.2637" x2="-5.9176" y2="136.3811">
		<stop  offset="0.0181" style="stop-color:#000000"/>
		<stop  offset="0.1029" style="stop-color:#080808"/>
		<stop  offset="0.2327" style="stop-color:#1D1D1D"/>
		<stop  offset="0.3911" style="stop-color:#404040"/>
		<stop  offset="0.5723" style="stop-color:#707070"/>
		<stop  offset="0.7726" style="stop-color:#AEAEAE"/>
		<stop  offset="0.9861" style="stop-color:#F9F9F9"/>
		<stop  offset="1" style="stop-color:#FEFEFE"/>
	</linearGradient>
	<path opacity="0.2" fill-rule="evenodd" clip-rule="evenodd" fill="url(#SVGID_1_)" d="M17.682,21.658l145.649-1.593
		c0,0-8.94,82.043,4.656,142.381C85.85,162.609,53.814,168.055,16.564,173C-13.236,96.532,17.682,21.658,17.682,21.658z"/>
	<linearGradient id="SVGID_2_" gradientUnits="userSpaceOnUse" x1="96.2441" y1="38.9194" x2="86.9138" y2="125.3676">
		<stop  offset="0.0181" style="stop-color:#95F5B5"/>
		<stop  offset="0.1659" style="stop-color:#99F7BD"/>
		<stop  offset="0.3912" style="stop-color:#A6FED2"/>
		<stop  offset="0.4279" style="stop-color:#A8FFD6"/>
		<stop  offset="0.7043" style="stop-color:#A9FFC8"/>
		<stop  offset="1" style="stop-color:#ABFFB5"/>
	</linearGradient>
	<path fill-rule="evenodd" clip-rule="evenodd" fill="url(#SVGID_2_)" d="M19.172,20.065c15.459-16.528,94.734-11.948,138.199-6.372
		c4.223,28.557-8.94,88.415,10.616,147.159c-16.128,1.643-130.903,2.572-151.763-6.06C6.754,131.295,3.713,36.594,19.172,20.065z"/>
</g>
<g>
	<g>
		<g>
			<path d="M17.887,92.73c4.596,13.089,4.715,27.062,6.667,40.666c0.124,0.867,1.123,1.169,1.845,1.048
				c7.212-1.206,11.43-7.685,17.691-10.817c1.73-0.865,0.211-3.453-1.514-2.59c-5.978,2.991-10.148,9.372-16.975,10.515
				c0.615,0.349,1.23,0.698,1.845,1.048c-1.953-13.611-2.067-27.566-6.667-40.666C20.143,90.121,17.244,90.9,17.887,92.73
				L17.887,92.73z"/>
		</g>
	</g>
	<g>
		<g>
			<path d="M45.065,95.552c-3.362-1.227-5.882,0.621-6.578,3.978c-0.846,4.082,0.586,8.726,2.601,12.248
				c2.79,4.879,12.675,9.197,16.253,2.834c2.895-5.149-0.51-12.994-3.449-17.354c-3.118-4.625-8.833-7.292-11.854-1.017
				c-0.834,1.734,1.752,3.257,2.591,1.514c1.948-4.047,4.665-1.82,6.672,1.018c2.444,3.454,4.175,8.014,3.956,12.284
				c-0.276,5.373-7.077,3.864-9.89,1.361c-2.423-2.156-3.592-5.871-3.989-8.988c-0.287-2.255-0.308-6.151,2.889-4.985
				C46.089,99.109,46.867,96.209,45.065,95.552L45.065,95.552z"/>
		</g>
	</g>
	<g>
		<g>
			<path d="M70.779,93.934c-0.836-2.916-3.126-4.258-6.055-3.284c-3.479,1.156-4.677,5.676-4.511,8.893
				c0.149,2.891,2.105,5.739,4.983,6.364c3.498,0.759,5.359-3.243,6.25-5.843c-0.914,0.12-1.828,0.239-2.742,0.358
				c4.074,8.559,10.335,15.917,13.907,24.752c2.038,5.039,1.43,10.032-4.949,10.095c-4.573,0.044-9.335-2.2-12.906-4.898
				c-1.544-1.168-3.037,1.439-1.514,2.59c5.776,4.366,21.45,9.963,23.477-1.172c0.955-5.248-2.745-11.165-5.17-15.497
				c-3.281-5.86-7.364-11.31-10.254-17.383c-0.602-1.264-2.358-0.761-2.742,0.358c-1.124,3.279-3.923,4.752-5.211,0.851
				c-0.275-1.136-0.24-2.265,0.104-3.387c0.394-2.741,1.874-3.407,4.44-2C68.419,96.587,71.314,95.797,70.779,93.934L70.779,93.934z
				"/>
		</g>
	</g>
	<g>
		<g>
			<path d="M79.22,89.933c-1.221,4.822,1.196,9.761,4.343,13.307c3.542,3.992,8.21,4.969,12.883,2.539
				c6.409-3.333,8.618-9.824,4.958-16.106c-2.929-5.028-8.834-9.466-14.729-9.989c-7.655-0.679-7.003,8.132-5.455,13.047
				c0.579,1.839,3.476,1.053,2.893-0.797c-0.991-3.146-2.652-9.528,2.563-9.25c4.294,0.229,8.504,3.771,11.072,6.938
				c3.059,3.771,3.592,8.448-0.221,11.849c-3.117,2.78-6.891,3.726-10.369,1.037c-3.278-2.533-6.113-7.555-5.045-11.776
				C82.587,88.854,79.694,88.059,79.22,89.933L79.22,89.933z"/>
		</g>
	</g>
	<g>
		<g>
			<path d="M101.166,82.332c-0.521,6.457,2.851,13.249,8.445,16.591c1.945,1.162,4.298,1.57,6.356,0.505
				c2.668-1.381,2.932-5.175,2.865-7.763c-0.05-1.931-3.05-1.936-3,0c0.04,1.55,0.197,4.597-1.653,5.305
				c-1.469,0.562-3.311-0.688-4.396-1.539c-3.91-3.069-6.014-8.197-5.618-13.099C104.322,80.402,101.32,80.417,101.166,82.332
				L101.166,82.332z"/>
		</g>
	</g>
	<g>
		<g>
			<path d="M113.166,76.998c-0.582,7.341,0.015,18.551,5.106,24.395c1.273,1.461,3.386-0.67,2.121-2.121
				c-4.503-5.169-4.738-15.839-4.228-22.273C116.319,75.068,113.318,75.083,113.166,76.998L113.166,76.998z"/>
		</g>
	</g>
	<g>
		<g>
			<path d="M130.554,50.599c-3.138,12.69-1.382,27.546,0.482,40.329c0.667,4.569,1.98,11.34,7.129,13.012
				c5.83,1.894,10.548-1.471,11.947-7.209c0.458-1.879-2.435-2.676-2.893-0.797c-1.043,4.276-4.498,6.988-8.798,4.809
				c-2.481-1.259-3.318-4.778-3.905-7.215c-1.025-4.252-1.271-8.861-1.656-13.211c-0.821-9.304-1.679-19.761,0.586-28.919
				C133.911,49.519,131.018,48.722,130.554,50.599L130.554,50.599z"/>
		</g>
	</g>
	<g>
		<g>
			<path d="M136.666,73.165c1.778,0,3.556,0,5.334,0c1.797,0,1.905-2.355,0.398-2.946c-4.62-1.815-10.024-2.224-14.938-2.464
				c-2.424-0.119-8.94-0.675-9.574,2.845c-0.341,1.891,2.55,2.7,2.893,0.798c0.256-1.419,8.62-0.532,9.626-0.45
				c3.714,0.301,7.701,0.792,11.196,2.165c0.133-0.982,0.266-1.964,0.398-2.946c-1.778,0-3.556,0-5.334,0
				C134.731,70.165,134.731,73.165,136.666,73.165L136.666,73.165z"/>
		</g>
	</g>
</g>
</svg>
