<?xml version="1.0" encoding="utf-8"?>
<!-- Generator: Adobe Illustrator 16.0.0, SVG Export Plug-In . SVG Version: 6.00 Build 0)  -->
<!DOCTYPE svg PUBLIC "-//W3C//DTD SVG 1.1//EN" "http://www.w3.org/Graphics/SVG/1.1/DTD/svg11.dtd">
<svg version="1.1" id="Layer_1" xmlns="http://www.w3.org/2000/svg" xmlns:xlink="http://www.w3.org/1999/xlink" x="0px" y="0px"
	 width="200px" height="200px" viewBox="0 0 200 200" enable-background="new 0 0 200 200" xml:space="preserve">
<g>
	
		<linearGradient id="SVGID_1_" gradientUnits="userSpaceOnUse" x1="503.749" y1="896.0332" x2="476.3582" y2="954.2129" gradientTransform="matrix(-0.5613 -0.9513 -1.0003 0.5115 1240.0156 167.1992)">
		<stop  offset="0.0181" style="stop-color:#000000"/>
		<stop  offset="0.1029" style="stop-color:#080808"/>
		<stop  offset="0.2327" style="stop-color:#1D1D1D"/>
		<stop  offset="0.3911" style="stop-color:#404040"/>
		<stop  offset="0.5723" style="stop-color:#707070"/>
		<stop  offset="0.7726" style="stop-color:#AEAEAE"/>
		<stop  offset="0.9861" style="stop-color:#F9F9F9"/>
		<stop  offset="1" style="stop-color:#FEFEFE"/>
	</linearGradient>
	<path opacity="0.2" fill-rule="evenodd" clip-rule="evenodd" fill="url(#SVGID_1_)" d="M197.945,131.713L124.392,2.518
		c0,0-69.148,40.22-123.165,57.681c29.687,86.045,46.508,110.549,68.792,137.248C96.909,204.618,197.945,131.713,197.945,131.713z"
		/>
	
		<linearGradient id="SVGID_2_" gradientUnits="userSpaceOnUse" x1="579.8096" y1="820.3848" x2="462.0024" y2="873.4402" gradientTransform="matrix(-0.5613 -0.9513 -1.0003 0.5115 1240.0156 167.1992)">
		<stop  offset="0.0181" style="stop-color:#6761CC"/>
		<stop  offset="0.1199" style="stop-color:#6B69D3"/>
		<stop  offset="0.275" style="stop-color:#767EE6"/>
		<stop  offset="0.318" style="stop-color:#7A85ED"/>
		<stop  offset="0.6475" style="stop-color:#7B8CDF"/>
		<stop  offset="1" style="stop-color:#7D96CC"/>
	</linearGradient>
	<path fill-rule="evenodd" clip-rule="evenodd" fill="url(#SVGID_2_)" d="M197.945,131.713L124.583,2.843
		C40.584,50.254,6.173,60.024,1.312,60.16c2.022,3.181,6.116,10.215,11.473,19.422c19.277,33.125,65.899,104.576,79.226,104.947
		C105.338,184.899,197.945,131.713,197.945,131.713z"/>
	
		<linearGradient id="SVGID_3_" gradientUnits="userSpaceOnUse" x1="527.4082" y1="903.4844" x2="538.5806" y2="863.3633" gradientTransform="matrix(-0.5613 -0.9513 -1.0003 0.5115 1240.0156 167.1992)">
		<stop  offset="0.0564" style="stop-color:#5661CC"/>
		<stop  offset="0.1588" style="stop-color:#5B68D4"/>
		<stop  offset="0.3148" style="stop-color:#697CE9"/>
		<stop  offset="0.4201" style="stop-color:#758DFB"/>
		<stop  offset="0.5097" style="stop-color:#6B7FF2"/>
		<stop  offset="0.677" style="stop-color:#515CDB"/>
		<stop  offset="0.7749" style="stop-color:#3F44CC"/>
	</linearGradient>
	<path fill-rule="evenodd" clip-rule="evenodd" fill="url(#SVGID_3_)" d="M96.739,150.486
		c-16.604,11.023-15.897,27.444-5.423,33.965C67.341,183.607,15.53,84.444,1.227,60.199c0.75-2.563,4.405-2.467,4.405-2.467
		S81.459,146.182,96.739,150.486z"/>
</g>
<g>
	<g>
		<g>
			<path d="M150.795,91.95c0.936-3.069,4.378,3.11,4.835,4.225c0.504,1.227,1.069,2.97,0.399,4.232
				c-0.897,1.691-4.749,0.154-5.931-0.247c-0.266,0.964-0.531,1.929-0.797,2.893c4.005,1.263,13.527,2.871,14.54,7.764
				c0.392,1.895,3.283,1.091,2.893-0.797c-1.321-6.381-11.503-8.242-16.636-9.859c-1.856-0.585-2.614,2.276-0.797,2.893
				c2.756,0.935,7.097,2.064,9.131-0.862c1.558-2.24,0.79-5.312-0.238-7.604c-1.648-3.673-8.081-10.686-10.292-3.434
				C147.337,93.008,150.232,93.795,150.795,91.95L150.795,91.95z"/>
		</g>
	</g>
	<g>
		<g>
			<path d="M64.348,46.988c-0.675-0.883-1.154-0.868-1.435,0.045c-0.497,0.681-1.021,1.339-1.573,1.974
				c-0.814,0.97-1.676,1.901-2.521,2.843c-1.996,2.224-3.904,4.511-5.948,6.695c-4.383,4.683-9.918,9.567-12.164,15.748
				c-0.662,1.823,2.238,2.601,2.893,0.798c1.585-4.363,5.321-7.905,8.408-11.245c3.018-3.265,5.992-6.542,8.932-9.875
				c1.177-1.334,9.494-9.666,3.407-9.984C62.414,43.887,62.424,46.888,64.348,46.988L64.348,46.988z"/>
		</g>
	</g>
	<g>
		<g>
			<path d="M63.088,48.217c4.542-0.044,3.294,7.098,2.38,9.708c-0.695,1.984-2.101,4.093-4.103,4.933
				c-2.609,1.095-5.263-0.5-7.286-2.053c-1.536-1.178-3.027,1.43-1.515,2.591c6.328,4.855,13.004,2.584,15.796-4.674
				c1.8-4.678,1.553-13.572-5.273-13.506C61.154,45.236,61.152,48.236,63.088,48.217L63.088,48.217z"/>
		</g>
	</g>
	<g>
		<g>
			<path d="M51.243,62.478c0.407,3.194,0.198,6.501-0.002,9.701c-0.083,1.315-1.586,10.701-1.842,10.586
				c-1.75-0.781-3.278,1.803-1.514,2.591c7.367,3.289,6.807-19.354,6.358-22.878C54.001,60.585,50.999,60.562,51.243,62.478
				L51.243,62.478z"/>
		</g>
	</g>
	<g>
		<g>
			<path d="M58.371,78.856c0.577,3.79,2.143,6.992,5.661,8.749c1.939,0.968,5.668,1.575,7.321-0.346
				c3.51-4.081-1.92-9.321-6.293-8.636c-8.963,1.404-19.007,17.025-6.268,20.609c1.866,0.525,2.657-2.37,0.798-2.893
				c-7.77-2.186-2.119-10.121,2.033-13.065c1.821-1.292,4.731-2.671,6.676-0.905c2.737,2.485-0.168,3.407-2.401,2.77
				c-3.144-0.897-4.194-4.196-4.634-7.081C60.973,76.151,58.083,76.964,58.371,78.856L58.371,78.856z"/>
		</g>
	</g>
	<g>
		<g>
			<path d="M80.231,92.88c1.693-8.161-11.693-3.285-9.518,3.921c0.847,2.805,3.698,3.991,6.488,3.358
				c4.259-0.965,6.92-4.125,8.21-8.171c0.557-1.748-1.79-2.421-2.742-1.156c-4.918,6.539-3.995,14.885-5.76,22.476
				c-1.207,5.189-5.889,11.506-11.131,6.729c-2.799-2.55-4.897-5.77-7.728-8.31c-1.435-1.288-3.564,0.827-2.121,2.121
				c5.45,4.89,10.735,15.64,18.854,8.91c9.047-7.501,3.842-21.593,10.477-30.412c-0.914-0.386-1.828-0.771-2.742-1.156
				c-0.98,3.076-3.071,5.723-6.466,6.108c-1.099,0.125-2.335-0.19-2.448-1.561c-0.157-1.897,4.025-5.063,3.733-3.655
				C76.947,93.971,79.839,94.774,80.231,92.88L80.231,92.88z"/>
		</g>
	</g>
	<g>
		<g>
			<path d="M91.506,95.029c0.613-0.535,1.226-1.07,1.839-1.605c-0.835-0.486-1.671-0.973-2.507-1.459
				c-0.787,3.63-1.701,7.23-2.703,10.806c-0.867,3.094-1.651,6.769-3.532,9.433c-1.119,1.584,1.484,3.081,2.591,1.514
				c1.848-2.617,2.65-6.126,3.545-9.147c1.154-3.89,2.132-7.842,2.991-11.807c0.326-1.503-1.366-2.455-2.507-1.459
				c-0.613,0.535-1.226,1.07-1.839,1.605C87.925,94.183,90.056,96.296,91.506,95.029L91.506,95.029z"/>
		</g>
	</g>
	<g>
		<g>
			<path d="M106.029,97.126c1.786-1.988,0.158-3.845-2.193-3.587c-2.795,0.307-6.125,2.136-7.089,4.926
				c-1.18,3.412,0.931,5.238,3.459,7.117c1.261,0.938,3.158,2.017,3.725,3.579c0.082,0.429-0.055,0.794-0.408,1.097
				c-1.115,1.354-2.51,1.465-4.008,0.779c-1.48-0.677-2.657-2.024-3.697-3.237c-1.262-1.471-3.374,0.661-2.121,2.121
				c2.078,2.422,6.319,6.247,9.818,4.074c2.533-1.572,4.352-3.842,2.803-6.791c-1.299-2.473-4.372-3.813-6.354-5.642
				c-1.324-1.221-0.114-2.921,1.039-3.78c0.586-0.437,1.269-0.742,1.952-0.987c0.288-0.095,0.581-0.175,0.878-0.238
				c1.994-0.481-1.839,0.578,0.076-1.553C102.619,96.439,104.734,98.568,106.029,97.126L106.029,97.126z"/>
		</g>
	</g>
	<g>
		<g>
			<path d="M121.414,77.433c-1.27,13.341-2.889,26.708-5.049,39.934c-0.31,1.892,2.581,2.703,2.893,0.797
				c2.204-13.49,3.861-27.125,5.156-40.731C124.598,75.507,121.596,75.525,121.414,77.433L121.414,77.433z"/>
		</g>
	</g>
	<g>
		<g>
			<path d="M124.651,99.296c0.637,0.136,1.273,0.271,1.91,0.407c1.938,0.412,2.547-2.166,0.797-2.893
				c-4.632-1.923-9.768-1.619-14.65-1.094c-1.902,0.205-1.923,3.207,0,3c4.64-0.499,9.449-0.842,13.854,0.987
				c0.266-0.964,0.531-1.928,0.797-2.893c-0.637-0.135-1.273-0.271-1.91-0.407C123.562,96,122.76,98.893,124.651,99.296
				L124.651,99.296z"/>
		</g>
	</g>
	<g>
		<g>
			<path d="M124.687,108.287c5.395,9.732,18.566-1.017,19.455-8.684c0.054-0.461-0.313-1.111-0.743-1.295
				c-8.317-3.563-18.016,4.988-17.729,13.5c0.247,7.338,13.439,12.281,15.163,3.468c0.37-1.89-2.521-2.694-2.893-0.797
				c-0.6,3.064-3.465,2.832-5.806,1.777c-2.514-1.132-3.591-3.157-3.452-5.857c0.285-5.554,7.715-11.852,13.203-9.5
				c-0.248-0.432-0.495-0.864-0.743-1.295c-0.568,4.903-10.188,13.802-13.865,7.17C126.339,105.081,123.748,106.594,124.687,108.287
				L124.687,108.287z"/>
		</g>
	</g>
	<g>
		<g>
			<path d="M147.628,99.203c1.473,0.567,1.295,7.892,1.369,9.212c0.156,2.777,0.136,5.6,0.603,8.349
				c0.323,1.904,3.214,1.095,2.893-0.797c-0.692-4.076-0.438-8.333-0.873-12.447c-0.261-2.463-0.501-6.172-3.194-7.209
				C146.617,95.614,145.842,98.516,147.628,99.203L147.628,99.203z"/>
		</g>
	</g>
</g>
</svg>
